fira-sans_book-italic.sfdir
StartChar: exclam
Encoding: 33 33 2126
Width: 236
Flags: MW
HStem: -12 21G<68 104.5> -12 129<77 104.5> 668 20G<131 223 223 223>
VStem: 28 127<39 66.5>
LayerCount: 2
Back
Fore
SplineSet
74 227 m 1xb0
 131 688 l 1
 223 688 l 1
 149 227 l 1
 74 227 l 1xb0
96 117 m 0x70
 132 117 155 91 155 58 c 0
 155 20 124 -12 85 -12 c 0
 51 -12 28 14 28 47 c 0
 28 86 58 117 96 117 c 0x70
EndSplineSet
EndChar

StartChar: quotedbl
Encoding: 34 34 993
Width: 385
Flags: MW
HStem: 429 259<121 160 97 210 121 272 296 335> 668 20G<121 210 210 210 296 385 385 385>
VStem: 97 288<429 688>
LayerCount: 2
Fore
SplineSet
121 688 m 1x60
 210 688 l 1
 160 429 l 1
 97 429 l 1xa0
 121 688 l 1x60
296 688 m 1
 385 688 l 1
 335 429 l 1
 272 429 l 1
 296 688 l 1
EndSplineSet
EndChar

StartChar: numbersign
Encoding: 35 35 989
Width: 509
Flags: MW
HStem: 0 21G<21 93 21 21 251 323 251 251> 167 64<10 66 1 84 156 296 10 138 386 445> 448 65<86 142 77 160 86 215 233 373 462 521>
VStem: 1 530<167 513>
LayerCount: 2
Fore
SplineSet
444 448 m 1
 386 231 l 1
 454 231 l 1
 445 167 l 1
 368 167 l 1
 323 0 l 1
 251 0 l 1
 296 167 l 1
 138 167 l 1
 93 0 l 1
 21 0 l 1
 66 167 l 1
 1 167 l 1
 10 231 l 1
 84 231 l 1
 142 448 l 1
 77 448 l 1
 86 513 l 1
 160 513 l 1
 202 668 l 1
 275 668 l 1
 233 513 l 1
 391 513 l 1
 433 668 l 1
 504 668 l 1
 462 513 l 1
 531 513 l 1
 521 448 l 1
 444 448 l 1
373 448 m 1
 215 448 l 1
 156 231 l 1
 314 231 l 1
 373 448 l 1
EndSplineSet
Substitution2: "'onum' Oldstyle Figures lookup 22 subtable" numbersign.osf
Substitution2: "'tnum' Tabular Numbers lookup 21 subtable" numbersign.tf
AlternateSubs2: "'aalt' Access All Alternates lookup 1 subtable" numbersign.tf numbersign.osf
EndChar
StartChar: dollar
Encoding: 36 36 2206
Width: 524
GlyphClass: 2
Flags: MW
HStem: -154 212<181 238 165 264> -11 69<186 186> 609 214<303 339>
VStem: 87 85<472.5 538.5 472.5 546.5> 387 86<159.5 225>
LayerCount: 2
Back
Fore
SplineSet
300 385 m 0x78
 396 355 473 304 473 201 c 0
 473 118 421 7 258 -10 c 1
 238 -154 l 1
 165 -154 l 1xb8
 186 -11 l 1
 105 -5 45 28 2 76 c 1
 56 126 l 1
 94 83 146 58 216 58 c 0
 312 58 387 103 387 201 c 0
 387 249 354 285 260 318 c 0
 146 353 87 410 87 495 c 0
 87 598 167 667 282 677 c 1
 303 823 l 1
 375 823 l 1
 354 677 l 1
 418 669 463 642 508 600 c 1
 455 551 l 1
 408 594 363 609 315 609 c 0
 238 609 172 578 172 499 c 0
 172 446 203 418 300 385 c 0x78
EndSplineSet
Substitution2: "'onum' Oldstyle Figures lookup 26 subtable" dollar.osf
Substitution2: "'tnum' Tabular Numbers lookup 25 subtable" dollar.tf
AlternateSubs2: "'aalt' Access All Alternates lookup 1 subtable" dollar.tf dollar.osf
EndChar
StartChar: ampersand
Encoding: 38 38 2379
Width: 753
GlyphClass: 2
Flags: MW
HStem: -12 67<241.5 313 241.5 314.5> 637 63<312.5 373.5>
VStem: 77 85<136.5 193 136.5 203.5> 160 81<512.5 562.5 512.5 582> 437 82<528.5 583.5>
LayerCount: 2
Back
Fore
SplineSet
348 700 m 0xe8
 447 700 519 638 519 561 c 0
 519 465 443 418 346 366 c 1
 505 193 l 1
 536 243 566 300 586 353 c 1
 661 325 l 1
 629 258 592 195 552 142 c 1
 649 36 l 1
 585 -12 l 1
 499 85 l 1
 436 23 362 -12 267 -12 c 0
 149 -12 77 66 77 163 c 0xe8
 77 244 108 306 235 378 c 1
 190 430 160 476 160 533 c 0xd8
 160 631 228 700 348 700 c 0xe8
348 637 m 0xd8
 277 637 241 592 241 533 c 0
 241 492 261 455 301 412 c 1
 386 458 437 496 437 561 c 0
 437 606 399 637 348 637 c 0xd8
278 329 m 1xe8
 177 271 162 219 162 167 c 0
 162 106 205 55 278 55 c 0
 348 55 403 85 454 135 c 1
 278 329 l 1xe8
EndSplineSet
Substitution2: "'ss03' Style Set 3 lookup 36 subtable" ampersand.ss03
Substitution2: "'aalt' Access All Alternates lookup 0 subtable" ampersand.ss03
EndChar

StartChar: quotesingle
Encoding: 39 39 994
Width: 210
Flags: MW
HStem: 668 20G<121 210 210 210>
VStem: 97 113
LayerCount: 2
Fore
SplineSet
121 688 m 1
 210 688 l 1
 160 429 l 1
 97 429 l 1
 121 688 l 1
EndSplineSet
EndChar
StartChar: parenleft
Encoding: 40 40 2150
Width: 319
Flags: MW
HStem: -141 986<169 305>
VStem: 45.66 84.54
LayerCount: 2
Back
Fore
SplineSet
305 845 m 1
 354 805 l 1
 247 672 170 563 139 345 c 0
 110 132 154 22 224 -110 c 1
 169 -141 l 1
 91 -3 21 117 54 355 c 0
 87 589 188 707 305 845 c 1
EndSplineSet
Substitution2: "'case' Case-Sensitive Forms lookup 29 subtable" parenleft.case
Substitution2: "'dnom' Denominators lookup 17 subtable" parenleft.dnom
Substitution2: "'numr' Numerators lookup 16 subtable" parenleft.numr
Substitution2: "'sups' Superscript lookup 15 subtable" uni207D
Substitution2: "'subs' Subscript lookup 14 subtable" uni208D
AlternateSubs2: "'aalt' Access All Alternates lookup 1 subtable" uni208D uni207D parenleft.numr parenleft.dnom parenleft.case
EndChar
StartChar: parenright
Encoding: 41 41 2151
Width: 319
Flags: MW
HStem: -145 986<38 174>
VStem: 213.36 83.42
LayerCount: 2
Back
Fore
SplineSet
174 841 m 1
 252 703 322 583 288 345 c 0
 256 111 155 -7 38 -145 c 1
 -12 -105 l 1
 96 28 174 138 204 355 c 0
 234 568 190 678 119 810 c 1
 174 841 l 1
EndSplineSet
Substitution2: "'case' Case-Sensitive Forms lookup 29 subtable" parenright.case
Substitution2: "'dnom' Denominators lookup 17 subtable" parenright.dnom
Substitution2: "'numr' Numerators lookup 16 subtable" parenright.numr
Substitution2: "'sups' Superscript lookup 15 subtable" uni207E
Substitution2: "'subs' Subscript lookup 14 subtable" uni208E
AlternateSubs2: "'aalt' Access All Alternates lookup 1 subtable" uni208E uni207E parenright.numr parenright.dnom parenright.case
EndChar
StartChar: asterisk
Encoding: 42 42 2118
Width: 433
Flags: MW
HStem: 511 20G<211 211 296 296> 546 20G<64 64 453 453> 718 20G<241 326 326 326>
VStem: 64 389<566 566>
LayerCount: 2
Back
Fore
SplineSet
453 566 m 1
 296 531 l 1
 382 414 l 1
 312 365 l 1
 250 499 l 1
 152 365 l 1
 93 413 l 1
 211 531 l 1
 64 566 l 1
 97 639 l 1
 234 580 l 1
 241 738 l 1
 326 738 l 1
 290 581 l 1
 437 642 l 1
 453 566 l 1
EndSplineSet
EndChar
StartChar: plus
Encoding: 43 43 2273
Width: 492
GlyphClass: 2
Flags: MW
HStem: 296 70<77 212 67 222 299 434 77 289>
VStem: 67 377<296 366>
LayerCount: 2
Back
Fore
SplineSet
320 516 m 1
 299 366 l 1
 444 366 l 1
 434 296 l 1
 289 296 l 1
 268 146 l 1
 191 146 l 1
 212 296 l 1
 67 296 l 1
 77 366 l 1
 222 366 l 1
 243 516 l 1
 320 516 l 1
EndSplineSet
Substitution2: "'onum' Oldstyle Figures lookup 26 subtable" plus.osf
Substitution2: "'tnum' Tabular Numbers lookup 25 subtable" plus.tf
Substitution2: "'dnom' Denominators lookup 17 subtable" plus.dnom
Substitution2: "'numr' Numerators lookup 16 subtable" plus.numr
Substitution2: "'sups' Superscript lookup 15 subtable" uni207A
Substitution2: "'subs' Subscript lookup 14 subtable" uni208A
AlternateSubs2: "'aalt' Access All Alternates lookup 1 subtable" uni208A uni207A plus.numr plus.dnom plus.tf plus.osf
EndChar
StartChar: comma
Encoding: 44 44 2123
Width: 233
Flags: MW
HStem: -163 280<-20 110 -20 110>
VStem: 24 127<47 66>
LayerCount: 2
Back
Fore
SplineSet
93 117 m 0
 127 117 151 91 151 58 c 0
 151 36 144 16 126 -16 c 2
 41 -163 l 1
 -20 -163 l 1
 44 1 l 1
 32 11 24 27 24 47 c 0
 24 85 55 117 93 117 c 0
EndSplineSet
EndChar

StartChar: hyphen
Encoding: 45 45 1027
Width: 397
Flags: MW
HStem: 277 72<72 339 62 349>
VStem: 62 287<277 349>
LayerCount: 2
Fore
SplineSet
72 349 m 1
 349 349 l 1
 339 277 l 1
 62 277 l 1
 72 349 l 1
EndSplineSet
Substitution2: "'case' Case-Sensitive Forms lookup 25 subtable" hyphen.case
Substitution2: "'aalt' Access All Alternates lookup 0 subtable" hyphen.case
EndChar
StartChar: period
Encoding: 46 46 2129
Width: 232
Flags: MW
HStem: -12 129<73 100.5>
VStem: 23 127<39 66.5>
LayerCount: 2
Back
Fore
SplineSet
92 117 m 0
 127 117 150 91 150 58 c 0
 150 20 120 -12 81 -12 c 0
 46 -12 23 14 23 47 c 0
 23 86 54 117 92 117 c 0
EndSplineSet
EndChar

StartChar: slash
Encoding: 47 47 996
Width: 515
Flags: MW
HStem: -103 911<127 412>
VStem: 57 425
LayerCount: 2
Fore
SplineSet
482 789 m 1
 127 -103 l 1
 57 -84 l 1
 412 808 l 1
 482 789 l 1
EndSplineSet
Substitution2: "'frac' Diagonal Fractions lookup 15 subtable" fraction
Substitution2: "'aalt' Access All Alternates lookup 0 subtable" fraction
EndChar

StartChar: zero
Encoding: 48 48 879
Width: 551
Flags: MW
HStem: -12 67<210.5 286.5 210.5 346> 611 67<284 360.5>
VStem: 59 85<156.5 229 156.5 318> 427 84<437.5 509.5>
LayerCount: 2
Fore
SplineSet
328 678 m 0
 449 678 511 594 511 439 c 0
 511 258 451 -12 241 -12 c 0
 121 -12 59 73 59 228 c 0
 59 408 118 678 328 678 c 0
328 611 m 0
 240 611 181 529 153 329 c 0
 147 284 144 246 144 212 c 0
 144 101 178 55 243 55 c 0
 330 55 390 137 418 338 c 0
 424 383 427 421 427 454 c 0
 427 565 393 611 328 611 c 0
EndSplineSet
Substitution2: "'zero' Slashed Zero lookup 28 subtable" zero.zero
Substitution2: "'onum' Oldstyle Figures lookup 22 subtable" zero.osf
Substitution2: "'tnum' Tabular Numbers lookup 21 subtable" zero.tf
Substitution2: "'frac' Diagonal Fractions lookup 16 subtable" zero.numr
Substitution2: "'dnom' Denominators lookup 14 subtable" zero.dnom
Substitution2: "'numr' Numerators lookup 13 subtable" zero.numr
Substitution2: "'sups' Superscript lookup 12 subtable" zerosuperior
Substitution2: "'subs' Subscript lookup 11 subtable" zeroinferior
AlternateSubs2: "'aalt' Access All Alternates lookup 1 subtable" zeroinferior zerosuperior zero.numr zero.dnom zero.tf zero.osf zero.zero
EndChar

StartChar: one
Encoding: 49 49 880
Width: 423
Flags: MW
HStem: 0 21G<191 275 191 191>
VStem: 74 295<541 668>
LayerCount: 2
Fore
SplineSet
275 0 m 1
 191 0 l 1
 272 570 l 1
 103 473 l 1
 74 541 l 1
 295 668 l 1
 369 668 l 1
 275 0 l 1
EndSplineSet
Substitution2: "'onum' Oldstyle Figures lookup 22 subtable" one.osf
Substitution2: "'tnum' Tabular Numbers lookup 21 subtable" one.tf
Substitution2: "'frac' Diagonal Fractions lookup 16 subtable" one.numr
Substitution2: "'dnom' Denominators lookup 14 subtable" one.dnom
Substitution2: "'numr' Numerators lookup 13 subtable" one.numr
Substitution2: "'sups' Superscript lookup 12 subtable" onesuperior
Substitution2: "'subs' Subscript lookup 11 subtable" oneinferior
AlternateSubs2: "'aalt' Access All Alternates lookup 1 subtable" oneinferior onesuperior one.numr one.dnom one.tf one.osf
EndChar
StartChar: two
Encoding: 50 50 2019
Width: 486
Flags: MW
HStem: 0 70 609 69<242.5 302>
VStem: 371 87<463.5 542.5>
LayerCount: 2
Back
Fore
SplineSet
278 678 m 0
 390 678 458 611 458 513 c 0
 458 407 396 321 109 69 c 1
 409 71 l 1
 389 0 l 1
 2 0 l 1
 11 69 l 1
 323 357 371 417 371 510 c 0
 371 575 332 609 272 609 c 0
 213 609 170 584 122 533 c 1
 68 582 l 1
 132 647 198 678 278 678 c 0
EndSplineSet
Substitution2: "'onum' Oldstyle Figures lookup 26 subtable" two.osf
Substitution2: "'tnum' Tabular Numbers lookup 25 subtable" two.tf
Substitution2: "'frac' Diagonal Fractions lookup 19 subtable" two.numr
Substitution2: "'dnom' Denominators lookup 17 subtable" two.dnom
Substitution2: "'numr' Numerators lookup 16 subtable" two.numr
Substitution2: "'sups' Superscript lookup 15 subtable" uni00B2
Substitution2: "'subs' Subscript lookup 14 subtable" uni2082
AlternateSubs2: "'aalt' Access All Alternates lookup 1 subtable" uni2082 uni00B2 two.numr two.dnom two.tf two.osf
EndChar

StartChar: three
Encoding: 51 51 882
Width: 491
Flags: MW
HStem: -12 69<151 228.5 151 267> 317 65<190 221 171 222> 611 67<242 299.5>
VStem: 341 85<178.5 257.5 169 260> 366 84<493 550>
LayerCount: 2
Fore
SplineSet
276 678 m 0xe8
 390 678 450 609 450 524 c 0xe8
 450 456 409 377 297 354 c 1
 370 349 426 300 426 215 c 0
 426 123 357 -12 177 -12 c 0
 96 -12 32 19 -10 79 c 1
 46 125 l 1
 81 75 125 57 177 57 c 0
 280 57 341 132 341 225 c 0xf0
 341 295 294 317 221 317 c 2
 171 317 l 1
 190 382 l 1
 222 382 l 2
 322 382 366 464 366 522 c 0
 366 578 330 611 269 611 c 0
 215 611 171 590 120 548 c 1
 79 601 l 1
 142 654 205 678 276 678 c 0xe8
EndSplineSet
Substitution2: "'onum' Oldstyle Figures lookup 22 subtable" three.osf
Substitution2: "'tnum' Tabular Numbers lookup 21 subtable" three.tf
Substitution2: "'frac' Diagonal Fractions lookup 16 subtable" three.numr
Substitution2: "'dnom' Denominators lookup 14 subtable" three.dnom
Substitution2: "'numr' Numerators lookup 13 subtable" three.numr
Substitution2: "'sups' Superscript lookup 12 subtable" threesuperior
Substitution2: "'subs' Subscript lookup 11 subtable" threeinferior
AlternateSubs2: "'aalt' Access All Alternates lookup 1 subtable" threeinferior threesuperior three.numr three.dnom three.tf three.osf
EndChar

StartChar: four
Encoding: 52 52 883
Width: 524
Flags: MW
HStem: 0 21G<288 369 288 288> 167 68<127 312 402 480>
VStem: 27 462<167 235>
LayerCount: 2
Fore
SplineSet
480 167 m 1
 393 167 l 1
 369 0 l 1
 288 0 l 1
 312 167 l 1
 27 167 l 1
 35 228 l 1
 294 678 l 1
 365 649 l 1
 127 235 l 1
 322 235 l 1
 355 418 l 1
 428 418 l 1
 402 235 l 1
 489 235 l 1
 480 167 l 1
EndSplineSet
Substitution2: "'onum' Oldstyle Figures lookup 22 subtable" four.osf
Substitution2: "'tnum' Tabular Numbers lookup 21 subtable" four.tf
Substitution2: "'frac' Diagonal Fractions lookup 16 subtable" four.numr
Substitution2: "'dnom' Denominators lookup 14 subtable" four.dnom
Substitution2: "'numr' Numerators lookup 13 subtable" four.numr
Substitution2: "'sups' Superscript lookup 12 subtable" foursuperior
Substitution2: "'subs' Subscript lookup 11 subtable" fourinferior
AlternateSubs2: "'aalt' Access All Alternates lookup 1 subtable" fourinferior foursuperior four.numr four.dnom four.tf four.osf
EndChar
StartChar: five
Encoding: 53 53 2022
Width: 492
Flags: MW
HStem: -12 69<160.5 252.5 160.5 279.5> 360 65<260.5 282.5> 602 66<199 461 199 199>
VStem: 357 85<211 288.5>
LayerCount: 2
Back
Fore
SplineSet
481 668 m 1
 461 602 l 1
 199 602 l 1
 169 398 l 1
 206 417 242 425 279 425 c 0
 380 425 442 359 442 245 c 0
 442 140 372 -12 187 -12 c 0
 101 -12 45 22 2 74 c 1
 57 121 l 1
 91 77 132 57 189 57 c 0
 316 57 357 175 357 247 c 0
 357 330 313 360 252 360 c 0
 212 360 185 351 148 334 c 1
 82 334 l 1
 129 668 l 1
 481 668 l 1
EndSplineSet
Substitution2: "'onum' Oldstyle Figures lookup 26 subtable" five.osf
Substitution2: "'tnum' Tabular Numbers lookup 25 subtable" five.tf
Substitution2: "'frac' Diagonal Fractions lookup 19 subtable" five.numr
Substitution2: "'dnom' Denominators lookup 17 subtable" five.dnom
Substitution2: "'numr' Numerators lookup 16 subtable" five.numr
Substitution2: "'sups' Superscript lookup 15 subtable" uni2075
Substitution2: "'subs' Subscript lookup 14 subtable" uni2085
AlternateSubs2: "'aalt' Access All Alternates lookup 1 subtable" uni2085 uni2075 five.numr five.dnom five.tf five.osf
EndChar

StartChar: six
Encoding: 54 54 885
Width: 524
Flags: MW
HStem: -12 67<206 302 206 325> 371 67<290.5 332.5> 611 67<304.5 372>
VStem: 55 81<151.5 211 151.5 234> 396 83<229.5 305.5>
LayerCount: 2
Fore
SplineSet
322 438 m 0
 409 438 479 381 479 264 c 0
 479 155 409 -12 241 -12 c 0
 107 -12 55 80 55 219 c 0
 55 249 57 281 62 315 c 0
 93 535 204 678 357 678 c 0
 411 678 453 662 487 637 c 1
 449 582 l 1
 422 601 389 611 355 611 c 0
 254 611 178 506 151 352 c 1
 203 412 259 438 322 438 c 0
243 55 m 0
 361 55 396 192 396 267 c 0
 396 344 359 371 306 371 c 0
 243 371 184 330 141 273 c 1
 138 246 136 222 136 200 c 0
 136 103 169 55 243 55 c 0
EndSplineSet
Substitution2: "'onum' Oldstyle Figures lookup 22 subtable" six.osf
Substitution2: "'tnum' Tabular Numbers lookup 21 subtable" six.tf
Substitution2: "'frac' Diagonal Fractions lookup 16 subtable" six.numr
Substitution2: "'dnom' Denominators lookup 14 subtable" six.dnom
Substitution2: "'numr' Numerators lookup 13 subtable" six.numr
Substitution2: "'sups' Superscript lookup 12 subtable" sixsuperior
Substitution2: "'subs' Subscript lookup 11 subtable" sixinferior
AlternateSubs2: "'aalt' Access All Alternates lookup 1 subtable" sixinferior sixsuperior six.numr six.dnom six.tf six.osf
EndChar
StartChar: seven
Encoding: 55 55 2024
Width: 437
Flags: MW
HStem: -9 21G<120 120> 599 69<82 368 72 464>
VStem: 44 420
LayerCount: 2
Back
Fore
SplineSet
464 668 m 1
 455 605 l 1
 120 -9 l 1
 44 16 l 1
 368 599 l 1
 72 599 l 1
 82 668 l 1
 464 668 l 1
EndSplineSet
Substitution2: "'onum' Oldstyle Figures lookup 26 subtable" seven.osf
Substitution2: "'tnum' Tabular Numbers lookup 25 subtable" seven.tf
Substitution2: "'frac' Diagonal Fractions lookup 19 subtable" seven.numr
Substitution2: "'dnom' Denominators lookup 17 subtable" seven.dnom
Substitution2: "'numr' Numerators lookup 16 subtable" seven.numr
Substitution2: "'sups' Superscript lookup 15 subtable" uni2077
Substitution2: "'subs' Subscript lookup 14 subtable" uni2087
AlternateSubs2: "'aalt' Access All Alternates lookup 1 subtable" uni2087 uni2077 seven.numr seven.dnom seven.tf seven.osf
EndChar

StartChar: eight
Encoding: 56 56 887
Width: 543
Flags: MW
HStem: -12 68<201 286 201 308.5> 615 63<275 357>
VStem: 33 86<128 190 128 197.5> 107 81<464.5 521.5 464 556> 401 85<160.5 232.5> 424 81<500 553.5>
LayerCount: 2
Fore
SplineSet
369 355 m 1xd8
 445 321 486 271 486 201 c 0
 486 80 382 -12 235 -12 c 0
 109 -12 33 60 33 160 c 0xe8
 33 235 68 305 192 355 c 1
 134 387 107 435 107 494 c 0
 107 618 218 678 324 678 c 0
 417 678 505 627 505 526 c 0xd4
 505 446 463 398 369 355 c 1xd8
325 615 m 0xd4
 225 615 188 549 188 494 c 0
 188 434 226 409 294 385 c 1
 312 379 l 1
 405 427 424 474 424 526 c 0
 424 581 389 615 325 615 c 0xd4
238 56 m 0xe8
 334 56 401 116 401 205 c 0
 401 260 364 288 274 322 c 1
 249 330 l 1
 142 285 119 219 119 161 c 0
 119 95 164 56 238 56 c 0xe8
EndSplineSet
Substitution2: "'onum' Oldstyle Figures lookup 22 subtable" eight.osf
Substitution2: "'tnum' Tabular Numbers lookup 21 subtable" eight.tf
Substitution2: "'frac' Diagonal Fractions lookup 16 subtable" eight.numr
Substitution2: "'dnom' Denominators lookup 14 subtable" eight.dnom
Substitution2: "'numr' Numerators lookup 13 subtable" eight.numr
Substitution2: "'sups' Superscript lookup 12 subtable" eightsuperior
Substitution2: "'subs' Subscript lookup 11 subtable" eightinferior
AlternateSubs2: "'aalt' Access All Alternates lookup 1 subtable" eightinferior eightsuperior eight.numr eight.dnom eight.tf eight.osf
EndChar
StartChar: nine
Encoding: 57 57 2026
Width: 518
Flags: MW
HStem: 244 67<219.5 265> 611 67<246.5 340>
VStem: 71 82<385 459 385 483.5> 409 83<465 523.5>
LayerCount: 2
Back
Fore
SplineSet
305 678 m 0
 429 678 492 596 492 468 c 0
 492 277 433 64 81 -22 c 1
 67 43 l 1
 239 91 357 171 389 323 c 1
 352 277 298 244 232 244 c 0
 139 244 71 315 71 425 c 0
 71 542 139 678 305 678 c 0
248 311 m 0
 309 311 360 347 402 402 c 1
 407 432 409 453 409 477 c 0
 409 570 373 611 307 611 c 0
 186 611 153 497 153 421 c 0
 153 349 191 311 248 311 c 0
EndSplineSet
Substitution2: "'onum' Oldstyle Figures lookup 26 subtable" nine.osf
Substitution2: "'tnum' Tabular Numbers lookup 25 subtable" nine.tf
Substitution2: "'frac' Diagonal Fractions lookup 19 subtable" nine.numr
Substitution2: "'dnom' Denominators lookup 17 subtable" nine.dnom
Substitution2: "'numr' Numerators lookup 16 subtable" nine.numr
Substitution2: "'sups' Superscript lookup 15 subtable" uni2079
Substitution2: "'subs' Subscript lookup 14 subtable" uni2089
AlternateSubs2: "'aalt' Access All Alternates lookup 1 subtable" uni2089 uni2079 nine.numr nine.dnom nine.tf nine.osf
EndChar

StartChar: colon
Encoding: 58 58 984
Width: 233
Flags: MW
HStem: -12 21G<63.5 100.5> -12 129<73 100.5> 362 128<125 153.5>
VStem: 23 127<39 66.5> 76 127<412.5 439.5>
LayerCount: 2
Fore
SplineSet
144 490 m 0xa8
 180 490 203 464 203 432 c 0
 203 393 173 362 134 362 c 0
 99 362 76 387 76 420 c 0
 76 459 106 490 144 490 c 0xa8
92 117 m 0x70
 127 117 150 91 150 58 c 0
 150 20 120 -12 81 -12 c 0
 46 -12 23 14 23 47 c 0
 23 86 54 117 92 117 c 0x70
EndSplineSet
EndChar

StartChar: less
Encoding: 60 60 1103
Width: 495
Flags: MW
HStem: 120 426<393 451>
VStem: 57 419<291 474>
LayerCount: 2
Fore
SplineSet
476 474 m 1
 130 331 l 1
 432 188 l 1
 393 120 l 1
 57 291 l 1
 69 375 l 1
 451 546 l 1
 476 474 l 1
EndSplineSet
Substitution2: "'onum' Oldstyle Figures lookup 22 subtable" less.osf
Substitution2: "'tnum' Tabular Numbers lookup 21 subtable" less.tf
AlternateSubs2: "'aalt' Access All Alternates lookup 1 subtable" less.tf less.osf
EndChar

StartChar: equal
Encoding: 61 61 1095
Width: 493
Flags: MW
HStem: 201 71<64 421 54 431> 390 71<90 448 80 458>
VStem: 54 404<201 461>
LayerCount: 2
Fore
SplineSet
90 461 m 1
 458 461 l 1
 448 390 l 1
 80 390 l 1
 90 461 l 1
64 272 m 1
 431 272 l 1
 421 201 l 1
 54 201 l 1
 64 272 l 1
EndSplineSet
Substitution2: "'onum' Oldstyle Figures lookup 22 subtable" equal.osf
Substitution2: "'tnum' Tabular Numbers lookup 21 subtable" equal.tf
Substitution2: "'dnom' Denominators lookup 14 subtable" equal.dnom
Substitution2: "'numr' Numerators lookup 13 subtable" equal.numr
Substitution2: "'sups' Superscript lookup 12 subtable" equalsuperior
AlternateSubs2: "'aalt' Access All Alternates lookup 1 subtable" equalsuperior equal.numr equal.dnom equal.tf equal.osf
EndChar

StartChar: greater
Encoding: 62 62 1098
Width: 494
Flags: MW
HStem: 120 426<63 121>
VStem: 39 418<189 375>
LayerCount: 2
Fore
SplineSet
457 375 m 1
 445 291 l 1
 63 120 l 1
 39 189 l 1
 385 337 l 1
 82 476 l 1
 121 546 l 1
 457 375 l 1
EndSplineSet
Substitution2: "'onum' Oldstyle Figures lookup 22 subtable" greater.osf
Substitution2: "'tnum' Tabular Numbers lookup 21 subtable" greater.tf
AlternateSubs2: "'aalt' Access All Alternates lookup 1 subtable" greater.tf greater.osf
EndChar

StartChar: question
Encoding: 63 63 991
Width: 451
Flags: MW
HStem: -12 21G<158.5 195.5> -12 129<168 195.5> 630 70<258 312.5>
VStem: 118 127<38.5 66> 136 81<262.5 333.5 258 357> 373 87<488.5 582.5>
LayerCount: 2
Fore
SplineSet
292 700 m 0xac
 404 700 460 636 460 562 c 0
 460 368 217 404 217 263 c 0
 217 253 218 244 221 231 c 1
 146 218 l 1
 140 234 136 256 136 269 c 0
 136 445 373 417 373 560 c 0
 373 605 340 630 285 630 c 0
 231 630 179 606 131 556 c 1
 79 604 l 1
 143 670 212 700 292 700 c 0xac
187 117 m 0x74
 222 117 245 91 245 58 c 0
 245 19 215 -12 176 -12 c 0
 141 -12 118 14 118 46 c 0
 118 86 149 117 187 117 c 0x74
EndSplineSet
EndChar

StartChar: at
Encoding: 64 64 1220
Width: 1015
Flags: MW
HStem: -211 70<371 511 371 513> 10 65<688.5 773 688.5 805> 429 61<485 568> 630 70<411.5 665.5>
VStem: 65 84<90 274.5 90 290.5> 301 81<142 230.5 142 252> 603 60 867 83<302 442.5>
LayerCount: 2
Fore
SplineSet
571 700 m 0
 819 700 950 548 950 352 c 0
 950 220 893 10 717 10 c 0
 639 10 607 63 603 112 c 1
 573 60 524 12 448 12 c 0
 356 12 301 79 301 186 c 0
 301 318 367 490 551 490 c 0
 605 490 652 479 700 450 c 1
 663 170 l 1
 658 120 661 75 716 75 c 0
 830 75 867 247 867 357 c 0
 867 528 762 630 569 630 c 0
 254 630 149 367 149 182 c 0
 149 -2 269 -141 473 -141 c 0
 549 -141 613 -126 668 -107 c 1
 686 -174 l 1
 618 -196 557 -211 469 -211 c 0
 231 -211 65 -49 65 184 c 0
 65 397 200 700 571 700 c 0
459 74 m 0
 534 74 575 141 589 172 c 1
 624 414 l 1
 603 424 583 429 553 429 c 0
 417 429 382 285 382 176 c 0
 382 108 408 74 459 74 c 0
EndSplineSet
EndChar

StartChar: F
Encoding: 70 70 34
Width: 483
GlyphClass: 2
Flags: MW
HStem: 0 21G<65 151 65 65> 307 69<203 420 194 430> 618 70<237 499 237 237>
VStem: 65 453
LayerCount: 2
Fore
SplineSet
499 618 m 1
 237 618 l 1
 203 376 l 1
 430 376 l 1
 420 307 l 1
 194 307 l 1
 151 0 l 1
 65 0 l 1
 162 688 l 1
 518 688 l 1
 499 618 l 1
EndSplineSet
Substitution2: "'c2sc' Capitals to Small Capitals lookup 23 subtable" f.sc
Substitution2: "'aalt' Access All Alternates lookup 0 subtable" f.sc
Position2: "'cpsp' Capital Spacing lookup 0 subtable" dx=5 dy=0 dh=10 dv=0
EndChar
StartChar: I
Encoding: 73 73 115
Width: 289
GlyphClass: 2
Flags: MW
HStem: 0 21G<65 151 65 65> 668 20G<162 247 247 247>
VStem: 65 182
AnchorPoint: "Anchor-14" 0 0 basechar 0
AnchorPoint: "Anchor-13" 0 0 basechar 0
AnchorPoint: "Anchor-12" 205 688 basechar 0
AnchorPoint: "Anchor-11" 140 0 basechar 0
AnchorPoint: "Anchor-10" 107 0 basechar 0
LayerCount: 2
Back
Fore
SplineSet
247 688 m 1
 151 0 l 1
 65 0 l 1
 162 688 l 1
 247 688 l 1
EndSplineSet
Substitution2: "'c2sc' Capitals to Small Capitals lookup 27 subtable" i.sc
Substitution2: "'aalt' Access All Alternates lookup 0 subtable" i.sc
Position2: "'cpsp' Capital Spacing lookup 0 subtable" dx=5 dy=0 dh=10 dv=0
EndChar

StartChar: J
Encoding: 74 74 54
Width: 297
GlyphClass: 2
Flags: MW
HStem: 668 20G<175 261 261 261>
VStem: -43 304
AnchorPoint: "Anchor-11" 0 0 basechar 0
AnchorPoint: "Anchor-10" 0 0 basechar 0
AnchorPoint: "Anchor-9" 217 688 basechar 0
AnchorPoint: "Anchor-8" 0 0 basechar 0
LayerCount: 2
Fore
SplineSet
177 92 m 2
 157 -46 89 -97 -25 -134 c 1
 -43 -69 l 1
 52 -32 80 9 92 102 c 1
 175 688 l 1
 261 688 l 1
 177 92 l 2
EndSplineSet
Substitution2: "'c2sc' Capitals to Small Capitals lookup 23 subtable" j.sc
Substitution2: "'aalt' Access All Alternates lookup 0 subtable" j.sc
Position2: "'cpsp' Capital Spacing lookup 0 subtable" dx=5 dy=0 dh=10 dv=0
EndChar
StartChar: M
Encoding: 77 77 152
Width: 787
GlyphClass: 2
Flags: MW
HStem: 0 21G<27 109 27 27 587 670 587 587> 600 88<626 626> 668 20G<182 292 292 292 586 708 708 708>
VStem: 27 681
AnchorPoint: "Anchor-14" 0 0 basechar 0
AnchorPoint: "Anchor-13" 0 0 basechar 0
AnchorPoint: "Anchor-12" 439 688 basechar 0
AnchorPoint: "Anchor-11" 0 0 basechar 0
AnchorPoint: "Anchor-10" 0 0 basechar 0
LayerCount: 2
Back
Fore
SplineSet
708 688 m 1xb0
 670 0 l 1
 587 0 l 1
 606 318 l 2
 612 426 619 536 626 600 c 1
 401 79 l 1
 318 79 l 1
 231 599 l 1xd0
 222 525 198 409 176 307 c 2
 109 0 l 1
 27 0 l 1
 182 688 l 1
 292 688 l 1
 374 181 l 1
 586 688 l 1
 708 688 l 1xb0
EndSplineSet
Substitution2: "'c2sc' Capitals to Small Capitals lookup 27 subtable" m.sc
Substitution2: "'aalt' Access All Alternates lookup 0 subtable" m.sc
Position2: "'cpsp' Capital Spacing lookup 0 subtable" dx=5 dy=0 dh=10 dv=0
EndChar
StartChar: P
Encoding: 80 80 211
Width: 573
GlyphClass: 2
Flags: MW
HStem: 0 21G<65 151 65 65> 256 69<196 278 186 280> 620 68<237 328 237 237>
VStem: 480 91<462.5 550>
AnchorPoint: "Anchor-14" 0 0 basechar 0
AnchorPoint: "Anchor-13" 0 0 basechar 0
AnchorPoint: "Anchor-12" 347 688 basechar 0
AnchorPoint: "Anchor-11" 0 0 basechar 0
AnchorPoint: "Anchor-10" 250 0 basechar 0
LayerCount: 2
Back
Fore
SplineSet
334 688 m 2
 483 688 571 631 571 508 c 0
 571 381 497 256 278 256 c 2
 186 256 l 1
 151 0 l 1
 65 0 l 1
 162 688 l 1
 334 688 l 2
280 325 m 2
 441 325 480 417 480 508 c 0
 480 592 422 620 328 620 c 2
 237 620 l 1
 196 325 l 1
 280 325 l 2
EndSplineSet
Substitution2: "'c2sc' Capitals to Small Capitals lookup 27 subtable" p.sc
Substitution2: "'aalt' Access All Alternates lookup 0 subtable" p.sc
Position2: "'cpsp' Capital Spacing lookup 0 subtable" dx=5 dy=0 dh=10 dv=0
EndChar

StartChar: R
Encoding: 82 82 86
Width: 596
GlyphClass: 2
Flags: MW
HStem: 0 21G<65 151 65 65 437 532 437 437> 296 67<201 306 306 308 192 306> 620 68<237 332 237 237>
VStem: 477 91<488 559.5>
AnchorPoint: "Anchor-11" 269 0 basechar 0
AnchorPoint: "Anchor-10" 0 0 basechar 0
AnchorPoint: "Anchor-9" 355 688 basechar 0
AnchorPoint: "Anchor-8" 0 0 basechar 0
LayerCount: 2
Fore
SplineSet
568 524 m 0
 568 436 523 344 392 309 c 1
 532 0 l 1
 437 0 l 1
 308 296 l 1
 192 296 l 1
 151 0 l 1
 65 0 l 1
 162 688 l 1
 335 688 l 2
 492 688 568 632 568 524 c 0
201 363 m 1
 306 363 l 2
 441 363 477 450 477 526 c 0
 477 593 433 620 332 620 c 2
 237 620 l 1
 201 363 l 1
EndSplineSet
Substitution2: "'c2sc' Capitals to Small Capitals lookup 23 subtable" r.sc
Substitution2: "'aalt' Access All Alternates lookup 0 subtable" r.sc
Position2: "'cpsp' Capital Spacing lookup 0 subtable" dx=5 dy=0 dh=10 dv=0
EndChar
StartChar: V
Encoding: 86 86 282
Width: 549
GlyphClass: 2
Flags: MW
HStem: 0 21G<191 284 191 191> 0 93<249 249 249 284 191 249> 668 20G<67 157 157 157 510 600 600 600>
VStem: 67 533<688 688>
LayerCount: 2
Back
Fore
SplineSet
600 688 m 1xb0
 284 0 l 1
 191 0 l 1
 67 688 l 1
 157 688 l 1
 249 93 l 1x70
 510 688 l 1
 600 688 l 1xb0
EndSplineSet
Substitution2: "'c2sc' Capitals to Small Capitals lookup 27 subtable" v.sc
Substitution2: "'aalt' Access All Alternates lookup 0 subtable" v.sc
Position2: "'cpsp' Capital Spacing lookup 0 subtable" dx=5 dy=0 dh=10 dv=0
EndChar

StartChar: W
Encoding: 87 87 113
Width: 817
GlyphClass: 2
Flags: MW
HStem: 0 77<198 198 198 239 132 198> 587 101<454 454> 668 20G<87 170 170 170 420 513 513 513 771 850 850 850>
VStem: 87 763<688 688>
AnchorPoint: "Anchor-11" 0 0 basechar 0
AnchorPoint: "Anchor-10" 0 0 basechar 0
AnchorPoint: "Anchor-9" 468 688 basechar 0
AnchorPoint: "Anchor-8" 0 0 basechar 0
LayerCount: 2
Fore
SplineSet
612 0 m 1xb0
 502 0 l 1
 454 587 l 1xd0
 239 0 l 1
 132 0 l 1
 87 688 l 1
 170 688 l 1
 198 77 l 1
 420 688 l 1
 513 688 l 1
 566 77 l 1
 771 688 l 1
 850 688 l 1
 612 0 l 1xb0
EndSplineSet
Substitution2: "'c2sc' Capitals to Small Capitals lookup 23 subtable" w.sc
Substitution2: "'aalt' Access All Alternates lookup 0 subtable" w.sc
Position2: "'cpsp' Capital Spacing lookup 0 subtable" dx=5 dy=0 dh=10 dv=0
EndChar
StartChar: X
Encoding: 88 88 292
Width: 528
GlyphClass: 2
Flags: MW
HStem: 0 21G<-32 64 -32 -32 391 485 391 391> 668 20G<85 179 179 179 464 559 559 559>
VStem: -32 591
LayerCount: 2
Back
Fore
SplineSet
330 372 m 1
 328 370 l 1
 485 0 l 1
 391 0 l 1
 273 310 l 1
 64 0 l 1
 -32 0 l 1
 225 367 l 1
 227 369 l 1
 85 688 l 1
 179 688 l 1
 282 425 l 1
 464 688 l 1
 559 688 l 1
 330 372 l 1
EndSplineSet
Substitution2: "'c2sc' Capitals to Small Capitals lookup 27 subtable" x.sc
Substitution2: "'aalt' Access All Alternates lookup 0 subtable" x.sc
Position2: "'cpsp' Capital Spacing lookup 0 subtable" dx=5 dy=0 dh=10 dv=0
EndChar
StartChar: Y
Encoding: 89 89 293
Width: 538
GlyphClass: 2
Flags: MW
HStem: 0 21G<189 276 189 189> 668 20G<67 157 157 157 498 592 592 592>
VStem: 67 525<688 688>
AnchorPoint: "Anchor-14" 0 0 basechar 0
AnchorPoint: "Anchor-13" 0 0 basechar 0
AnchorPoint: "Anchor-12" 331 688 basechar 0
AnchorPoint: "Anchor-11" 0 0 basechar 0
AnchorPoint: "Anchor-10" 232 0 basechar 0
LayerCount: 2
Back
Fore
SplineSet
592 688 m 1
 313 266 l 1
 276 0 l 1
 189 0 l 1
 227 265 l 1
 67 688 l 1
 157 688 l 1
 279 342 l 1
 498 688 l 1
 592 688 l 1
EndSplineSet
Substitution2: "'c2sc' Capitals to Small Capitals lookup 27 subtable" y.sc
Substitution2: "'aalt' Access All Alternates lookup 0 subtable" y.sc
Position2: "'cpsp' Capital Spacing lookup 0 subtable" dx=5 dy=0 dh=10 dv=0
EndChar
StartChar: Z
Encoding: 90 90 306
Width: 515
GlyphClass: 2
Flags: MW
HStem: 0 74<103 422> 615 73<127 424 116 530>
VStem: -7 537
AnchorPoint: "Anchor-14" 0 0 basechar 0
AnchorPoint: "Anchor-13" 0 0 basechar 0
AnchorPoint: "Anchor-12" 327 688 basechar 0
AnchorPoint: "Anchor-11" 0 0 basechar 0
AnchorPoint: "Anchor-10" 208 0 basechar 0
LayerCount: 2
Back
Fore
SplineSet
-7 0 m 1
 3 70 l 1
 424 615 l 1
 116 615 l 1
 127 688 l 1
 530 688 l 1
 521 618 l 1
 103 74 l 1
 442 74 l 1
 422 0 l 1
 -7 0 l 1
EndSplineSet
Substitution2: "'c2sc' Capitals to Small Capitals lookup 27 subtable" z.sc
Substitution2: "'aalt' Access All Alternates lookup 0 subtable" z.sc
Position2: "'cpsp' Capital Spacing lookup 0 subtable" dx=5 dy=0 dh=10 dv=0
EndChar

StartChar: bracketleft
Encoding: 91 91 1007
Width: 316
Flags: MW
HStem: -115 69<102 211> 744 70<214 331 214 214>
VStem: 15 326
LayerCount: 2
Fore
SplineSet
331 744 m 1
 214 744 l 1
 102 -46 l 1
 220 -46 l 1
 211 -115 l 1
 15 -115 l 1
 146 814 l 1
 341 814 l 1
 331 744 l 1
EndSplineSet
Substitution2: "'case' Case-Sensitive Forms lookup 25 subtable" bracketleft.case
Substitution2: "'aalt' Access All Alternates lookup 0 subtable" bracketleft.case
EndChar
StartChar: backslash
Encoding: 92 92 2119
Width: 515
Flags: MW
HStem: -103 907<252 286>
VStem: 182 175
LayerCount: 2
Back
Fore
SplineSet
252 804 m 1
 357 -87 l 1
 286 -103 l 1
 182 789 l 1
 252 804 l 1
EndSplineSet
EndChar

StartChar: bracketright
Encoding: 93 93 1008
Width: 316
Flags: MW
HStem: -115 69<8 126 8 195 -1 126> 744 70<130 237 120 326>
VStem: -1 327
LayerCount: 2
Fore
SplineSet
195 -115 m 1
 -1 -115 l 1
 8 -46 l 1
 126 -46 l 1
 237 744 l 1
 120 744 l 1
 130 814 l 1
 326 814 l 1
 195 -115 l 1
EndSplineSet
Substitution2: "'case' Case-Sensitive Forms lookup 25 subtable" bracketright.case
Substitution2: "'aalt' Access All Alternates lookup 0 subtable" bracketright.case
EndChar

StartChar: asciicircum
Encoding: 94 94 1230
Width: 533
Flags: MW
HStem: 527 311<79 383 79 383 310 526 310 437>
VStem: 79 447<527 527>
LayerCount: 2
Fore
SplineSet
526 527 m 1
 437 527 l 1
 338 764 l 1
 170 527 l 1
 79 527 l 1
 310 838 l 1
 383 838 l 1
 526 527 l 1
EndSplineSet
EndChar
StartChar: underscore
Encoding: 95 95 2137
Width: 515
Flags: MW
HStem: -137 72<-37 450 -27 440>
VStem: -37 487<-137 -65>
LayerCount: 2
Back
Fore
SplineSet
-37 -137 m 1
 -27 -65 l 1
 450 -65 l 1
 440 -137 l 1
 -37 -137 l 1
EndSplineSet
EndChar
StartChar: grave
Encoding: 96 96 2524
Width: 289
Flags: MW
HStem: 640 157<140 289>
VStem: 94 225<685 725>
LayerCount: 2
Back
Fore
SplineSet
140 797 m 1
 319 685 l 1
 289 640 l 1
 94 725 l 1
 140 797 l 1
EndSplineSet
Substitution2: "'case' Case-Sensitive Forms lookup 29 subtable" grave.case
Substitution2: "'smcp' Lowercase to Small Capitals lookup 28 subtable" grave.sc
Substitution2: "'c2sc' Capitals to Small Capitals lookup 27 subtable" grave.sc
AlternateSubs2: "'aalt' Access All Alternates lookup 1 subtable" grave.sc grave.case
EndChar
StartChar: b
Encoding: 98 98 371
Width: 577
GlyphClass: 2
Flags: MW
HStem: -12 67<231.5 320 231.5 348.5> 471 67<335.5 369.5> 728 20G<248 248>
VStem: 438 87<280 387>
AnchorPoint: "Anchor-14" 0 0 basechar 0
AnchorPoint: "Anchor-13" 0 0 basechar 0
AnchorPoint: "Anchor-12" 367 738 basechar 0
AnchorPoint: "Anchor-11" 0 0 basechar 0
AnchorPoint: "Anchor-10" 251 0 basechar 0
LayerCount: 2
Back
Fore
SplineSet
248 748 m 1
 209 471 l 1
 256 513 306 538 365 538 c 0
 465 538 525 465 525 333 c 0
 525 186 452 -12 245 -12 c 0
 186 -12 137 -2 63 23 c 1
 164 738 l 1
 248 748 l 1
340 471 m 0
 282 471 238 434 199 392 c 1
 154 73 l 1
 187 60 212 55 251 55 c 0
 389 55 438 221 438 339 c 0
 438 435 399 471 340 471 c 0
EndSplineSet
Substitution2: "'smcp' Lowercase to Small Capitals lookup 28 subtable" b.sc
Substitution2: "'aalt' Access All Alternates lookup 0 subtable" b.sc
EndChar

StartChar: d
Encoding: 100 100 153
Width: 591
GlyphClass: 2
Flags: MW
HStem: -12 67<211 259.5> 0 21G<384 457 384 384> 471 67<253 336 213.5 345> 718 20G<561 561> 728 20G<479 479>
VStem: 59 88<144.5 244.5 144.5 264>
LayerCount: 2
Fore
SplineSet
561 738 m 1xb4
 457 0 l 1
 384 0 l 1x6c
 387 92 l 1
 350 30 295 -12 224 -12 c 0
 117 -12 59 69 59 196 c 0
 59 332 123 538 304 538 c 0
 368 538 411 507 440 470 c 1
 479 748 l 1xac
 561 738 l 1xb4
319 471 m 0
 187 471 147 298 147 191 c 0
 147 98 182 55 240 55 c 0xac
 308 55 352 106 399 182 c 1
 430 404 l 1
 404 445 371 471 319 471 c 0
EndSplineSet
Substitution2: "'smcp' Lowercase to Small Capitals lookup 24 subtable" d.sc
Substitution2: "'aalt' Access All Alternates lookup 0 subtable" d.sc
EndChar
StartChar: e
Encoding: 101 101 409
Width: 521
GlyphClass: 2
Flags: MW
HStem: -12 71<225 285 225 286.5> 471 67<264.5 352>
VStem: 54 87 400 88<357.5 417.5>
AnchorPoint: "Anchor-14" 0 0 basechar 0
AnchorPoint: "Anchor-13" 0 0 basechar 0
AnchorPoint: "Anchor-12" 313 526 basechar 0
AnchorPoint: "Anchor-11" 357 6 basechar 0
AnchorPoint: "Anchor-10" 252 0 basechar 0
LayerCount: 2
Back
Fore
SplineSet
488 406 m 0
 488 261 332 217 141 199 c 1
 142 97 190 59 260 59 c 0
 310 59 354 75 402 109 c 1
 438 52 l 1
 382 11 321 -12 252 -12 c 0
 125 -12 54 68 54 201 c 0
 54 346 126 538 323 538 c 0
 432 538 488 476 488 406 c 0
145 263 m 1
 307 279 400 312 400 403 c 0
 400 432 382 471 322 471 c 0
 207 471 159 362 145 263 c 1
EndSplineSet
Substitution2: "'smcp' Lowercase to Small Capitals lookup 28 subtable" e.sc
Substitution2: "'aalt' Access All Alternates lookup 0 subtable" e.sc
EndChar

StartChar: f
Encoding: 102 102 167
Width: 327
GlyphClass: 2
Flags: MW
HStem: -211 21G<-36 -36> 461 65<49 132 39 141 224 335> 681 67<300 343>
VStem: -60 510
LayerCount: 2
Fore
SplineSet
330 681 m 0
 270 681 242 653 234 599 c 2
 224 526 l 1
 354 526 l 1
 335 461 l 1
 215 461 l 1
 154 26 l 2
 133 -121 77 -162 -36 -211 c 1
 -60 -148 l 1
 12 -115 55 -87 71 27 c 2
 132 461 l 1
 39 461 l 1
 49 526 l 1
 141 526 l 1
 152 604 l 2
 164 691 226 748 327 748 c 0
 377 748 411 735 450 711 c 1
 417 655 l 1
 386 676 356 681 330 681 c 0
EndSplineSet
Substitution2: "'smcp' Lowercase to Small Capitals lookup 24 subtable" f.sc
Substitution2: "'aalt' Access All Alternates lookup 0 subtable" f.sc
EndChar

StartChar: g
Encoding: 103 103 168
Width: 574
GlyphClass: 2
Flags: MW
HStem: -214 72<174.5 237.5 174 266.5> 0 67<206 249> 471 67<263.5 352.5>
VStem: 50 90<153 198 153 275.5>
AnchorPoint: "Anchor-11" 0 0 basechar 0
AnchorPoint: "Anchor-10" 0 0 basechar 0
AnchorPoint: "Anchor-9" 325 526 basechar 0
AnchorPoint: "Anchor-8" 0 0 basechar 0
LayerCount: 2
Fore
SplineSet
331 538 m 0
 395 538 448 526 515 493 c 1
 442 10 l 2
 417 -157 327 -214 206 -214 c 0
 143 -214 75 -193 26 -163 c 1
 58 -100 l 1
 92 -119 146 -142 202 -142 c 0
 273 -142 343 -118 361 11 c 1
 370 82 l 1
 331 34 278 0 220 0 c 0
 111 0 50 78 50 199 c 0
 50 352 128 538 331 538 c 0
333 471 m 0
 194 471 139 324 140 198 c 0
 140 108 177 67 235 67 c 0
 295 67 341 111 383 169 c 1
 426 452 l 1
 396 466 372 471 333 471 c 0
EndSplineSet
Substitution2: "'smcp' Lowercase to Small Capitals lookup 24 subtable" g.sc
Substitution2: "'aalt' Access All Alternates lookup 0 subtable" g.sc
EndChar
StartChar: i
Encoding: 105 105 477
Width: 277
GlyphClass: 2
Flags: MW
HStem: 0 21G<60 143 60 60> 506 20G<134 217 217 217> 658 116<189.5 214>
VStem: 143 116
AnchorPoint: "Anchor-14" 0 0 basechar 0
AnchorPoint: "Anchor-13" 0 0 basechar 0
AnchorPoint: "Anchor-12" 209 774 basechar 0
AnchorPoint: "Anchor-11" 125 0 basechar 0
AnchorPoint: "Anchor-10" 101 0 basechar 0
LayerCount: 2
Back
Fore
SplineSet
206 774 m 0
 244 774 264 746 259 711 c 0
 255 681 231 658 197 658 c 0
 160 658 139 686 143 720 c 0
 148 751 173 774 206 774 c 0
217 526 m 1
 143 0 l 1
 60 0 l 1
 134 526 l 1
 217 526 l 1
EndSplineSet
Substitution2: "'smcp' Lowercase to Small Capitals lookup 28 subtable" i.sc
Substitution2: "'locl' Localized Forms in Latin lookup 10 subtable" i.loclTRK
Substitution2: "'locl' Localized Forms in Latin lookup 8 subtable" i.loclTRK
Substitution2: "'locl' Localized Forms in Latin lookup 6 subtable" i.loclTRK
Substitution2: "'locl' Localized Forms in Latin lookup 3 subtable" i.loclTRK
Substitution2: "'locl' Localized Forms in Latin lookup 2 subtable" i.loclTRK
AlternateSubs2: "'aalt' Access All Alternates lookup 1 subtable" i.loclTRK i.sc
EndChar

StartChar: j
Encoding: 106 106 188
Width: 273
GlyphClass: 2
Flags: MW
HStem: -211 21G<-47 -47> 506 20G<130 213 213 213> 658 116<186.5 211>
VStem: 140 116
AnchorPoint: "Anchor-11" 0 0 basechar 0
AnchorPoint: "Anchor-10" 0 0 basechar 0
AnchorPoint: "Anchor-9" 172 526 basechar 0
AnchorPoint: "Anchor-8" 0 0 basechar 0
LayerCount: 2
Fore
SplineSet
203 774 m 0
 241 774 261 746 256 711 c 0
 252 681 228 658 194 658 c 0
 157 658 136 686 140 720 c 1
 145 751 170 774 203 774 c 0
143 26 m 2
 122 -121 66 -162 -47 -211 c 1
 -71 -148 l 1
 1 -115 44 -87 60 27 c 2
 130 526 l 1
 213 526 l 1
 143 26 l 2
EndSplineSet
Substitution2: "'smcp' Lowercase to Small Capitals lookup 24 subtable" j.sc
Substitution2: "'aalt' Access All Alternates lookup 0 subtable" j.sc
EndChar

StartChar: k
Encoding: 107 107 191
Width: 540
GlyphClass: 2
Flags: MW
HStem: 0 21G<60 143 60 60 373 466 373 373> 471 67<353 382> 728 20G<248 248>
VStem: 424 88<379.5 430>
AnchorPoint: "Anchor-11" 251 0 basechar 0
AnchorPoint: "Anchor-10" 0 0 basechar 0
AnchorPoint: "Anchor-9" 0 0 basechar 0
AnchorPoint: "Anchor-8" 0 0 basechar 0
LayerCount: 2
Fore
SplineSet
202 425 m 1
 254 503 320 538 386 538 c 0
 458 538 512 489 512 423 c 0
 512 336 458 269 347 234 c 1
 466 0 l 1
 373 0 l 1
 247 256 l 1
 371 291 424 337 424 411 c 0
 424 449 402 471 362 471 c 0
 303 471 234 419 187 313 c 1
 143 0 l 1
 60 0 l 1
 164 738 l 1
 248 748 l 1
 202 425 l 1
EndSplineSet
Substitution2: "'smcp' Lowercase to Small Capitals lookup 24 subtable" k.sc
Substitution2: "'aalt' Access All Alternates lookup 0 subtable" k.sc
EndChar
StartChar: l
Encoding: 108 108 511
Width: 287
GlyphClass: 2
Flags: MW
HStem: -12 70<166.5 173.5> 728 20G<244 244>
VStem: 68.71 83.29
AnchorPoint: "Anchor-14" 307 379 basechar 0
AnchorPoint: "Anchor-13" 254 738 basechar 0
AnchorPoint: "Anchor-12" 201 738 basechar 0
AnchorPoint: "Anchor-11" 0 0 basechar 0
AnchorPoint: "Anchor-10" 157 0 basechar 0
LayerCount: 2
Back
Fore
SplineSet
244 748 m 1
 152 100 l 2
 149 70 155 58 178 58 c 0
 191 58 203 61 215 66 c 1
 232 4 l 1
 207 -7 185 -12 162 -12 c 0
 95 -12 59 29 71 113 c 2
 160 738 l 1
 244 748 l 1
EndSplineSet
Substitution2: "'smcp' Lowercase to Small Capitals lookup 28 subtable" l.sc
Substitution2: "'sups' Superscript lookup 15 subtable" uni02E1
AlternateSubs2: "'aalt' Access All Alternates lookup 1 subtable" uni02E1 l.sc
EndChar

StartChar: n
Encoding: 110 110 201
Width: 580
GlyphClass: 2
Flags: MW
HStem: 0 21G<60 143 60 60 368 452 368 368> 467 71<346.5 377.5> 506 20G<134 205 205 205>
VStem: 422.6 84.14
AnchorPoint: "Anchor-11" 253 0 basechar 0
AnchorPoint: "Anchor-10" 124 526 basechar 0
AnchorPoint: "Anchor-9" 332 526 basechar 0
AnchorPoint: "Anchor-8" 0 0 basechar 0
LayerCount: 2
Fore
SplineSet
382 538 m 0xd0
 472 538 519 474 504 374 c 1
 452 0 l 1
 368 0 l 1
 420 368 l 2
 432 449 403 467 352 467 c 0xd0
 291 467 230 395 186 315 c 1
 143 0 l 1
 60 0 l 1
 134 526 l 1
 205 526 l 1xb0
 196 417 l 1
 245 490 311 538 382 538 c 0xd0
EndSplineSet
Substitution2: "'smcp' Lowercase to Small Capitals lookup 24 subtable" n.sc
Substitution2: "'aalt' Access All Alternates lookup 0 subtable" n.sc
EndChar

StartChar: p
Encoding: 112 112 220
Width: 586
GlyphClass: 2
Flags: MW
HStem: -214 21G<30 30> -12 67<231.5 320 231.5 349.5> 471 67<336.5 369> 506 20G<134 205 205 205>
VStem: 438 87<280 387>
LayerCount: 2
Fore
SplineSet
365 538 m 0xe8
 465 538 525 465 525 333 c 0
 525 186 452 -12 247 -12 c 0
 209 -12 178 -6 143 6 c 1
 115 -203 l 1
 30 -214 l 1
 134 526 l 1
 205 526 l 1xd8
 202 458 l 1
 257 519 308 538 365 538 c 0xe8
340 471 m 0
 282 471 238 434 198 392 c 1
 154 73 l 1
 187 60 212 55 251 55 c 0
 389 55 438 221 438 339 c 0
 438 435 398 471 340 471 c 0
EndSplineSet
Substitution2: "'smcp' Lowercase to Small Capitals lookup 24 subtable" p.sc
Substitution2: "'aalt' Access All Alternates lookup 0 subtable" p.sc
EndChar

StartChar: r
Encoding: 114 114 223
Width: 379
GlyphClass: 2
Flags: MW
HStem: 0 21G<60 143 60 60> 455 83<322.5 347> 506 20G<134 205 205 205> 531 7
VStem: 60 346
AnchorPoint: "Anchor-11" 102 0 basechar 0
AnchorPoint: "Anchor-10" 0 0 basechar 0
AnchorPoint: "Anchor-9" 272 526 basechar 0
AnchorPoint: "Anchor-8" 0 0 basechar 0
LayerCount: 2
Fore
SplineSet
353 538 m 0xc8
 373 538 391 535 406 531 c 1x98
 381 450 l 1
 366 454 355 455 339 455 c 0xc8
 269 455 222 392 183 284 c 1
 143 0 l 1
 60 0 l 1
 134 526 l 1
 205 526 l 1xa8
 197 413 l 1
 237 497 292 538 353 538 c 0xc8
EndSplineSet
Substitution2: "'smcp' Lowercase to Small Capitals lookup 24 subtable" r.sc
Substitution2: "'aalt' Access All Alternates lookup 0 subtable" r.sc
EndChar
StartChar: s
Encoding: 115 115 619
Width: 461
GlyphClass: 2
Flags: MW
HStem: -12 68<166 242.5 166 250> 471 67<228 285>
VStem: 67 85<374.5 419 374.5 425.5> 321 88<126 173.5>
AnchorPoint: "Anchor-14" 0 0 basechar 0
AnchorPoint: "Anchor-13" 0 0 basechar 0
AnchorPoint: "Anchor-12" 274 526 basechar 0
AnchorPoint: "Anchor-11" 0 0 basechar 0
AnchorPoint: "Anchor-10" 195 0 basechar 0
LayerCount: 2
Back
Fore
SplineSet
262 538 m 0
 334 538 388 514 432 474 c 1
 392 424 l 1
 352 455 309 471 261 471 c 0
 195 471 152 442 152 396 c 0
 152 353 186 335 260 312 c 0
 360 280 409 236 409 155 c 0
 409 43 307 -12 193 -12 c 0
 102 -12 42 23 1 63 c 1
 49 112 l 1
 88 78 136 56 196 56 c 0
 289 56 321 105 321 147 c 0
 321 200 294 221 208 247 c 0
 106 279 67 320 67 390 c 0
 67 461 130 538 262 538 c 0
EndSplineSet
Substitution2: "'smcp' Lowercase to Small Capitals lookup 28 subtable" s.sc
Substitution2: "'sups' Superscript lookup 15 subtable" uni02E2
AlternateSubs2: "'aalt' Access All Alternates lookup 1 subtable" uni02E2 s.sc
EndChar

StartChar: t
Encoding: 116 116 234
Width: 351
GlyphClass: 2
Flags: MW
HStem: -12 71<193.5 224> 461 65<47 129 38 141 221 328>
VStem: 80.52 83.47
AnchorPoint: "Anchor-11" 193 0 basechar 0
AnchorPoint: "Anchor-10" 0 0 basechar 0
AnchorPoint: "Anchor-9" 0 0 basechar 0
AnchorPoint: "Anchor-8" 0 0 basechar 0
LayerCount: 2
Fore
SplineSet
166 137 m 2
 158 82 171 59 216 59 c 0
 242 59 265 67 293 83 c 1
 321 23 l 1
 283 -1 245 -12 203 -12 c 0
 115 -12 69 42 83 138 c 2
 129 461 l 1
 38 461 l 1
 47 526 l 1
 141 526 l 1
 173 649 l 1
 239 656 l 1
 221 526 l 1
 347 526 l 1
 328 461 l 1
 212 461 l 1
 166 137 l 2
EndSplineSet
Substitution2: "'smcp' Lowercase to Small Capitals lookup 24 subtable" t.sc
Substitution2: "'aalt' Access All Alternates lookup 0 subtable" t.sc
EndChar

StartChar: v
Encoding: 118 118 250
Width: 482
GlyphClass: 2
Flags: MW
HStem: 0 21G<156 256 156 156> 0 76<215 215 215 256 156 215> 506 20G<48 139 139 139 417 508 508 508>
VStem: 48 460<526 526>
LayerCount: 2
Fore
SplineSet
256 0 m 1xb0
 156 0 l 1
 48 526 l 1
 139 526 l 1
 215 76 l 1x70
 417 526 l 1
 508 526 l 1
 256 0 l 1xb0
EndSplineSet
Substitution2: "'smcp' Lowercase to Small Capitals lookup 24 subtable" v.sc
Substitution2: "'aalt' Access All Alternates lookup 0 subtable" v.sc
EndChar
StartChar: x
Encoding: 120 120 698
Width: 474
GlyphClass: 2
Flags: MW
HStem: 0 21G<-31 64 -31 -31 337 431 337 337> 506 20G<66 159 159 159 389 485 485 485>
VStem: -31 516
AnchorPoint: "Anchor-14" 0 0 basechar 0
AnchorPoint: "Anchor-13" 0 0 basechar 0
AnchorPoint: "Anchor-12" 274 526 basechar 0
AnchorPoint: "Anchor-11" 0 0 basechar 0
AnchorPoint: "Anchor-10" 201 0 basechar 0
LayerCount: 2
Back
Fore
SplineSet
485 526 m 1
 290 275 l 1
 431 0 l 1
 337 0 l 1
 233 227 l 1
 64 0 l 1
 -31 0 l 1
 191 283 l 1
 66 526 l 1
 159 526 l 1
 247 329 l 1
 389 526 l 1
 485 526 l 1
EndSplineSet
Substitution2: "'smcp' Lowercase to Small Capitals lookup 28 subtable" x.sc
Substitution2: "'sups' Superscript lookup 15 subtable" uni02E3
AlternateSubs2: "'aalt' Access All Alternates lookup 1 subtable" uni02E3 x.sc
EndChar
StartChar: z
Encoding: 122 122 712
Width: 428
GlyphClass: 2
Flags: MW
HStem: 0 71<100 352> 455 71<85 320 75 433>
VStem: -12 445
AnchorPoint: "Anchor-14" 0 0 basechar 0
AnchorPoint: "Anchor-13" 0 0 basechar 0
AnchorPoint: "Anchor-12" 259 526 basechar 0
AnchorPoint: "Anchor-11" 0 0 basechar 0
AnchorPoint: "Anchor-10" 170 0 basechar 0
LayerCount: 2
Back
Fore
SplineSet
433 526 m 1
 425 462 l 1
 100 71 l 1
 371 71 l 1
 352 0 l 1
 -12 0 l 1
 -4 63 l 1
 320 455 l 1
 75 455 l 1
 85 526 l 1
 433 526 l 1
EndSplineSet
Substitution2: "'smcp' Lowercase to Small Capitals lookup 28 subtable" z.sc
Substitution2: "'aalt' Access All Alternates lookup 0 subtable" z.sc
EndChar
StartChar: braceleft
Encoding: 123 123 2146
Width: 318
Flags: MW
HStem: -134 64<188 216> 314 70<43 61> 769 65<309.5 343>
VStem: 61.62 156.88 96 81.05
LayerCount: 2
Back
Fore
SplineSet
348 834 m 1xe8
 343 769 l 1
 276 769 246 747 239 696 c 2
 204 454 l 2
 195 382 166 363 115 347 c 1
 158 333 185 313 175 241 c 2xe8
 140 -2 l 2
 133 -53 155 -70 221 -70 c 1
 216 -134 l 1xf0
 104 -134 49 -89 64 12 c 2
 96 241 l 2
 104 296 89 314 33 314 c 1
 43 384 l 1
 95 384 120 409 128 464 c 2
 160 693 l 2
 174 794 223 834 348 834 c 1xe8
EndSplineSet
Substitution2: "'case' Case-Sensitive Forms lookup 29 subtable" braceleft.case
Substitution2: "'aalt' Access All Alternates lookup 0 subtable" braceleft.case
EndChar
StartChar: bar
Encoding: 124 124 2376
Width: 399
GlyphClass: 2
Flags: MW
HStem: -102 908<110 313 110 313>
VStem: 110 203
LayerCount: 2
Back
Fore
SplineSet
313 806 m 1
 187 -102 l 1
 110 -102 l 1
 237 806 l 1
 313 806 l 1
EndSplineSet
EndChar

StartChar: braceright
Encoding: 125 125 1006
Width: 317
Flags: MW
HStem: -134 64<-1 32 -1 56.5> 316 70<280.5 299> 769 65<126 153.5>
VStem: 123 157.03 164.89 81.11
LayerCount: 2
Fore
SplineSet
-1 -70 m 1xe8
 65 -70 96 -47 103 4 c 2
 137 246 l 2
 147 318 176 336 227 352 c 1
 183 367 157 387 167 459 c 2xe8
 201 702 l 2
 209 753 187 769 120 769 c 1
 126 834 l 1xf0
 237 834 292 789 278 688 c 2
 246 458 l 2
 238 404 252 386 309 386 c 1
 299 316 l 1
 247 316 222 291 214 236 c 2
 182 6 l 2
 168 -95 119 -134 -6 -134 c 1
 -1 -70 l 1xe8
EndSplineSet
Substitution2: "'case' Case-Sensitive Forms lookup 25 subtable" braceright.case
Substitution2: "'aalt' Access All Alternates lookup 0 subtable" braceright.case
EndChar
StartChar: asciitilde
Encoding: 126 126 2247
Width: 479
GlyphClass: 2
Flags: MW
HStem: 253 68<298.5 340.5 298.5 349.5> 314 67<155 197>
VStem: 41 412<291 338>
LayerCount: 2
Back
Fore
SplineSet
316 253 m 0xa0
 247 253 220 314 174 314 c 0
 136 314 110 286 91 260 c 1
 41 291 l 1
 68 331 112 381 181 381 c 0x60
 248 381 274 321 323 321 c 0
 358 321 385 344 404 370 c 1
 453 338 l 1
 425 298 383 253 316 253 c 0xa0
EndSplineSet
Substitution2: "'onum' Oldstyle Figures lookup 26 subtable" asciitilde.osf
Substitution2: "'tnum' Tabular Numbers lookup 25 subtable" asciitilde.tf
AlternateSubs2: "'aalt' Access All Alternates lookup 1 subtable" asciitilde.tf asciitilde.osf
EndChar

StartChar: exclamdown
Encoding: 161 161 988
Width: 236
Flags: MW
HStem: -201 21G<11 103 11 11> 362 128<130 157.5>
VStem: 80 127<412.5 439.5>
LayerCount: 2
Fore
SplineSet
149 490 m 0
 184 490 207 464 207 432 c 0
 207 393 177 362 138 362 c 0
 103 362 80 387 80 420 c 0
 80 459 111 490 149 490 c 0
103 -201 m 1
 11 -201 l 1
 83 248 l 1
 157 248 l 1
 103 -201 l 1
EndSplineSet
Substitution2: "'case' Case-Sensitive Forms lookup 25 subtable" exclamdown.case
Substitution2: "'aalt' Access All Alternates lookup 0 subtable" exclamdown.case
EndChar
StartChar: cent
Encoding: 162 162 2204
Width: 471
GlyphClass: 2
Flags: MW
HStem: -153 213<219 249 177 277.5> -11 71<269 269> -7 21G<197 197> 468 69<251.5 346> 468 215<295 341>
VStem: 54 87<148.5 251.5 148.5 265.5>
LayerCount: 2
Back
Fore
SplineSet
320 468 m 0x34
 183 468 141 307 141 196 c 0
 141 101 184 60 254 60 c 0
 301 60 336 75 378 102 c 1
 412 43 l 1
 367 11 320 -7 269 -11 c 1x54
 249 -153 l 1
 177 -153 l 1x94
 197 -7 l 1
 106 13 54 87 54 202 c 0
 54 329 114 506 275 534 c 1
 295 683 l 1
 367 683 l 1x2c
 346 537 l 1
 393 532 434 515 469 481 c 1
 424 429 l 1
 393 456 362 468 320 468 c 0x34
EndSplineSet
Substitution2: "'onum' Oldstyle Figures lookup 26 subtable" cent.osf
Substitution2: "'tnum' Tabular Numbers lookup 25 subtable" cent.tf
AlternateSubs2: "'aalt' Access All Alternates lookup 1 subtable" cent.tf cent.osf
EndChar

StartChar: yen
Encoding: 165 165 1068
Width: 525
Flags: MW
HStem: 0 194<183 211 73 269 183 183> 137 57<73 203 66 211 296 424> 287 57<95 209 95 225 87 209 340 445>
VStem: 64 512<668 668>
LayerCount: 2
Fore
SplineSet
340 344 m 1x70
 453 344 l 1
 445 287 l 1
 309 287 l 1
 296 194 l 1
 431 194 l 1
 424 137 l 1
 288 137 l 1x70
 269 0 l 1
 183 0 l 1xb0
 203 137 l 1
 66 137 l 1
 73 194 l 1
 211 194 l 1
 225 287 l 1
 87 287 l 1
 95 344 l 1
 209 344 l 1
 64 668 l 1
 156 668 l 1
 279 369 l 1
 487 668 l 1
 576 668 l 1
 340 344 l 1x70
EndSplineSet
Substitution2: "'onum' Oldstyle Figures lookup 22 subtable" yen.osf
Substitution2: "'tnum' Tabular Numbers lookup 21 subtable" yen.tf
AlternateSubs2: "'aalt' Access All Alternates lookup 1 subtable" yen.tf yen.osf
EndChar

StartChar: brokenbar
Encoding: 166 166 1219
Width: 399
Flags: MW
HStem: 717 20G<227 304 304 304>
VStem: 120 184
LayerCount: 2
Fore
SplineSet
253 373 m 1
 177 373 l 1
 227 737 l 1
 304 737 l 1
 253 373 l 1
196 -32 m 1
 120 -32 l 1
 171 332 l 1
 247 332 l 1
 196 -32 l 1
EndSplineSet
EndChar

StartChar: section
Encoding: 167 167 1225
Width: 528
Flags: MW
HStem: -70 66<185.5 253 185.5 275.5> 611 65<286 353>
VStem: 78 82<292.5 327 292.5 334> 134 82<512.5 551.5 512.5 577.5> 324 83<54 94 37.5 95.5> 380 80<278 309.5>
LayerCount: 2
Fore
SplineSet
323 442 m 0xd4
 415 409 460 362 460 299 c 0xd4
 460 246 429 206 364 167 c 1
 392 143 407 114 407 74 c 0
 407 1 346 -70 205 -70 c 0
 137 -70 82 -49 41 -20 c 1
 78 35 l 1
 118 7 162 -4 209 -4 c 0
 297 -4 324 34 324 74 c 0
 324 117 300 133 216 164 c 1
 125 194 78 238 78 307 c 0xe8
 78 361 111 405 175 441 c 1
 148 464 134 492 134 527 c 0
 134 628 226 676 331 676 c 0
 400 676 452 653 494 622 c 1
 456 571 l 1
 415 598 377 611 329 611 c 0
 243 611 216 571 216 532 c 0
 216 493 240 472 323 442 c 0xd4
315 198 m 1
 364 233 380 264 380 292 c 0
 380 327 359 353 286 382 c 1
 263 390 242 399 224 408 c 1
 174 374 160 342 160 312 c 0
 160 273 181 250 244 226 c 1xe4
 271 217 295 208 315 198 c 1
EndSplineSet
Substitution2: "'onum' Oldstyle Figures lookup 22 subtable" section.osf
Substitution2: "'tnum' Tabular Numbers lookup 21 subtable" section.tf
AlternateSubs2: "'aalt' Access All Alternates lookup 1 subtable" section.tf section.osf
EndChar
StartChar: dieresis
Encoding: 168 168 2522
Width: 367
Flags: MW
HStem: 656 106<134 155 337 358.5>
VStem: 93 103 296 103
LayerCount: 2
Back
Fore
SplineSet
148 762 m 0
 180 762 201 736 196 704 c 0
 192 677 169 656 141 656 c 0
 109 656 88 682 93 714 c 0
 96 741 120 762 148 762 c 0
351 762 m 0
 384 762 404 736 399 704 c 0
 396 677 373 656 344 656 c 0
 312 656 291 682 296 714 c 0
 300 741 323 762 351 762 c 0
EndSplineSet
Substitution2: "'case' Case-Sensitive Forms lookup 29 subtable" dieresis.case
Substitution2: "'smcp' Lowercase to Small Capitals lookup 28 subtable" dieresis.sc
Substitution2: "'c2sc' Capitals to Small Capitals lookup 27 subtable" dieresis.sc
AlternateSubs2: "'aalt' Access All Alternates lookup 1 subtable" dieresis.sc dieresis.case
EndChar

StartChar: ordfeminine
Encoding: 170 170 415
Width: 495
GlyphClass: 2
Flags: MW
HStem: 0 71<41 398 31 408> 272 61<207.5 231> 473 51<287 293 293 344> 624 64<276.5 309>
VStem: 85 84<371 407 371 419> 338.5 73.5 356 81<575.5 591>
LayerCount: 2
Fore
SplineSet
298 688 m 0xfa
 394 688 437 648 437 580 c 0
 437 571 436 562 435 552 c 2xfa
 412 379 l 2
 408 353 409 337 436 327 c 1
 413 273 l 1
 373 277 347 294 338 332 c 1xfc
 303 289 256 272 206 272 c 0
 128 272 85 320 85 385 c 0
 85 453 132 524 287 524 c 2
 351 524 l 1
 354 547 l 2
 356 560 356 566 356 571 c 0
 356 611 334 624 284 624 c 0
 252 624 211 616 168 602 c 1
 152 661 l 1
 205 680 255 688 298 688 c 0xfa
293 473 m 2xfc
 196 473 169 426 169 388 c 0
 169 354 189 333 226 333 c 0
 271 333 306 355 333 392 c 1
 344 473 l 1
 293 473 l 2xfc
41 71 m 1
 408 71 l 1
 398 0 l 1
 31 0 l 1
 41 71 l 1
EndSplineSet
EndChar

StartChar: guillemotleft
Encoding: 171 171 1036
Width: 565
Flags: MW
HStem: 511 20G<261 261 491 491>
VStem: 58 483<258 497>
LayerCount: 2
Fore
SplineSet
311 497 m 1
 147 287 l 1
 252 78 l 1
 200 43 l 1
 58 258 l 1
 64 315 l 1
 261 531 l 1
 311 497 l 1
541 497 m 1
 376 287 l 1
 482 78 l 1
 430 43 l 1
 287 258 l 1
 294 315 l 1
 491 531 l 1
 541 497 l 1
EndSplineSet
Substitution2: "'case' Case-Sensitive Forms lookup 25 subtable" guillemotleft.case
Substitution2: "'aalt' Access All Alternates lookup 0 subtable" guillemotleft.case
EndChar
StartChar: logicalnot
Encoding: 172 172 2263
Width: 495
GlyphClass: 2
Flags: MW
HStem: 287 70<76 360 66 445>
VStem: 66 379<287 357>
LayerCount: 2
Back
Fore
SplineSet
445 357 m 1
 416 147 l 1
 340 147 l 1
 360 287 l 1
 66 287 l 1
 76 357 l 1
 445 357 l 1
EndSplineSet
Substitution2: "'onum' Oldstyle Figures lookup 26 subtable" logicalnot.osf
Substitution2: "'tnum' Tabular Numbers lookup 25 subtable" logicalnot.tf
AlternateSubs2: "'aalt' Access All Alternates lookup 1 subtable" logicalnot.tf logicalnot.osf
EndChar

StartChar: softhyphen
Encoding: 173 173 1028
Width: 397
Flags: MW
HStem: 277 72<72 339 62 349>
VStem: 62 287<277 349>
LayerCount: 2
Fore
SplineSet
72 349 m 1
 349 349 l 1
 339 277 l 1
 62 277 l 1
 72 349 l 1
EndSplineSet
Substitution2: "'case' Case-Sensitive Forms lookup 25 subtable" softhyphen.case
Substitution2: "'aalt' Access All Alternates lookup 0 subtable" softhyphen.case
EndChar

StartChar: macron
Encoding: 175 175 1261
Width: 320
Flags: MW
HStem: 669 64<86 358 94 349>
VStem: 86 272<669 733>
LayerCount: 2
Fore
SplineSet
86 669 m 1
 94 733 l 1
 358 733 l 1
 349 669 l 1
 86 669 l 1
EndSplineSet
Substitution2: "'case' Case-Sensitive Forms lookup 25 subtable" macron.case
Substitution2: "'smcp' Lowercase to Small Capitals lookup 24 subtable" macron.sc
Substitution2: "'c2sc' Capitals to Small Capitals lookup 23 subtable" macron.sc
AlternateSubs2: "'aalt' Access All Alternates lookup 1 subtable" macron.sc macron.case
EndChar
StartChar: degree
Encoding: 176 176 2385
Width: 517
GlyphClass: 2
Flags: MW
HStem: 384 58<215 262.5 215 278> 641 59<250 297.5>
VStem: 95.35 320.46
LayerCount: 2
Back
Fore
SplineSet
238 384 m 0
 155 384 83 444 97 547 c 0
 111 646 195 700 274 700 c 0
 358 700 429 639 414 537 c 0
 400 438 318 384 238 384 c 0
238 442 m 0
 287 442 336 478 345 546 c 0
 354 610 321 641 274 641 c 0
 226 641 176 606 166 538 c 0
 157 473 192 442 238 442 c 0
EndSplineSet
Substitution2: "'onum' Oldstyle Figures lookup 26 subtable" degree.osf
Substitution2: "'tnum' Tabular Numbers lookup 25 subtable" degree.tf
AlternateSubs2: "'aalt' Access All Alternates lookup 1 subtable" degree.tf degree.osf
EndChar
StartChar: plusminus
Encoding: 177 177 2275
Width: 493
GlyphClass: 2
Flags: MW
HStem: 0 71<26 404 36 394> 316 70<81 215 71 225 302 438 81 292> 516 20G<246 324 324 324>
VStem: 26 422<0 386>
LayerCount: 2
Back
Fore
SplineSet
324 536 m 1
 302 386 l 1
 448 386 l 1
 438 316 l 1
 292 316 l 1
 271 166 l 1
 194 166 l 1
 215 316 l 1
 71 316 l 1
 81 386 l 1
 225 386 l 1
 246 536 l 1
 324 536 l 1
26 0 m 1
 36 71 l 1
 404 71 l 1
 394 0 l 1
 26 0 l 1
EndSplineSet
Substitution2: "'onum' Oldstyle Figures lookup 26 subtable" plusminus.osf
Substitution2: "'tnum' Tabular Numbers lookup 25 subtable" plusminus.tf
AlternateSubs2: "'aalt' Access All Alternates lookup 1 subtable" plusminus.tf plusminus.osf
EndChar

StartChar: twosuperior
Encoding: 178 178 972
Width: 395
Flags: MW
HStem: 322 57 687 58<195.5 232.5>
VStem: 268 73
LayerCount: 2
Fore
SplineSet
220 745 m 0
 307 745 351 690 341 621 c 0
 332 554 284 504 130 378 c 1
 317 380 l 1
 301 322 l 1
 38 322 l 1
 45 378 l 1
 216 525 259 565 268 625 c 0
 274 666 251 687 214 687 c 0
 177 687 149 671 119 640 c 1
 76 680 l 1
 117 723 165 745 220 745 c 0
EndSplineSet
EndChar
StartChar: uni00B3
Encoding: 179 179 2111
Width: 395
Flags: MW
HStem: 313 57<145.5 188 145.5 211.5> 514 28 514 52<167 186 151 187> 690 55<198 235.5>
VStem: 257 72 273 70<636 636>
LayerCount: 2
Back
Fore
SplineSet
222 745 m 0xb4
 309 745 351 695 343 636 c 0xd4
 336 585 299 554 244 542 c 1xd8
 296 538 338 503 329 436 c 0
 319 367 258 313 165 313 c 0
 107 313 61 336 32 374 c 1
 79 410 l 1
 102 381 130 370 161 370 c 0
 215 370 250 401 257 448 c 0
 264 499 237 514 186 514 c 2xb8
 151 514 l 1
 167 566 l 1
 187 566 l 2
 229 566 266 591 273 636 c 0
 278 671 255 690 216 690 c 0
 180 690 151 677 120 652 c 1
 87 695 l 1
 128 729 173 745 222 745 c 0xb4
EndSplineSet
EndChar

StartChar: acute
Encoding: 180 180 1252
Width: 289
Flags: MW
HStem: 640 157
VStem: 89 236<685 725>
LayerCount: 2
Fore
SplineSet
325 725 m 1
 108 640 l 1
 89 685 l 1
 297 797 l 1
 325 725 l 1
EndSplineSet
Substitution2: "'case' Case-Sensitive Forms lookup 25 subtable" acute.case
Substitution2: "'smcp' Lowercase to Small Capitals lookup 24 subtable" acute.sc
Substitution2: "'c2sc' Capitals to Small Capitals lookup 23 subtable" acute.sc
Substitution2: "'locl' Localized Forms in Latin lookup 7 subtable" acute.loclPLK
AlternateSubs2: "'aalt' Access All Alternates lookup 1 subtable" acute.loclPLK acute.sc acute.case
EndChar
StartChar: paragraph
Encoding: 182 182 2380
Width: 723
GlyphClass: 2
Flags: MW
HStem: -213 21G<246 246 438 438> 620 68
VStem: 121.33 519.67
LayerCount: 2
Back
Fore
SplineSet
392 687 m 1
 641 688 l 1
 516 -201 l 1
 438 -213 l 1
 555 620 l 1
 438 620 l 1
 324 -201 l 1
 246 -213 l 1
 316 285 l 1
 162 293 108 380 124 491 c 0
 142 617 242 687 391 687 c 1
 390 685 l 1
 392 687 l 1
EndSplineSet
EndChar
StartChar: cedilla
Encoding: 184 184 2520
Width: 263
Flags: MW
HStem: -238 56<36 66.5 36 91.5> -212 21G<-37 -37> -98 114<54 58>
VStem: 108 70
LayerCount: 2
Back
Fore
SplineSet
108 16 m 1x70
 96 -58 l 1
 154 -63 178 -95 178 -136 c 0
 178 -187 134 -238 49 -238 c 0xb0
 11 -238 -18 -226 -37 -212 c 1x70
 -9 -166 l 1
 6 -176 23 -182 49 -182 c 0xb0
 84 -182 107 -167 108 -138 c 0
 109 -109 90 -98 26 -98 c 1
 54 16 l 1
 108 16 l 1x70
EndSplineSet
Substitution2: "'case' Case-Sensitive Forms lookup 29 subtable" cedilla.case
Substitution2: "'smcp' Lowercase to Small Capitals lookup 28 subtable" cedilla.sc
Substitution2: "'c2sc' Capitals to Small Capitals lookup 27 subtable" cedilla.sc
AlternateSubs2: "'aalt' Access All Alternates lookup 1 subtable" cedilla.sc cedilla.case
EndChar
StartChar: uni00B9
Encoding: 185 185 2109
Width: 395
Flags: MW
HStem: 718 20G<234 297 297 297>
VStem: 85 212<656 738>
LayerCount: 2
Back
Fore
SplineSet
297 738 m 1
 238 322 l 1
 168 322 l 1
 216 665 l 1
 110 607 l 1
 85 656 l 1
 234 738 l 1
 297 738 l 1
EndSplineSet
EndChar
StartChar: ordmasculine
Encoding: 186 186 1057
Width: 495
GlyphClass: 2
Flags: MW
HStem: 0 71<28 405 38 395> 272 63<227 306 227 336> 625 63<250.5 330>
VStem: 86 85<400 473 400 492> 385 85<491 561>
LayerCount: 2
Back
Fore
SplineSet
302 688 m 0
 409 688 470 625 470 520 c 0
 470 416 418 272 254 272 c 0
 147 272 86 336 86 440 c 0
 86 544 139 688 302 688 c 0
303 625 m 0
 198 625 171 513 171 433 c 0
 171 367 200 335 254 335 c 0
 358 335 385 454 385 528 c 0
 385 594 357 625 303 625 c 0
28 0 m 1
 38 71 l 1
 405 71 l 1
 395 0 l 1
 28 0 l 1
EndSplineSet
EndChar

StartChar: guillemotright
Encoding: 187 187 1037
Width: 556
Flags: MW
HStem: 511 20G<141 141 361 361>
VStem: 30 475<78 315>
LayerCount: 2
Fore
SplineSet
284 315 m 1
 278 258 l 1
 79 43 l 1
 30 78 l 1
 194 287 l 1
 89 497 l 1
 141 531 l 1
 284 315 l 1
505 315 m 1
 498 258 l 1
 300 43 l 1
 251 78 l 1
 415 287 l 1
 310 497 l 1
 361 531 l 1
 505 315 l 1
EndSplineSet
Substitution2: "'case' Case-Sensitive Forms lookup 25 subtable" guillemotright.case
Substitution2: "'aalt' Access All Alternates lookup 0 subtable" guillemotright.case
EndChar

StartChar: onequarter
Encoding: 188 188 928
Width: 912
Flags: MW
HStem: 0 153<709 731 620 778 709 709> 98 55<620 723 800 845> 668 20G<227 290 290 290> 729 20G<698 698>
VStem: 78 775<153 606>
LayerCount: 2
Fore
SplineSet
750 723 m 1xb8
 236 -76 l 1
 183 -50 l 1
 698 749 l 1
 750 723 l 1xb8
161 272 m 1
 209 615 l 1
 103 557 l 1
 78 606 l 1
 227 688 l 1
 290 688 l 1
 231 272 l 1
 161 272 l 1
845 98 m 1x78
 792 98 l 1x78
 778 0 l 1
 709 0 l 1xb8
 723 98 l 1
 538 98 l 1
 544 148 l 1x78
 710 423 l 1
 768 400 l 1
 620 153 l 1
 731 153 l 1
 753 261 l 1
 815 261 l 1
 800 153 l 1
 853 153 l 1xb8
 845 98 l 1x78
EndSplineSet
EndChar

StartChar: onehalf
Encoding: 189 189 925
Width: 912
Flags: MW
HStem: 0 57 365 58<705.5 742.5> 668 20G<227 290 290 290> 729 20G<698 698>
VStem: 778 73
LayerCount: 2
Fore
SplineSet
750 723 m 1
 236 -76 l 1
 183 -50 l 1
 698 749 l 1
 750 723 l 1
231 272 m 1
 161 272 l 1
 209 615 l 1
 103 557 l 1
 78 606 l 1
 227 688 l 1
 290 688 l 1
 231 272 l 1
730 423 m 0
 817 423 861 368 851 299 c 0
 842 232 794 182 640 56 c 1
 827 58 l 1
 811 0 l 1
 548 0 l 1
 555 56 l 1
 726 203 769 243 778 303 c 0
 784 344 761 365 724 365 c 0
 687 365 659 349 629 318 c 1
 586 358 l 1
 627 401 675 423 730 423 c 0
EndSplineSet
EndChar
StartChar: threequarters
Encoding: 190 190 2067
Width: 912
Flags: MW
HStem: 0 153<708 730 619 777 708 708> 98 55<619 722 799 844> 263 57<138.5 181 138.5 204.5> 464 52<160 179 144 180> 640 55<191 228.5> 729 20G<698 698>
VStem: 250 72 266 70<586 586>
LayerCount: 2
Back
Fore
SplineSet
698 749 m 1xbe
 750 723 l 1
 236 -76 l 1
 183 -50 l 1
 698 749 l 1xbe
322 386 m 0
 312 317 251 263 158 263 c 0
 100 263 54 286 25 324 c 1
 72 360 l 1
 95 331 123 320 154 320 c 0
 208 320 243 351 250 398 c 0
 257 449 230 464 179 464 c 2xbe
 144 464 l 1
 160 516 l 1
 180 516 l 2
 222 516 259 541 266 586 c 0
 271 621 248 640 209 640 c 0
 173 640 144 627 113 602 c 1
 80 645 l 1
 121 679 166 695 215 695 c 0
 302 695 344 645 336 586 c 0xbd
 329 535 292 504 237 492 c 1
 289 488 331 453 322 386 c 0
852 153 m 1
 844 98 l 1
 791 98 l 1x7e
 777 0 l 1
 708 0 l 1xbe
 722 98 l 1
 537 98 l 1
 543 148 l 1x7e
 709 423 l 1
 767 400 l 1
 619 153 l 1
 730 153 l 1
 752 261 l 1
 814 261 l 1
 799 153 l 1
 852 153 l 1
EndSplineSet
EndChar
StartChar: questiondown
Encoding: 191 191 2131
Width: 452
Flags: MW
HStem: -214 70<133.5 187.5 133.5 193.5> 378 129<250.5 278>
VStem: -14 86<-96.5 -2.5 -96.5 21> 200 127<428.5 455.5> 228 82<152.5 223.5 129 228>
LayerCount: 2
Back
Fore
SplineSet
259 378 m 0xf0
 223 378 200 404 200 436 c 0
 200 475 231 507 270 507 c 0
 304 507 327 481 327 448 c 0
 327 409 297 378 259 378 c 0xf0
154 -214 m 0
 41 -214 -14 -150 -14 -76 c 0
 -14 118 228 82 228 223 c 0
 228 233 228 242 225 255 c 1
 300 268 l 1
 306 252 310 230 310 217 c 0xa8
 310 41 72 69 72 -74 c 0
 72 -119 106 -144 161 -144 c 0
 214 -144 266 -120 314 -70 c 1
 366 -118 l 1
 302 -184 233 -214 154 -214 c 0
EndSplineSet
Substitution2: "'case' Case-Sensitive Forms lookup 29 subtable" questiondown.case
Substitution2: "'aalt' Access All Alternates lookup 0 subtable" questiondown.case
EndChar

StartChar: Aacute
Encoding: 193 193 2
Width: 566
GlyphClass: 2
Flags: MW
HStem: 0 21G<-29 59 -29 -29 432 432 432 520> 176 71<168 392 168 403 137 392> 616 72<332 332> 668 20G<289 397 397 397>
VStem: -29 549<0 0>
AnchorPoint: "Anchor-11" 0 0 basechar 0
AnchorPoint: "Anchor-10" 151 526 basechar 0
AnchorPoint: "Anchor-9" 343 688 basechar 0
AnchorPoint: "Anchor-8" 496 0 basechar 0
LayerCount: 2
Fore
SplineSet
261 756 m 1xd8
 246 801 l 1
 454 906 l 1
 481 834 l 1
 261 756 l 1xd8
403 176 m 1
 137 176 l 1
 59 0 l 1
 -29 0 l 1
 289 688 l 1
 397 688 l 1
 520 0 l 1
 432 0 l 1
 403 176 l 1
392 247 m 1
 332 616 l 1xe8
 168 247 l 1
 392 247 l 1
EndSplineSet
Substitution2: "'c2sc' Capitals to Small Capitals lookup 23 subtable" aacute.sc
Substitution2: "'aalt' Access All Alternates lookup 0 subtable" aacute.sc
Position2: "'cpsp' Capital Spacing lookup 0 subtable" dx=5 dy=0 dh=10 dv=0
EndChar

StartChar: Acircumflex
Encoding: 194 194 4
Width: 566
GlyphClass: 2
Flags: MW
HStem: 0 21G<-29 59 -29 -29 432 520 432 432> 176 71<168 392 168 403 137 392> 616 72<332 332> 668 20G<289 397 397 397> 841 68<372 372>
VStem: -29 553
AnchorPoint: "Anchor-11" 0 0 basechar 0
AnchorPoint: "Anchor-10" 151 526 basechar 0
AnchorPoint: "Anchor-9" 343 688 basechar 0
AnchorPoint: "Anchor-8" 496 0 basechar 0
LayerCount: 2
Fore
SplineSet
238 760 m 1xdc
 204 801 l 1
 351 909 l 1
 406 909 l 1
 524 801 l 1
 486 760 l 1
 372 841 l 1
 238 760 l 1xdc
397 688 m 1
 520 0 l 1
 432 0 l 1
 403 176 l 1
 137 176 l 1
 59 0 l 1
 -29 0 l 1
 289 688 l 1
 397 688 l 1
392 247 m 1
 332 616 l 1xec
 168 247 l 1
 392 247 l 1
EndSplineSet
Substitution2: "'c2sc' Capitals to Small Capitals lookup 23 subtable" acircumflex.sc
Substitution2: "'aalt' Access All Alternates lookup 0 subtable" acircumflex.sc
Position2: "'cpsp' Capital Spacing lookup 0 subtable" dx=5 dy=0 dh=10 dv=0
EndChar

StartChar: Atilde
Encoding: 195 195 10
Width: 566
GlyphClass: 2
Flags: MW
HStem: 0 21G<-29 59 -29 -29 432 520 432 432> 176 71<168 392 168 403 137 392> 616 72<332 332> 668 20G<289 397 397 397> 784 65<402 430 402 439.5> 832 64<296 325>
VStem: -29 559
AnchorPoint: "Anchor-11" 0 0 basechar 0
AnchorPoint: "Anchor-10" 151 526 basechar 0
AnchorPoint: "Anchor-9" 343 688 basechar 0
AnchorPoint: "Anchor-8" 496 0 basechar 0
LayerCount: 2
Fore
SplineSet
309 832 m 0xd6
 283 832 267 815 246 785 c 1
 198 815 l 1
 228 862 265 896 311 896 c 0xd6
 366 896 385 849 419 849 c 0
 441 849 459 864 480 895 c 1
 530 865 l 1
 496 810 458 784 421 784 c 0xda
 362 784 341 832 309 832 c 0xd6
397 688 m 1
 520 0 l 1
 432 0 l 1
 403 176 l 1
 137 176 l 1
 59 0 l 1
 -29 0 l 1
 289 688 l 1
 397 688 l 1
392 247 m 1
 332 616 l 1xe6
 168 247 l 1
 392 247 l 1
EndSplineSet
Substitution2: "'c2sc' Capitals to Small Capitals lookup 23 subtable" atilde.sc
Substitution2: "'aalt' Access All Alternates lookup 0 subtable" atilde.sc
Position2: "'cpsp' Capital Spacing lookup 0 subtable" dx=5 dy=0 dh=10 dv=0
EndChar
StartChar: Aring
Encoding: 197 197 29
Width: 566
GlyphClass: 2
Flags: MW
HStem: 0 21G<-29 59 -29 -29 432 520 432 432> 176 71<169 392 169 403 137 392> 616 72<332 332> 668 20G<289 397 397 397> 752 47<344 379.5 344 390.5> 912 46<355.5 390>
VStem: 257 57<831.5 863.5 831.5 876.5> 421 56<849 880>
AnchorPoint: "Anchor-14" 0 0 basechar 0
AnchorPoint: "Anchor-13" 0 0 basechar 0
AnchorPoint: "Anchor-12" 377 958 basechar 0
AnchorPoint: "Anchor-11" 496 0 basechar 0
AnchorPoint: "Anchor-10" 245 0 basechar 0
LayerCount: 2
Back
Fore
SplineSet
357 752 m 0xdf
 297 752 257 793 257 845 c 0
 257 908 311 958 378 958 c 0
 438 958 477 918 477 865 c 0
 477 802 424 752 357 752 c 0xdf
376 912 m 0
 335 912 314 881 314 846 c 0
 314 817 329 799 359 799 c 0
 400 799 421 833 421 865 c 0
 421 895 404 912 376 912 c 0
432 0 m 1
 403 176 l 1
 137 176 l 1
 59 0 l 1
 -29 0 l 1
 289 688 l 1
 397 688 l 1
 520 0 l 1
 432 0 l 1
169 247 m 1
 392 247 l 1
 332 616 l 1xef
 169 247 l 1
EndSplineSet
Substitution2: "'c2sc' Capitals to Small Capitals lookup 27 subtable" aring.sc
Substitution2: "'aalt' Access All Alternates lookup 0 subtable" aring.sc
Position2: "'cpsp' Capital Spacing lookup 0 subtable" dx=5 dy=0 dh=10 dv=0
EndChar
StartChar: AE
Encoding: 198 198 33
Width: 801
GlyphClass: 2
Flags: MW
HStem: 0 70<498 713> 176 70<171 398 171 405 135 398> 315 70<471 707 471 471> 618 70<437 748 437 437>
VStem: -46 814<0 688>
AnchorPoint: "Anchor-14" 0 0 basechar 0
AnchorPoint: "Anchor-13" 0 0 basechar 0
AnchorPoint: "Anchor-12" 526 688 basechar 0
AnchorPoint: "Anchor-11" 0 0 basechar 0
AnchorPoint: "Anchor-10" 0 0 basechar 0
LayerCount: 2
Back
Fore
SplineSet
748 618 m 1
 437 618 l 1
 463 385 l 1
 717 385 l 1
 707 315 l 1
 471 315 l 1
 498 70 l 1
 723 70 l 1
 713 0 l 1
 422 0 l 1
 405 176 l 1
 135 176 l 1
 45 0 l 1
 -46 0 l 1
 319 688 l 1
 768 688 l 1
 748 618 l 1
171 246 m 1
 398 246 l 1
 362 619 l 1
 171 246 l 1
EndSplineSet
Substitution2: "'c2sc' Capitals to Small Capitals lookup 27 subtable" ae.sc
Substitution2: "'aalt' Access All Alternates lookup 0 subtable" ae.sc
Position2: "'cpsp' Capital Spacing lookup 0 subtable" dx=5 dy=0 dh=10 dv=0
EndChar
StartChar: Ccedilla
Encoding: 199 199 45
Width: 553
GlyphClass: 2
Flags: MW
HStem: -238 56<265 295.5 265 320.5> -212 21G<192 192> -98 40<255 325> -11 73<333 333> -10 72<277 277> 628 72<307 423>
VStem: 63 91<189.5 338 189.5 358.5> 337 70
AnchorPoint: "Anchor-14" 0 0 basechar 0
AnchorPoint: "Anchor-13" 0 0 basechar 0
AnchorPoint: "Anchor-12" 404 688 basechar 0
AnchorPoint: "Anchor-11" 0 0 basechar 0
AnchorPoint: "Anchor-10" 301 -238 basechar 0
LayerCount: 2
Back
Fore
SplineSet
399 628 m 0x76
 215 628 154 416 154 260 c 0
 154 119 220 62 311 62 c 0
 379 62 425 92 467 122 c 1
 506 62 l 1
 466 28 408 -4 333 -11 c 1
 325 -58 l 1
 383 -63 407 -95 407 -136 c 0
 407 -187 363 -238 278 -238 c 0xb7
 240 -238 211 -226 192 -212 c 1x76
 220 -166 l 1
 235 -176 252 -182 278 -182 c 0
 313 -182 336 -167 337 -138 c 0
 338 -109 319 -98 255 -98 c 1
 277 -10 l 1xaf
 148 2 63 98 63 267 c 0
 63 450 156 700 395 700 c 0
 474 700 530 674 577 630 c 1
 525 580 l 1
 486 614 447 628 399 628 c 0x76
EndSplineSet
Substitution2: "'c2sc' Capitals to Small Capitals lookup 27 subtable" ccedilla.sc
Substitution2: "'aalt' Access All Alternates lookup 0 subtable" ccedilla.sc
Position2: "'cpsp' Capital Spacing lookup 0 subtable" dx=5 dy=0 dh=10 dv=0
EndChar
StartChar: Eacute
Encoding: 201 201 66
Width: 524
GlyphClass: 2
Flags: MW
HStem: 0 70<161 436> 316 70<204 428 195 437> 618 70<237 506 237 237>
VStem: 65 460
AnchorPoint: "Anchor-14" 0 0 basechar 0
AnchorPoint: "Anchor-13" 0 0 basechar 0
AnchorPoint: "Anchor-12" 369 906 basechar 0
AnchorPoint: "Anchor-11" 408 0 basechar 0
AnchorPoint: "Anchor-10" 250 0 basechar 0
LayerCount: 2
Back
Fore
SplineSet
458 906 m 1
 485 834 l 1
 265 756 l 1
 250 801 l 1
 458 906 l 1
525 688 m 1
 506 618 l 1
 237 618 l 1
 204 386 l 1
 437 386 l 1
 428 316 l 1
 195 316 l 1
 161 70 l 1
 446 70 l 1
 436 0 l 1
 65 0 l 1
 162 688 l 1
 525 688 l 1
EndSplineSet
Substitution2: "'c2sc' Capitals to Small Capitals lookup 27 subtable" eacute.sc
Substitution2: "'aalt' Access All Alternates lookup 0 subtable" eacute.sc
Position2: "'cpsp' Capital Spacing lookup 0 subtable" dx=5 dy=0 dh=10 dv=0
EndChar

StartChar: Ecircumflex
Encoding: 202 202 28
Width: 524
GlyphClass: 2
Flags: MW
HStem: 0 70<161 436> 316 70<204 428 195 437> 618 70<237 506 237 237> 841 68<376 376>
VStem: 65 463
AnchorPoint: "Anchor-11" 250 0 basechar 0
AnchorPoint: "Anchor-10" 53 532 basechar 0
AnchorPoint: "Anchor-9" 347 688 basechar 0
AnchorPoint: "Anchor-8" 408 0 basechar 0
LayerCount: 2
Fore
SplineSet
376 841 m 1
 242 760 l 1
 208 801 l 1
 355 909 l 1
 410 909 l 1
 528 801 l 1
 490 760 l 1
 376 841 l 1
506 618 m 1
 237 618 l 1
 204 386 l 1
 437 386 l 1
 428 316 l 1
 195 316 l 1
 161 70 l 1
 446 70 l 1
 436 0 l 1
 65 0 l 1
 162 688 l 1
 525 688 l 1
 506 618 l 1
EndSplineSet
Substitution2: "'c2sc' Capitals to Small Capitals lookup 23 subtable" ecircumflex.sc
Substitution2: "'aalt' Access All Alternates lookup 0 subtable" ecircumflex.sc
Position2: "'cpsp' Capital Spacing lookup 0 subtable" dx=5 dy=0 dh=10 dv=0
EndChar

StartChar: Igrave
Encoding: 204 204 50
Width: 291
GlyphClass: 2
Flags: MW
HStem: 0 21G<65 152 65 65> 668 20G<162 249 249 249>
VStem: 65 274
AnchorPoint: "Anchor-11" 0 0 basechar 0
AnchorPoint: "Anchor-10" 55 532 basechar 0
AnchorPoint: "Anchor-9" 205 688 basechar 0
AnchorPoint: "Anchor-8" 161 0 basechar 0
LayerCount: 2
Fore
SplineSet
339 801 m 1
 311 756 l 1
 111 834 l 1
 157 906 l 1
 339 801 l 1
152 0 m 1
 65 0 l 1
 162 688 l 1
 249 688 l 1
 152 0 l 1
EndSplineSet
Substitution2: "'c2sc' Capitals to Small Capitals lookup 23 subtable" igrave.sc
Substitution2: "'aalt' Access All Alternates lookup 0 subtable" igrave.sc
Position2: "'cpsp' Capital Spacing lookup 0 subtable" dx=5 dy=0 dh=10 dv=0
EndChar

StartChar: Iacute
Encoding: 205 205 45
Width: 291
GlyphClass: 2
Flags: MW
HStem: 0 21G<65 152 65 65> 668 20G<162 249 249 249>
VStem: 65 278
AnchorPoint: "Anchor-11" 0 0 basechar 0
AnchorPoint: "Anchor-10" 55 532 basechar 0
AnchorPoint: "Anchor-9" 205 688 basechar 0
AnchorPoint: "Anchor-8" 161 0 basechar 0
LayerCount: 2
Fore
SplineSet
343 834 m 1
 123 756 l 1
 108 801 l 1
 316 906 l 1
 343 834 l 1
152 0 m 1
 65 0 l 1
 162 688 l 1
 249 688 l 1
 152 0 l 1
EndSplineSet
Substitution2: "'c2sc' Capitals to Small Capitals lookup 23 subtable" iacute.sc
Substitution2: "'aalt' Access All Alternates lookup 0 subtable" iacute.sc
Position2: "'cpsp' Capital Spacing lookup 0 subtable" dx=5 dy=0 dh=10 dv=0
EndChar
StartChar: Icircumflex
Encoding: 206 206 120
Width: 289
GlyphClass: 2
Flags: MW
HStem: 0 21G<65 151 65 65> 668 20G<162 247 247 247>
VStem: 56 320<801 801>
AnchorPoint: "Anchor-14" 0 0 basechar 0
AnchorPoint: "Anchor-13" 327 779 basechar 0
AnchorPoint: "Anchor-12" 231 909 basechar 0
AnchorPoint: "Anchor-11" 140 0 basechar 0
AnchorPoint: "Anchor-10" 107 0 basechar 0
LayerCount: 2
Back
Fore
SplineSet
338 760 m 1
 224 841 l 1
 90 760 l 1
 56 801 l 1
 203 909 l 1
 258 909 l 1
 376 801 l 1
 338 760 l 1
247 688 m 1
 151 0 l 1
 65 0 l 1
 162 688 l 1
 247 688 l 1
EndSplineSet
Substitution2: "'c2sc' Capitals to Small Capitals lookup 27 subtable" icircumflex.sc
Substitution2: "'aalt' Access All Alternates lookup 0 subtable" icircumflex.sc
Position2: "'cpsp' Capital Spacing lookup 0 subtable" dx=5 dy=0 dh=10 dv=0
EndChar
StartChar: Idieresis
Encoding: 207 207 122
Width: 289
GlyphClass: 2
Flags: MW
HStem: 0 21G<65 151 65 65> 668 20G<162 247 247 247> 782 106<113 134 316 337.5>
VStem: 72 103 275 103
AnchorPoint: "Anchor-14" 0 0 basechar 0
AnchorPoint: "Anchor-13" 0 0 basechar 0
AnchorPoint: "Anchor-12" 228 888 basechar 0
AnchorPoint: "Anchor-11" 140 0 basechar 0
AnchorPoint: "Anchor-10" 107 0 basechar 0
LayerCount: 2
Back
Fore
SplineSet
127 888 m 0
 159 888 180 862 175 830 c 0
 171 803 148 782 120 782 c 0
 88 782 67 808 72 840 c 0
 75 867 99 888 127 888 c 0
330 888 m 0
 363 888 383 862 378 830 c 0
 375 803 352 782 323 782 c 0
 291 782 270 808 275 840 c 0
 279 867 302 888 330 888 c 0
247 688 m 1
 151 0 l 1
 65 0 l 1
 162 688 l 1
 247 688 l 1
EndSplineSet
Substitution2: "'c2sc' Capitals to Small Capitals lookup 27 subtable" idieresis.sc
Substitution2: "'aalt' Access All Alternates lookup 0 subtable" idieresis.sc
Position2: "'cpsp' Capital Spacing lookup 0 subtable" dx=5 dy=0 dh=10 dv=0
EndChar
StartChar: Ntilde
Encoding: 209 209 169
Width: 675
GlyphClass: 2
Flags: MW
HStem: 0 21G<65 146 65 65 425 537 425 425> 0 75<482 482 482 537 425 482> 613 75<218 218> 668 20G<162 275 275 275 552 633 633 633> 784 65<468 495.5 468 505.5> 832 64<362 391>
VStem: 65 568
AnchorPoint: "Anchor-14" 0 0 basechar 0
AnchorPoint: "Anchor-13" 0 0 basechar 0
AnchorPoint: "Anchor-12" 432 896 basechar 0
AnchorPoint: "Anchor-11" 0 0 basechar 0
AnchorPoint: "Anchor-10" 302 0 basechar 0
LayerCount: 2
Back
Fore
SplineSet
487 784 m 0x9a
 428 784 407 832 375 832 c 0
 349 832 332 815 312 785 c 1
 264 815 l 1
 294 862 331 896 377 896 c 0x96
 432 896 451 849 485 849 c 0
 506 849 524 864 546 895 c 1
 595 865 l 1
 562 810 524 784 487 784 c 0x9a
633 688 m 1x56
 537 0 l 1
 425 0 l 1
 218 613 l 1xa6
 217 534 210 456 192 329 c 2
 146 0 l 1
 65 0 l 1
 162 688 l 1
 275 688 l 1
 482 75 l 1
 482 160 487 220 498 305 c 2
 552 688 l 1
 633 688 l 1x56
EndSplineSet
Substitution2: "'c2sc' Capitals to Small Capitals lookup 27 subtable" ntilde.sc
Substitution2: "'aalt' Access All Alternates lookup 0 subtable" ntilde.sc
Position2: "'cpsp' Capital Spacing lookup 0 subtable" dx=5 dy=0 dh=10 dv=0
EndChar
StartChar: Ograve
Encoding: 210 210 188
Width: 687
GlyphClass: 2
Flags: MW
HStem: -12 72<263 408 263 434.5> 628 72<303 448.5>
VStem: 63 90<189 333 189 352> 557 89<357 498>
AnchorPoint: "Anchor-14" 0 0 basechar 0
AnchorPoint: "Anchor-13" 602 688 basechar 0
AnchorPoint: "Anchor-12" 428 906 basechar 0
AnchorPoint: "Anchor-11" 0 0 basechar 0
AnchorPoint: "Anchor-10" 304 0 basechar 0
LayerCount: 2
Back
Fore
SplineSet
358 906 m 1
 540 801 l 1
 512 756 l 1
 312 834 l 1
 358 906 l 1
402 700 m 0
 551 700 646 603 646 422 c 0
 646 240 561 -12 308 -12 c 0
 159 -12 63 85 63 264 c 0
 63 440 149 700 402 700 c 0
399 628 m 0
 207 628 153 405 153 261 c 0
 153 117 215 60 311 60 c 0
 505 60 557 286 557 428 c 0
 557 568 498 628 399 628 c 0
EndSplineSet
Substitution2: "'c2sc' Capitals to Small Capitals lookup 27 subtable" ograve.sc
Substitution2: "'aalt' Access All Alternates lookup 0 subtable" ograve.sc
Position2: "'cpsp' Capital Spacing lookup 0 subtable" dx=5 dy=0 dh=10 dv=0
EndChar

StartChar: Ocircumflex
Encoding: 212 212 74
Width: 687
GlyphClass: 2
Flags: MW
HStem: -12 72<263 408 263 434.5> 628 72<303 448.5> 841 68<434 434>
VStem: 63 90<186 330 186 352> 557 89<361.5 502.5>
AnchorPoint: "Anchor-11" 0 0 basechar 0
AnchorPoint: "Anchor-10" 69 532 basechar 0
AnchorPoint: "Anchor-9" 405 688 basechar 0
AnchorPoint: "Anchor-8" 0 0 basechar 0
LayerCount: 2
Fore
SplineSet
434 841 m 1
 300 760 l 1
 266 801 l 1
 413 909 l 1
 468 909 l 1
 586 801 l 1
 548 760 l 1
 434 841 l 1
402 700 m 0
 551 700 646 603 646 422 c 0
 646 240 561 -12 308 -12 c 0
 159 -12 63 85 63 264 c 0
 63 440 149 700 402 700 c 0
399 628 m 0
 207 628 153 405 153 255 c 0
 153 117 215 60 311 60 c 0
 505 60 557 286 557 437 c 0
 557 568 498 628 399 628 c 0
EndSplineSet
Substitution2: "'c2sc' Capitals to Small Capitals lookup 23 subtable" ocircumflex.sc
Substitution2: "'aalt' Access All Alternates lookup 0 subtable" ocircumflex.sc
Position2: "'cpsp' Capital Spacing lookup 0 subtable" dx=5 dy=0 dh=10 dv=0
EndChar

StartChar: Otilde
Encoding: 213 213 81
Width: 687
GlyphClass: 2
Flags: MW
HStem: -12 72<263 408 263 434.5> 628 72<303 448.5> 784 65<464 492 464 501.5> 832 64<358 387>
VStem: 63 90<186 330 186 352> 557 89<361.5 502.5>
AnchorPoint: "Anchor-11" 0 0 basechar 0
AnchorPoint: "Anchor-10" 69 532 basechar 0
AnchorPoint: "Anchor-9" 405 688 basechar 0
AnchorPoint: "Anchor-8" 0 0 basechar 0
LayerCount: 2
Fore
SplineSet
483 784 m 0xec
 424 784 403 832 371 832 c 0
 345 832 329 815 308 785 c 1
 260 815 l 1
 290 862 327 896 373 896 c 0xdc
 428 896 447 849 481 849 c 0
 503 849 521 864 542 895 c 1
 592 865 l 1
 558 810 520 784 483 784 c 0xec
402 700 m 0xdc
 551 700 646 603 646 422 c 0
 646 240 561 -12 308 -12 c 0
 159 -12 63 85 63 264 c 0
 63 440 149 700 402 700 c 0xdc
399 628 m 0
 207 628 153 405 153 255 c 0
 153 117 215 60 311 60 c 0
 505 60 557 286 557 437 c 0
 557 568 498 628 399 628 c 0
EndSplineSet
Substitution2: "'c2sc' Capitals to Small Capitals lookup 23 subtable" otilde.sc
Substitution2: "'aalt' Access All Alternates lookup 0 subtable" otilde.sc
Position2: "'cpsp' Capital Spacing lookup 0 subtable" dx=5 dy=0 dh=10 dv=0
EndChar

StartChar: Odieresis
Encoding: 214 214 75
Width: 687
GlyphClass: 2
Flags: MW
HStem: -12 72<263 408 263 434.5> 628 72<303 448.5> 782 106<313 334 516 537.5>
VStem: 63 90<186 330 186 352> 272 103 475 103 557 89<361.5 502.5>
AnchorPoint: "Anchor-11" 0 0 basechar 0
AnchorPoint: "Anchor-10" 69 532 basechar 0
AnchorPoint: "Anchor-9" 422 807 basechar 0
AnchorPoint: "Anchor-8" 0 0 basechar 0
LayerCount: 2
Fore
SplineSet
327 888 m 0xfa
 359 888 380 862 375 830 c 0
 371 803 348 782 320 782 c 0
 288 782 267 808 272 840 c 1
 275 867 299 888 327 888 c 0xfa
530 888 m 0xfc
 563 888 583 862 578 830 c 1
 575 803 552 782 523 782 c 0
 491 782 470 808 475 840 c 0
 479 867 502 888 530 888 c 0xfc
402 700 m 0xfa
 551 700 646 603 646 422 c 0
 646 240 561 -12 308 -12 c 0
 159 -12 63 85 63 264 c 0
 63 440 149 700 402 700 c 0xfa
399 628 m 0
 207 628 153 405 153 255 c 0
 153 117 215 60 311 60 c 0
 505 60 557 286 557 437 c 0
 557 568 498 628 399 628 c 0
EndSplineSet
Substitution2: "'c2sc' Capitals to Small Capitals lookup 23 subtable" odieresis.sc
Substitution2: "'aalt' Access All Alternates lookup 0 subtable" odieresis.sc
Position2: "'cpsp' Capital Spacing lookup 0 subtable" dx=5 dy=0 dh=10 dv=0
EndChar

StartChar: Oslash
Encoding: 216 216 79
Width: 687
GlyphClass: 2
Flags: MW
HStem: -12 72<302.5 408 302.5 434.5> -4 21G<239 239> 628 72<303 407.5> 672 20G<470 470>
VStem: 63 90<212 330 212 352> 557 89<361.5 479>
AnchorPoint: "Anchor-11" 0 0 basechar 0
AnchorPoint: "Anchor-10" 171 688 basechar 0
AnchorPoint: "Anchor-9" 400 702 basechar 0
AnchorPoint: "Anchor-8" 0 0 basechar 0
LayerCount: 2
Fore
SplineSet
536 666 m 1xac
 605 623 646 540 646 422 c 0
 646 240 561 -12 308 -12 c 0xac
 283 -12 260 -9 239 -4 c 1
 186 -125 l 1
 115 -106 l 1
 173 23 l 1
 104 66 63 148 63 264 c 0
 63 440 149 700 402 700 c 0x6c
 426 700 449 697 470 692 c 1x9c
 524 817 l 1
 595 797 l 1
 536 666 l 1xac
399 628 m 0
 207 628 153 405 153 255 c 0
 153 169 174 117 211 89 c 1
 447 623 l 1
 432 626 416 628 399 628 c 0
311 60 m 0
 505 60 557 286 557 437 c 0
 557 521 536 573 497 601 c 1
 262 65 l 1
 277 62 294 60 311 60 c 0
EndSplineSet
Substitution2: "'c2sc' Capitals to Small Capitals lookup 23 subtable" oslash.sc
Substitution2: "'aalt' Access All Alternates lookup 0 subtable" oslash.sc
Position2: "'cpsp' Capital Spacing lookup 0 subtable" dx=5 dy=0 dh=10 dv=0
EndChar
StartChar: Uacute
Encoding: 218 218 254
Width: 654
GlyphClass: 2
Flags: MW
HStem: -12 74<245.5 347 245.5 366.5> 668 20G<152 237 237 237 536 622 622 622>
VStem: 82.94 85.97
AnchorPoint: "Anchor-14" 0 0 basechar 0
AnchorPoint: "Anchor-13" 632 688 basechar 0
AnchorPoint: "Anchor-12" 409 906 basechar 0
AnchorPoint: "Anchor-11" 385 0 basechar 0
AnchorPoint: "Anchor-10" 290 0 basechar 0
LayerCount: 2
Back
Fore
SplineSet
498 906 m 1
 525 834 l 1
 305 756 l 1
 290 801 l 1
 498 906 l 1
622 688 m 1
 556 217 l 2
 537 81 442 -12 291 -12 c 0
 135 -12 67 86 86 222 c 2
 152 688 l 1
 237 688 l 1
 172 223 l 2
 157 115 196 62 295 62 c 0
 399 62 456 121 471 229 c 2
 536 688 l 1
 622 688 l 1
EndSplineSet
Substitution2: "'c2sc' Capitals to Small Capitals lookup 27 subtable" uacute.sc
Substitution2: "'aalt' Access All Alternates lookup 0 subtable" uacute.sc
Position2: "'cpsp' Capital Spacing lookup 0 subtable" dx=5 dy=0 dh=10 dv=0
EndChar
StartChar: Udieresis
Encoding: 220 220 260
Width: 654
GlyphClass: 2
Flags: MW
HStem: -12 74<245.5 347 245.5 366.5> 668 20G<152 237 237 237 536 622 622 622> 782 106<295 316 498 519.5>
VStem: 82.94 85.97 254 103 457 103
AnchorPoint: "Anchor-14" 0 0 basechar 0
AnchorPoint: "Anchor-13" 632 688 basechar 0
AnchorPoint: "Anchor-12" 410 888 basechar 0
AnchorPoint: "Anchor-11" 385 0 basechar 0
AnchorPoint: "Anchor-10" 290 0 basechar 0
LayerCount: 2
Back
Fore
SplineSet
309 888 m 0
 341 888 362 862 357 830 c 0
 353 803 330 782 302 782 c 0
 270 782 249 808 254 840 c 0
 257 867 281 888 309 888 c 0
512 888 m 0
 545 888 565 862 560 830 c 0
 557 803 534 782 505 782 c 0
 473 782 452 808 457 840 c 0
 461 867 484 888 512 888 c 0
622 688 m 1
 556 217 l 2
 537 81 442 -12 291 -12 c 0
 135 -12 67 86 86 222 c 2
 152 688 l 1
 237 688 l 1
 172 223 l 2
 157 115 196 62 295 62 c 0
 399 62 456 121 471 229 c 2
 536 688 l 1
 622 688 l 1
EndSplineSet
Substitution2: "'c2sc' Capitals to Small Capitals lookup 27 subtable" udieresis.sc
Substitution2: "'aalt' Access All Alternates lookup 0 subtable" udieresis.sc
Position2: "'cpsp' Capital Spacing lookup 0 subtable" dx=5 dy=0 dh=10 dv=0
EndChar
StartChar: Yacute
Encoding: 221 221 294
Width: 538
GlyphClass: 2
Flags: MW
HStem: 0 21G<189 276 189 189> 668 20G<67 157 157 157 498 592 592 592>
VStem: 67 525<688 688>
AnchorPoint: "Anchor-14" 0 0 basechar 0
AnchorPoint: "Anchor-13" 0 0 basechar 0
AnchorPoint: "Anchor-12" 353 906 basechar 0
AnchorPoint: "Anchor-11" 0 0 basechar 0
AnchorPoint: "Anchor-10" 232 0 basechar 0
LayerCount: 2
Back
Fore
SplineSet
442 906 m 1
 469 834 l 1
 249 756 l 1
 234 801 l 1
 442 906 l 1
592 688 m 1
 313 266 l 1
 276 0 l 1
 189 0 l 1
 227 265 l 1
 67 688 l 1
 157 688 l 1
 279 342 l 1
 498 688 l 1
 592 688 l 1
EndSplineSet
Substitution2: "'c2sc' Capitals to Small Capitals lookup 27 subtable" yacute.sc
Substitution2: "'aalt' Access All Alternates lookup 0 subtable" yacute.sc
Position2: "'cpsp' Capital Spacing lookup 0 subtable" dx=5 dy=0 dh=10 dv=0
EndChar

StartChar: Thorn
Encoding: 222 222 84
Width: 573
GlyphClass: 2
Flags: MW
HStem: 0 21G<65 151 65 65> 129 69<179 260 169 262> 501 68<230 312 221 317> 501 187<221 247 162 312 221 221>
VStem: 463 91<338.5 429>
AnchorPoint: "Anchor-11" 0 0 basechar 0
AnchorPoint: "Anchor-10" 0 0 basechar 0
AnchorPoint: "Anchor-9" -35 -69 basechar 0
AnchorPoint: "Anchor-8" 0 0 basechar 0
LayerCount: 2
Fore
SplineSet
317 569 m 2xe8
 466 569 554 512 554 385 c 0
 554 266 487 129 260 129 c 2
 169 129 l 1
 151 0 l 1
 65 0 l 1
 162 688 l 1
 247 688 l 1xd8
 230 569 l 1
 317 569 l 2xe8
262 198 m 2
 419 198 463 292 463 385 c 0
 463 473 406 501 312 501 c 2
 221 501 l 1
 179 198 l 1
 262 198 l 2
EndSplineSet
Substitution2: "'c2sc' Capitals to Small Capitals lookup 23 subtable" thorn.sc
Substitution2: "'aalt' Access All Alternates lookup 0 subtable" thorn.sc
Position2: "'cpsp' Capital Spacing lookup 0 subtable" dx=5 dy=0 dh=10 dv=0
EndChar

StartChar: germandbls
Encoding: 223 223 233
Width: 585
GlyphClass: 2
Flags: MW
HStem: -211 21G<-44 -44> -12 68<313 372.5 313 401> 682 66<318.5 378>
VStem: 299 80<382 456.5 382 465.5> 437 80<569.5 641> 447 84<147.5 231.5>
LayerCount: 2
Fore
SplineSet
379 421 m 0xf4
 379 343 531 329 531 174 c 0
 531 91 468 -12 334 -12 c 0
 284 -12 241 3 215 19 c 1
 245 76 l 1
 267 64 298 56 328 56 c 0
 417 56 447 124 447 171 c 0xf4
 447 292 299 307 299 409 c 0
 299 522 437 519 437 620 c 0
 437 662 402 682 354 682 c 0
 283 682 231 634 218 536 c 2
 146 26 l 2
 126 -121 69 -162 -44 -211 c 1
 -68 -148 l 1
 4 -115 47 -87 63 27 c 2
 136 542 l 2
 154 674 235 748 357 748 c 0
 458 748 517 694 517 622 c 0xf8
 517 499 379 492 379 421 c 0xf4
EndSplineSet
Substitution2: "'smcp' Lowercase to Small Capitals lookup 24 subtable" germandbls.sc
Substitution2: "'aalt' Access All Alternates lookup 0 subtable" germandbls.sc
EndChar

StartChar: agrave
Encoding: 224 224 139
Width: 567
GlyphClass: 2
Flags: MW
HStem: -12 67<207 250.5> 471 67<262.5 351.5>
VStem: 52 89<144 249 144 262> 377 78
AnchorPoint: "Anchor-11" 0 0 basechar 0
AnchorPoint: "Anchor-10" 0 0 basechar 0
AnchorPoint: "Anchor-9" 333 526 basechar 0
AnchorPoint: "Anchor-8" 473 -12 basechar 0
LayerCount: 2
Fore
SplineSet
480 685 m 1
 450 640 l 1
 255 725 l 1
 301 797 l 1
 480 685 l 1
330 538 m 0
 394 538 447 526 514 493 c 1
 457 119 l 2
 456 110 455 102 455 95 c 0
 455 65 468 54 489 46 c 1
 465 -12 l 1
 414 -4 382 19 377 78 c 1
 337 24 282 -12 219 -12 c 0
 110 -12 52 68 52 190 c 0
 52 334 127 538 330 538 c 0
332 471 m 0
 193 471 141 308 141 190 c 0
 141 98 176 55 238 55 c 0
 296 55 339 98 381 156 c 1
 425 452 l 1
 395 466 371 471 332 471 c 0
EndSplineSet
Substitution2: "'smcp' Lowercase to Small Capitals lookup 24 subtable" agrave.sc
Substitution2: "'aalt' Access All Alternates lookup 0 subtable" agrave.sc
EndChar
StartChar: atilde
Encoding: 227 227 366
Width: 567
GlyphClass: 2
Flags: MW
HStem: -12 67<207 250.5> 471 67<262.5 351.5> 658 65<403 430.5 403 440> 669 20G<199 199> 706 64<297 326> 719 20G<530 530>
VStem: 52 89<144 249 144 262> 377 78
AnchorPoint: "Anchor-14" 0 0 basechar 0
AnchorPoint: "Anchor-13" 0 0 basechar 0
AnchorPoint: "Anchor-12" 367 770 basechar 0
AnchorPoint: "Anchor-11" 473 -12 basechar 0
AnchorPoint: "Anchor-10" 275 0 basechar 0
LayerCount: 2
Back
Fore
SplineSet
421 658 m 0xe2
 363 658 342 706 310 706 c 0
 284 706 267 689 247 659 c 1
 199 689 l 1
 229 736 266 770 311 770 c 0xda
 367 770 386 723 420 723 c 0
 441 723 459 738 481 769 c 1xe2
 530 739 l 1xd6
 497 684 459 658 421 658 c 0xe2
330 538 m 0xd7
 394 538 447 526 514 493 c 1
 457 119 l 2
 456 110 455 102 455 95 c 0
 455 65 467 54 488 46 c 1
 465 -12 l 1
 414 -4 382 19 377 78 c 1
 336 24 282 -12 219 -12 c 0
 110 -12 52 68 52 190 c 0
 52 334 127 538 330 538 c 0xd7
332 471 m 0
 193 471 141 308 141 190 c 0
 141 98 176 55 238 55 c 0
 296 55 339 98 380 156 c 1
 425 452 l 1
 395 466 371 471 332 471 c 0
EndSplineSet
Substitution2: "'smcp' Lowercase to Small Capitals lookup 28 subtable" atilde.sc
Substitution2: "'aalt' Access All Alternates lookup 0 subtable" atilde.sc
EndChar

StartChar: adieresis
Encoding: 228 228 138
Width: 567
GlyphClass: 2
Flags: MW
HStem: -12 67<207 250.5> 471 67<262.5 351.5> 656 106<241 262 444 465.5>
VStem: 52 89<144 249 144 262> 200 103 377 78 403 103
AnchorPoint: "Anchor-11" 0 0 basechar 0
AnchorPoint: "Anchor-10" 0 0 basechar 0
AnchorPoint: "Anchor-9" 350 681 basechar 0
AnchorPoint: "Anchor-8" 473 -12 basechar 0
LayerCount: 2
Fore
SplineSet
255 762 m 0xfa
 287 762 308 736 303 704 c 0
 299 677 276 656 248 656 c 0
 216 656 195 682 200 714 c 1
 203 741 227 762 255 762 c 0xfa
458 762 m 0
 491 762 511 736 506 704 c 1
 503 677 480 656 451 656 c 0
 419 656 398 682 403 714 c 0
 407 741 430 762 458 762 c 0
330 538 m 0
 394 538 447 526 514 493 c 1
 457 119 l 2
 456 110 455 102 455 95 c 0
 455 65 468 54 489 46 c 1
 465 -12 l 1
 414 -4 382 19 377 78 c 1xfc
 337 24 282 -12 219 -12 c 0
 110 -12 52 68 52 190 c 0
 52 334 127 538 330 538 c 0
332 471 m 0
 193 471 141 308 141 190 c 0
 141 98 176 55 238 55 c 0
 296 55 339 98 381 156 c 1
 425 452 l 1
 395 466 371 471 332 471 c 0
EndSplineSet
Substitution2: "'smcp' Lowercase to Small Capitals lookup 24 subtable" adieresis.sc
Substitution2: "'aalt' Access All Alternates lookup 0 subtable" adieresis.sc
EndChar
StartChar: aring
Encoding: 229 229 363
Width: 567
GlyphClass: 2
Flags: MW
HStem: -12 67<207 250.5> 471 67<262.5 351.5> 626 47<343 378.5 343 389.5> 786 46<354.5 389>
VStem: 52 89<144 249 144 262> 256 57<705.5 737.5 705.5 750.5> 377 78 420 56<723 754>
AnchorPoint: "Anchor-14" 0 0 basechar 0
AnchorPoint: "Anchor-13" 0 0 basechar 0
AnchorPoint: "Anchor-12" 379 832 basechar 0
AnchorPoint: "Anchor-11" 473 -12 basechar 0
AnchorPoint: "Anchor-10" 275 0 basechar 0
LayerCount: 2
Back
Fore
SplineSet
377 832 m 0xfd
 437 832 476 792 476 739 c 0
 476 676 423 626 356 626 c 0
 296 626 256 667 256 719 c 0
 256 782 310 832 377 832 c 0xfd
375 786 m 0
 334 786 313 755 313 720 c 0
 313 691 328 673 358 673 c 0
 399 673 420 707 420 739 c 0
 420 769 403 786 375 786 c 0
330 538 m 0
 394 538 447 526 514 493 c 1
 457 119 l 2
 456 110 455 102 455 95 c 0
 455 65 467 54 488 46 c 1
 465 -12 l 1
 414 -4 382 19 377 78 c 1xfe
 336 24 282 -12 219 -12 c 0
 110 -12 52 68 52 190 c 0
 52 334 127 538 330 538 c 0
332 471 m 0
 193 471 141 308 141 190 c 0
 141 98 176 55 238 55 c 0
 296 55 339 98 380 156 c 1
 425 452 l 1
 395 466 371 471 332 471 c 0
EndSplineSet
Substitution2: "'smcp' Lowercase to Small Capitals lookup 28 subtable" aring.sc
Substitution2: "'aalt' Access All Alternates lookup 0 subtable" aring.sc
EndChar

StartChar: ccedilla
Encoding: 231 231 150
Width: 471
GlyphClass: 2
Flags: MW
HStem: -238 56<196 223.5 196 254> -212 21G<124 124> -98 40<187 257> -12 72<265 265> -9 21G<209 209> 468 70<251.5 341>
VStem: 54 87<148.5 251.5 148.5 271> 269 70
AnchorPoint: "Anchor-11" 244 0 basechar 0
AnchorPoint: "Anchor-10" 0 0 basechar 0
AnchorPoint: "Anchor-9" 323 526 basechar 0
AnchorPoint: "Anchor-8" 0 0 basechar 0
LayerCount: 2
Fore
SplineSet
320 468 m 0x6f
 183 468 141 307 141 196 c 0
 141 101 184 60 254 60 c 0
 301 60 336 75 378 102 c 1
 412 43 l 1
 366 10 317 -8 265 -12 c 1
 257 -58 l 1
 315 -63 339 -95 339 -132 c 0
 339 -185 298 -238 210 -238 c 0xb7
 172 -238 142 -226 124 -212 c 1x6f
 152 -166 l 1
 167 -176 184 -182 208 -182 c 0xaf
 239 -182 268 -167 269 -138 c 0
 270 -109 251 -98 187 -98 c 1
 209 -9 l 1
 110 7 54 82 54 202 c 0
 54 340 125 538 319 538 c 0
 378 538 427 521 469 481 c 1
 424 429 l 1
 393 457 362 468 320 468 c 0x6f
EndSplineSet
Substitution2: "'smcp' Lowercase to Small Capitals lookup 24 subtable" ccedilla.sc
Substitution2: "'aalt' Access All Alternates lookup 0 subtable" ccedilla.sc
EndChar

StartChar: edieresis
Encoding: 235 235 162
Width: 522
GlyphClass: 2
Flags: MW
HStem: -12 71<225 285.5 225 287> 471 67<265 352> 656 106<222 243 425 446.5>
VStem: 54 87 181 103 384 103 400 88<357.5 417.5>
AnchorPoint: "Anchor-11" 253 0 basechar 0
AnchorPoint: "Anchor-10" 0 0 basechar 0
AnchorPoint: "Anchor-9" 331 681 basechar 0
AnchorPoint: "Anchor-8" 358 6 basechar 0
LayerCount: 2
Fore
SplineSet
229 656 m 0xfa
 197 656 176 682 181 714 c 1
 184 741 208 762 236 762 c 0
 268 762 289 736 284 704 c 0
 280 677 257 656 229 656 c 0xfa
432 656 m 0xfc
 400 656 379 682 384 714 c 0
 388 741 411 762 439 762 c 0
 472 762 492 736 487 704 c 1
 484 677 461 656 432 656 c 0xfc
488 406 m 0xfa
 488 260 332 218 141 198 c 1
 142 96 190 59 260 59 c 0
 311 59 354 75 402 109 c 1
 439 52 l 1
 382 11 322 -12 252 -12 c 0
 125 -12 54 68 54 201 c 0
 54 346 126 538 323 538 c 0
 432 538 488 476 488 406 c 0xfa
145 263 m 1
 307 279 400 312 400 403 c 0
 400 432 382 471 322 471 c 0
 208 471 159 362 145 263 c 1
EndSplineSet
Substitution2: "'smcp' Lowercase to Small Capitals lookup 24 subtable" edieresis.sc
Substitution2: "'aalt' Access All Alternates lookup 0 subtable" edieresis.sc
EndChar
StartChar: igrave
Encoding: 236 236 488
Width: 277
GlyphClass: 2
Flags: MW
HStem: 0 21G<60 143 60 60> 506 20G<134 217 217 217>
VStem: 60 265
AnchorPoint: "Anchor-14" 0 0 basechar 0
AnchorPoint: "Anchor-13" 0 0 basechar 0
AnchorPoint: "Anchor-12" 214 797 basechar 0
AnchorPoint: "Anchor-11" 125 0 basechar 0
AnchorPoint: "Anchor-10" 101 0 basechar 0
LayerCount: 2
Back
Fore
SplineSet
146 797 m 1
 325 685 l 1
 295 640 l 1
 100 725 l 1
 146 797 l 1
217 526 m 1
 143 0 l 1
 60 0 l 1
 134 526 l 1
 217 526 l 1
EndSplineSet
Substitution2: "'smcp' Lowercase to Small Capitals lookup 28 subtable" igrave.sc
Substitution2: "'aalt' Access All Alternates lookup 0 subtable" igrave.sc
EndChar

StartChar: iacute
Encoding: 237 237 178
Width: 277
GlyphClass: 2
Flags: MW
HStem: 0 21G<60 144 60 60> 506 20G<134 218 218 218>
VStem: 60 249
AnchorPoint: "Anchor-11" 0 0 basechar 0
AnchorPoint: "Anchor-10" 0 0 basechar 0
AnchorPoint: "Anchor-9" 176 526 basechar 0
AnchorPoint: "Anchor-8" 153 0 basechar 0
LayerCount: 2
Fore
SplineSet
309 725 m 1
 92 640 l 1
 73 685 l 1
 281 797 l 1
 309 725 l 1
144 0 m 1
 60 0 l 1
 134 526 l 1
 218 526 l 1
 144 0 l 1
EndSplineSet
Substitution2: "'smcp' Lowercase to Small Capitals lookup 24 subtable" iacute.sc
Substitution2: "'aalt' Access All Alternates lookup 0 subtable" iacute.sc
EndChar

StartChar: icircumflex
Encoding: 238 238 180
Width: 277
GlyphClass: 2
Flags: MW
HStem: 0 21G<60 144 60 60> 506 20G<134 218 218 218>
VStem: 37 320<678 678>
AnchorPoint: "Anchor-11" 0 0 basechar 0
AnchorPoint: "Anchor-10" 0 0 basechar 0
AnchorPoint: "Anchor-9" 176 526 basechar 0
AnchorPoint: "Anchor-8" 153 0 basechar 0
LayerCount: 2
Fore
SplineSet
37 678 m 1
 185 789 l 1
 239 789 l 1
 357 678 l 1
 317 636 l 1
 204 720 l 1
 71 636 l 1
 37 678 l 1
144 0 m 1
 60 0 l 1
 134 526 l 1
 218 526 l 1
 144 0 l 1
EndSplineSet
Substitution2: "'smcp' Lowercase to Small Capitals lookup 24 subtable" icircumflex.sc
Substitution2: "'aalt' Access All Alternates lookup 0 subtable" icircumflex.sc
EndChar

StartChar: idieresis
Encoding: 239 239 181
Width: 277
GlyphClass: 2
Flags: MW
HStem: 0 21G<60 144 60 60> 506 20G<134 218 218 218> 656 106<84 105 287 308.5>
VStem: 43 103 246 103
AnchorPoint: "Anchor-11" 0 0 basechar 0
AnchorPoint: "Anchor-10" 0 0 basechar 0
AnchorPoint: "Anchor-9" 193 681 basechar 0
AnchorPoint: "Anchor-8" 153 0 basechar 0
LayerCount: 2
Fore
SplineSet
98 762 m 0
 130 762 151 736 146 704 c 0
 142 677 119 656 91 656 c 0
 59 656 38 682 43 714 c 1
 46 741 70 762 98 762 c 0
301 762 m 0
 334 762 354 736 349 704 c 1
 346 677 323 656 294 656 c 0
 262 656 241 682 246 714 c 0
 250 741 273 762 301 762 c 0
144 0 m 1
 60 0 l 1
 134 526 l 1
 218 526 l 1
 144 0 l 1
EndSplineSet
Substitution2: "'smcp' Lowercase to Small Capitals lookup 24 subtable" idieresis.sc
Substitution2: "'aalt' Access All Alternates lookup 0 subtable" idieresis.sc
EndChar

StartChar: eth
Encoding: 240 240 154
Width: 563
GlyphClass: 2
Flags: MW
HStem: -12 67<208 283.5 208 307> 407 66<228 314.5 196.5 322.5> 551 20G<197 197> 677 20G<338 338> 728 20G<198 198>
VStem: 51 85<143.5 234 143.5 249.5> 425 83
LayerCount: 2
Fore
SplineSet
389 661 m 1
 472 591 508 501 508 379 c 0
 508 343 505 305 499 264 c 0
 474 93 375 -12 239 -12 c 0
 129 -12 51 61 51 188 c 0
 51 311 111 473 282 473 c 0
 347 473 394 449 425 408 c 1
 421 495 395 559 336 614 c 1
 252 542 l 1
 197 571 l 1
 283 649 l 1
 248 666 215 676 176 684 c 1
 198 748 l 1
 251 737 296 722 338 697 c 1
 419 773 l 1
 463 730 l 1
 389 661 l 1
241 55 m 0
 326 55 396 131 416 274 c 0
 419 294 421 312 422 329 c 1
 394 381 353 407 292 407 c 0
 164 407 136 281 136 187 c 0
 136 100 175 55 241 55 c 0
EndSplineSet
Substitution2: "'smcp' Lowercase to Small Capitals lookup 24 subtable" eth.sc
Substitution2: "'aalt' Access All Alternates lookup 0 subtable" eth.sc
EndChar
StartChar: ntilde
Encoding: 241 241 550
Width: 580
GlyphClass: 2
Flags: MW
HStem: 0 21G<60 143 60 60 368 452 368 368> 467 71<344 382> 506 20G<134 205 205 205> 658 65<392 419.5 392 429> 669 20G<188 188> 706 64<286 315> 719 20G<519 519>
VStem: 422.37 84.29
AnchorPoint: "Anchor-14" 0 0 basechar 0
AnchorPoint: "Anchor-13" 0 0 basechar 0
AnchorPoint: "Anchor-12" 356 770 basechar 0
AnchorPoint: "Anchor-11" 0 0 basechar 0
AnchorPoint: "Anchor-10" 256 0 basechar 0
LayerCount: 2
Back
Fore
SplineSet
410 658 m 0xd1
 352 658 331 706 299 706 c 0
 273 706 256 689 236 659 c 1
 188 689 l 1
 218 736 255 770 300 770 c 0xcd
 356 770 375 723 409 723 c 0
 430 723 448 738 470 769 c 1xd1
 519 739 l 1xcb
 486 684 448 658 410 658 c 0xd1
382 538 m 0xcb
 470 538 519 474 504 370 c 2
 452 0 l 1
 368 0 l 1
 420 368 l 2
 431 444 404 467 360 467 c 0xcb
 291 467 230 395 186 315 c 1
 143 0 l 1
 60 0 l 1
 134 526 l 1
 205 526 l 1xab
 196 417 l 1
 245 490 306 538 382 538 c 0xcb
EndSplineSet
Substitution2: "'smcp' Lowercase to Small Capitals lookup 28 subtable" ntilde.sc
Substitution2: "'aalt' Access All Alternates lookup 0 subtable" ntilde.sc
EndChar
StartChar: otilde
Encoding: 245 245 588
Width: 576
GlyphClass: 2
Flags: MW
HStem: -12 68<218 325.5 218 355.5> 470 68<250.5 358> 658 65<390 417.5 390 427> 669 20G<186 186> 706 64<284 313> 719 20G<517 517>
VStem: 54 87<148.5 247.5 148.5 270> 435 87<278.5 377.5>
AnchorPoint: "Anchor-14" 0 0 basechar 0
AnchorPoint: "Anchor-13" 509 526 basechar 0
AnchorPoint: "Anchor-12" 354 770 basechar 0
AnchorPoint: "Anchor-11" 0 0 basechar 0
AnchorPoint: "Anchor-10" 253 0 basechar 0
LayerCount: 2
Back
Fore
SplineSet
408 658 m 0xe3
 350 658 329 706 297 706 c 0
 271 706 254 689 234 659 c 1
 186 689 l 1
 216 736 253 770 298 770 c 0xdb
 354 770 373 723 407 723 c 0
 428 723 446 738 468 769 c 1xe3
 517 739 l 1xd7
 484 684 446 658 408 658 c 0xe3
324 538 m 0xd7
 453 538 522 456 522 322 c 0
 522 194 458 -12 253 -12 c 0
 124 -12 54 71 54 205 c 0
 54 335 120 538 324 538 c 0xd7
321 470 m 0
 180 470 141 299 141 196 c 0
 141 101 181 56 255 56 c 0
 396 56 435 227 435 330 c 0
 435 425 395 470 321 470 c 0
EndSplineSet
Substitution2: "'smcp' Lowercase to Small Capitals lookup 28 subtable" otilde.sc
Substitution2: "'aalt' Access All Alternates lookup 0 subtable" otilde.sc
EndChar

StartChar: odieresis
Encoding: 246 246 212
Width: 576
GlyphClass: 2
Flags: MW
HStem: -12 68<218 325.5 218 355.5> 470 68<250.5 358> 656 106<233 254 436 457.5>
VStem: 54 87<148.5 247.5 148.5 270> 192 103 395 103 435 87<278.5 377.5>
AnchorPoint: "Anchor-11" 0 0 basechar 0
AnchorPoint: "Anchor-10" 0 0 basechar 0
AnchorPoint: "Anchor-9" 342 681 basechar 0
AnchorPoint: "Anchor-8" 0 0 basechar 0
LayerCount: 2
Fore
SplineSet
247 762 m 0xfa
 279 762 300 736 295 704 c 0
 291 677 268 656 240 656 c 0
 208 656 187 682 192 714 c 1
 195 741 219 762 247 762 c 0xfa
450 762 m 0xfc
 483 762 503 736 498 704 c 1
 495 677 472 656 443 656 c 0
 411 656 390 682 395 714 c 0
 399 741 422 762 450 762 c 0xfc
324 538 m 0xfa
 453 538 522 456 522 322 c 0
 522 194 458 -12 253 -12 c 0
 124 -12 54 71 54 205 c 0
 54 335 120 538 324 538 c 0xfa
321 470 m 0
 180 470 141 299 141 196 c 0
 141 101 181 56 255 56 c 0
 396 56 435 227 435 330 c 0
 435 425 395 470 321 470 c 0
EndSplineSet
Substitution2: "'smcp' Lowercase to Small Capitals lookup 24 subtable" odieresis.sc
Substitution2: "'aalt' Access All Alternates lookup 0 subtable" odieresis.sc
EndChar
StartChar: divide
Encoding: 247 247 2249
Width: 493
GlyphClass: 2
Flags: MW
HStem: 42 129<214 241.5> 297 71<67 445 77 435> 495 128<277 304.5>
VStem: 164 127<92.5 119.5> 228 127<545.5 572.5>
LayerCount: 2
Back
Fore
SplineSet
296 623 m 0x68
 332 623 355 597 355 565 c 0
 355 526 324 495 285 495 c 0
 251 495 228 521 228 553 c 0
 228 592 258 623 296 623 c 0x68
67 297 m 1
 77 368 l 1
 445 368 l 1
 435 297 l 1
 67 297 l 1
233 171 m 0xd0
 268 171 291 145 291 112 c 0
 291 73 261 42 222 42 c 0
 187 42 164 68 164 100 c 0
 164 139 195 171 233 171 c 0xd0
EndSplineSet
Substitution2: "'onum' Oldstyle Figures lookup 26 subtable" divide.osf
Substitution2: "'tnum' Tabular Numbers lookup 25 subtable" divide.tf
AlternateSubs2: "'aalt' Access All Alternates lookup 1 subtable" divide.tf divide.osf
EndChar

StartChar: oslash
Encoding: 248 248 216
Width: 576
GlyphClass: 2
Flags: MW
HStem: -12 68<249 325.5 249 355.5> -6 21G<197 197> 470 68<250.5 327.5> 512 20G<379 379>
VStem: 54 87<168 247.5 168 270> 435 87<278.5 357.5>
AnchorPoint: "Anchor-11" 0 0 basechar 0
AnchorPoint: "Anchor-10" 0 0 basechar 0
AnchorPoint: "Anchor-9" 325 526 basechar 0
AnchorPoint: "Anchor-8" 0 0 basechar 0
LayerCount: 2
Fore
SplineSet
502 634 m 1xac
 442 506 l 1
 494 470 522 406 522 322 c 0
 522 194 458 -12 253 -12 c 0xac
 233 -12 214 -10 197 -6 c 1
 142 -129 l 1
 75 -109 l 1
 135 20 l 1
 82 56 54 120 54 205 c 0
 54 335 120 538 324 538 c 0x6c
 344 538 362 536 379 532 c 1x9c
 435 654 l 1
 502 634 l 1xac
321 470 m 0
 180 470 141 299 141 196 c 0
 141 140 153 104 176 82 c 1
 356 466 l 1
 345 469 334 470 321 470 c 0
221 60 m 1
 231 57 243 56 255 56 c 0
 396 56 435 227 435 330 c 0
 435 385 423 421 401 443 c 1
 221 60 l 1
EndSplineSet
Substitution2: "'smcp' Lowercase to Small Capitals lookup 24 subtable" oslash.sc
Substitution2: "'aalt' Access All Alternates lookup 0 subtable" oslash.sc
EndChar

StartChar: ugrave
Encoding: 249 249 244
Width: 576
GlyphClass: 2
Flags: MW
HStem: -12 67<194.5 239.5> 0 21G<372 442 372 372> 506 20G<129 212 212 212 433 516 516 516>
VStem: 73.57 83.79
AnchorPoint: "Anchor-11" 0 0 basechar 0
AnchorPoint: "Anchor-10" 0 0 basechar 0
AnchorPoint: "Anchor-9" 325 526 basechar 0
AnchorPoint: "Anchor-8" 452 0 basechar 0
LayerCount: 2
Fore
SplineSet
472 685 m 1xb0
 442 640 l 1
 247 725 l 1
 293 797 l 1
 472 685 l 1xb0
442 0 m 1x70
 372 0 l 1x70
 380 105 l 1
 332 35 277 -12 202 -12 c 0
 109 -12 62 49 76 152 c 2
 129 526 l 1
 212 526 l 1
 160 155 l 2
 149 81 170 55 219 55 c 0xb0
 288 55 344 121 386 189 c 1
 433 526 l 1
 516 526 l 1
 442 0 l 1x70
EndSplineSet
Substitution2: "'smcp' Lowercase to Small Capitals lookup 24 subtable" ugrave.sc
Substitution2: "'aalt' Access All Alternates lookup 0 subtable" ugrave.sc
EndChar

StartChar: udieresis
Encoding: 252 252 243
Width: 576
GlyphClass: 2
Flags: MW
HStem: -12 67<194.5 239.5> 0 21G<372 442 372 372> 506 20G<129 212 212 212 433 516 516 516> 656 106<233 254 436 457.5>
VStem: 73.57 83.79 192 103 395 103
AnchorPoint: "Anchor-11" 0 0 basechar 0
AnchorPoint: "Anchor-10" 0 0 basechar 0
AnchorPoint: "Anchor-9" 342 681 basechar 0
AnchorPoint: "Anchor-8" 452 0 basechar 0
LayerCount: 2
Fore
SplineSet
247 762 m 0xbe
 279 762 300 736 295 704 c 0
 291 677 268 656 240 656 c 0
 208 656 187 682 192 714 c 1
 195 741 219 762 247 762 c 0xbe
450 762 m 0
 483 762 503 736 498 704 c 1
 495 677 472 656 443 656 c 0
 411 656 390 682 395 714 c 0
 399 741 422 762 450 762 c 0
442 0 m 1x7e
 372 0 l 1x7e
 380 105 l 1
 332 35 277 -12 202 -12 c 0
 109 -12 62 49 76 152 c 2
 129 526 l 1
 212 526 l 1
 160 155 l 2
 149 81 170 55 219 55 c 0xbe
 288 55 344 121 386 189 c 1
 433 526 l 1
 516 526 l 1
 442 0 l 1x7e
EndSplineSet
Substitution2: "'smcp' Lowercase to Small Capitals lookup 24 subtable" udieresis.sc
Substitution2: "'aalt' Access All Alternates lookup 0 subtable" udieresis.sc
EndChar

StartChar: thorn
Encoding: 254 254 221
Width: 586
GlyphClass: 2
Flags: MW
HStem: -215 21G<29 29> -12 67<232 320.5 232 349> 471 67<335 369> 728 20G<248 248>
VStem: 438 87<280 387>
LayerCount: 2
Fore
SplineSet
365 538 m 0
 465 538 525 465 525 333 c 0
 525 186 452 -12 246 -12 c 0
 210 -12 176 -5 143 9 c 1
 114 -203 l 1
 29 -215 l 1
 164 738 l 1
 248 748 l 1
 209 470 l 1
 256 513 305 538 365 538 c 0
252 55 m 0
 389 55 438 221 438 339 c 0
 438 435 398 471 340 471 c 0
 282 471 238 434 198 392 c 1
 154 73 l 1
 187 61 212 55 252 55 c 0
EndSplineSet
Substitution2: "'smcp' Lowercase to Small Capitals lookup 24 subtable" thorn.sc
Substitution2: "'aalt' Access All Alternates lookup 0 subtable" thorn.sc
EndChar
StartChar: ydieresis
Encoding: 255 255 702
Width: 481
GlyphClass: 2
Flags: MW
HStem: -211 21G<-5 -5> 0 21G<151 151> 506 20G<48 136 136 136 421 508 508 508> 656 106<190 211 393 414.5>
VStem: 149 103 352 103
AnchorPoint: "Anchor-14" 0 0 basechar 0
AnchorPoint: "Anchor-13" 0 0 basechar 0
AnchorPoint: "Anchor-12" 305 762 basechar 0
AnchorPoint: "Anchor-11" 0 0 basechar 0
AnchorPoint: "Anchor-10" 187 -201 basechar 0
LayerCount: 2
Back
Fore
SplineSet
204 762 m 0
 236 762 257 736 252 704 c 0
 248 677 225 656 197 656 c 0
 165 656 144 682 149 714 c 0
 152 741 176 762 204 762 c 0
407 762 m 0
 440 762 460 736 455 704 c 0
 452 677 429 656 400 656 c 0
 368 656 347 682 352 714 c 0
 356 741 379 762 407 762 c 0
508 526 m 1
 262 -5 l 2
 211 -117 137 -193 -5 -211 c 1
 -9 -145 l 1
 100 -125 138 -83 183 2 c 1
 151 0 l 1
 48 526 l 1
 136 526 l 1
 214 64 l 1
 421 526 l 1
 508 526 l 1
EndSplineSet
Substitution2: "'smcp' Lowercase to Small Capitals lookup 28 subtable" ydieresis.sc
Substitution2: "'aalt' Access All Alternates lookup 0 subtable" ydieresis.sc
EndChar

StartChar: Amacron
Encoding: 256 256 7
Width: 566
GlyphClass: 2
Flags: MW
HStem: 0 21G<-29 59 -29 -29 432 432 432 520> 176 71<168 392 168 403 137 392> 616 72<332 332> 668 20G<289 397 397 397> 795 64<234 489 226 498>
VStem: -29 549<0 0>
AnchorPoint: "Anchor-11" 0 0 basechar 0
AnchorPoint: "Anchor-10" 151 526 basechar 0
AnchorPoint: "Anchor-9" 343 688 basechar 0
AnchorPoint: "Anchor-8" 496 0 basechar 0
LayerCount: 2
Fore
SplineSet
489 795 m 1xdc
 226 795 l 1
 234 859 l 1
 498 859 l 1
 489 795 l 1xdc
403 176 m 1
 137 176 l 1
 59 0 l 1
 -29 0 l 1
 289 688 l 1
 397 688 l 1
 520 0 l 1
 432 0 l 1
 403 176 l 1
392 247 m 1
 332 616 l 1xec
 168 247 l 1
 392 247 l 1
EndSplineSet
Substitution2: "'c2sc' Capitals to Small Capitals lookup 23 subtable" amacron.sc
Substitution2: "'aalt' Access All Alternates lookup 0 subtable" amacron.sc
Position2: "'cpsp' Capital Spacing lookup 0 subtable" dx=5 dy=0 dh=10 dv=0
EndChar
StartChar: amacron
Encoding: 257 257 361
Width: 567
GlyphClass: 2
Flags: MW
HStem: -12 67<207 250.5> 471 67<262.5 351.5> 669 64<235 490 227 499>
VStem: 52 89<144 249 144 262> 377 78
AnchorPoint: "Anchor-14" 0 0 basechar 0
AnchorPoint: "Anchor-13" 0 0 basechar 0
AnchorPoint: "Anchor-12" 365 733 basechar 0
AnchorPoint: "Anchor-11" 473 -12 basechar 0
AnchorPoint: "Anchor-10" 275 0 basechar 0
LayerCount: 2
Back
Fore
SplineSet
490 669 m 1
 227 669 l 1
 235 733 l 1
 499 733 l 1
 490 669 l 1
330 538 m 0
 394 538 447 526 514 493 c 1
 457 119 l 2
 456 110 455 102 455 95 c 0
 455 65 467 54 488 46 c 1
 465 -12 l 1
 414 -4 382 19 377 78 c 1
 336 24 282 -12 219 -12 c 0
 110 -12 52 68 52 190 c 0
 52 334 127 538 330 538 c 0
332 471 m 0
 193 471 141 308 141 190 c 0
 141 98 176 55 238 55 c 0
 296 55 339 98 380 156 c 1
 425 452 l 1
 395 466 371 471 332 471 c 0
EndSplineSet
Substitution2: "'smcp' Lowercase to Small Capitals lookup 28 subtable" amacron.sc
Substitution2: "'aalt' Access All Alternates lookup 0 subtable" amacron.sc
EndChar
StartChar: Abreve
Encoding: 258 258 4
Width: 566
GlyphClass: 2
Flags: MW
HStem: 0 21G<-29 59 -29 -29 432 520 432 432> 176 71<169 392 169 403 137 392> 616 72<332 332> 668 20G<289 397 397 397> 760 64<331.5 378 331.5 390.5>
VStem: -29 549<0 0>
AnchorPoint: "Anchor-14" 0 0 basechar 0
AnchorPoint: "Anchor-13" 0 0 basechar 0
AnchorPoint: "Anchor-12" 369 891 basechar 0
AnchorPoint: "Anchor-11" 496 0 basechar 0
AnchorPoint: "Anchor-10" 245 0 basechar 0
LayerCount: 2
Back
Fore
SplineSet
353 760 m 0xdc
 274 760 221 810 223 880 c 1
 277 887 l 1
 286 848 309 824 354 824 c 0
 402 824 438 852 457 891 c 1
 512 875 l 1
 495 804 428 760 353 760 c 0xdc
432 0 m 1
 403 176 l 1
 137 176 l 1
 59 0 l 1
 -29 0 l 1
 289 688 l 1
 397 688 l 1
 520 0 l 1
 432 0 l 1
169 247 m 1
 392 247 l 1
 332 616 l 1xec
 169 247 l 1
EndSplineSet
Substitution2: "'c2sc' Capitals to Small Capitals lookup 27 subtable" abreve.sc
Substitution2: "'aalt' Access All Alternates lookup 0 subtable" abreve.sc
Position2: "'cpsp' Capital Spacing lookup 0 subtable" dx=5 dy=0 dh=10 dv=0
EndChar
StartChar: abreve
Encoding: 259 259 337
Width: 567
GlyphClass: 2
Flags: MW
HStem: -12 67<207 250.5> 471 67<262.5 351.5> 645 65<330.5 377 330.5 389.5>
VStem: 52 89<144 249 144 262> 223 57<776 783> 377 78
AnchorPoint: "Anchor-14" 0 0 basechar 0
AnchorPoint: "Anchor-13" 0 0 basechar 0
AnchorPoint: "Anchor-12" 370 787 basechar 0
AnchorPoint: "Anchor-11" 473 -12 basechar 0
AnchorPoint: "Anchor-10" 275 0 basechar 0
LayerCount: 2
Back
Fore
SplineSet
352 645 m 0
 273 645 220 696 223 776 c 1
 280 783 l 1
 287 734 308 710 353 710 c 0
 401 710 438 738 458 787 c 1
 513 770 l 1
 494 690 427 645 352 645 c 0
330 538 m 0
 394 538 447 526 514 493 c 1
 457 119 l 2
 456 110 455 102 455 95 c 0
 455 65 467 54 488 46 c 1
 465 -12 l 1
 414 -4 382 19 377 78 c 1
 336 24 282 -12 219 -12 c 0
 110 -12 52 68 52 190 c 0
 52 334 127 538 330 538 c 0
332 471 m 0
 193 471 141 308 141 190 c 0
 141 98 176 55 238 55 c 0
 296 55 339 98 380 156 c 1
 425 452 l 1
 395 466 371 471 332 471 c 0
EndSplineSet
Substitution2: "'smcp' Lowercase to Small Capitals lookup 28 subtable" abreve.sc
Substitution2: "'aalt' Access All Alternates lookup 0 subtable" abreve.sc
EndChar

StartChar: Aogonek
Encoding: 260 260 8
Width: 566
GlyphClass: 2
Flags: MW
HStem: -228 65<380 395.5> 0 21G<-29 59 -29 -29 488 520 488 488> 176 71<168 392 168 403 137 392> 616 72<332 332> 668 20G<289 397 397 397>
VStem: 273 74<-137.5 -109.5>
AnchorPoint: "Anchor-11" 0 0 basechar 0
AnchorPoint: "Anchor-10" 151 526 basechar 0
AnchorPoint: "Anchor-9" 343 688 basechar 0
AnchorPoint: "Anchor-8" 496 0 basechar 0
LayerCount: 2
Fore
SplineSet
488 0 m 1xec
 368 -50 347 -91 347 -126 c 0
 347 -149 364 -163 396 -163 c 0
 417 -163 434 -160 458 -155 c 1
 444 -222 l 1
 424 -226 407 -228 384 -228 c 0
 313 -228 273 -188 273 -137 c 0
 273 -82 305 -26 429 18 c 1
 403 176 l 1
 137 176 l 1
 59 0 l 1
 -29 0 l 1
 289 688 l 1
 397 688 l 1
 520 0 l 1
 488 0 l 1xec
392 247 m 1
 332 616 l 1xf4
 168 247 l 1
 392 247 l 1
EndSplineSet
Substitution2: "'c2sc' Capitals to Small Capitals lookup 23 subtable" aogonek.sc
Substitution2: "'aalt' Access All Alternates lookup 0 subtable" aogonek.sc
Position2: "'cpsp' Capital Spacing lookup 0 subtable" dx=5 dy=0 dh=10 dv=0
EndChar
StartChar: aogonek
Encoding: 261 261 362
Width: 567
GlyphClass: 2
Flags: MW
HStem: -240 65<356 371.5> -12 21G<164.5 250.5 464 465 464 464> -12 67<207 250.5> 471 67<262.5 351.5>
VStem: 52 89<144 249 144 262> 249 74<-149.5 -121> 377 78
AnchorPoint: "Anchor-14" 0 0 basechar 0
AnchorPoint: "Anchor-13" 0 0 basechar 0
AnchorPoint: "Anchor-12" 338 526 basechar 0
AnchorPoint: "Anchor-11" 473 -12 basechar 0
AnchorPoint: "Anchor-10" 275 0 basechar 0
LayerCount: 2
Back
Fore
SplineSet
455 95 m 0xbe
 455 65 467 54 488 46 c 1
 465 -12 l 1
 464 -12 l 1
 344 -62 323 -103 323 -138 c 0
 323 -161 340 -175 372 -175 c 0
 393 -175 410 -172 434 -167 c 1
 420 -234 l 1
 400 -238 383 -240 360 -240 c 0
 289 -240 249 -200 249 -149 c 0
 249 -93 282 -36 410 8 c 1xde
 392 22 380 44 377 78 c 1
 336 24 282 -12 219 -12 c 0
 110 -12 52 68 52 190 c 0
 52 334 127 538 330 538 c 0
 394 538 447 526 514 493 c 1
 457 119 l 2
 456 110 455 102 455 95 c 0xbe
380 156 m 1
 425 452 l 1
 395 466 371 471 332 471 c 0
 193 471 141 308 141 190 c 0
 141 98 176 55 238 55 c 0
 296 55 339 98 380 156 c 1
EndSplineSet
Substitution2: "'smcp' Lowercase to Small Capitals lookup 28 subtable" aogonek.sc
Substitution2: "'aalt' Access All Alternates lookup 0 subtable" aogonek.sc
EndChar

StartChar: Cacute
Encoding: 262 262 15
Width: 554
GlyphClass: 2
Flags: MW
HStem: -12 74<265.5 345 265.5 350> 628 72<308 424>
VStem: 63 91<189.5 338 189.5 358.5>
AnchorPoint: "Anchor-11" 306 0 basechar 0
AnchorPoint: "Anchor-10" 0 0 basechar 0
AnchorPoint: "Anchor-9" 404 688 basechar 0
AnchorPoint: "Anchor-8" 0 0 basechar 0
LayerCount: 2
Fore
SplineSet
542 834 m 1
 322 756 l 1
 307 801 l 1
 515 906 l 1
 542 834 l 1
395 700 m 0
 474 700 530 674 577 630 c 1
 524 579 l 1
 486 614 447 628 401 628 c 0
 215 628 154 416 154 260 c 0
 154 119 220 62 311 62 c 0
 379 62 425 92 467 122 c 1
 506 62 l 1
 461 24 394 -12 306 -12 c 0
 161 -12 63 86 63 267 c 0
 63 450 156 700 395 700 c 0
EndSplineSet
Substitution2: "'c2sc' Capitals to Small Capitals lookup 23 subtable" cacute.sc
Substitution2: "'locl' Localized Forms in Latin lookup 7 subtable" Cacute.loclPLK
AlternateSubs2: "'aalt' Access All Alternates lookup 1 subtable" Cacute.loclPLK cacute.sc
Position2: "'cpsp' Capital Spacing lookup 0 subtable" dx=5 dy=0 dh=10 dv=0
EndChar
StartChar: cacute
Encoding: 263 263 381
Width: 471
GlyphClass: 2
Flags: MW
HStem: -12 72<219 277.5 219 278> 468 70<251.5 341>
VStem: 54 87<148.5 251.5 148.5 271>
AnchorPoint: "Anchor-14" 0 0 basechar 0
AnchorPoint: "Anchor-13" 0 0 basechar 0
AnchorPoint: "Anchor-12" 353 797 basechar 0
AnchorPoint: "Anchor-11" 0 0 basechar 0
AnchorPoint: "Anchor-10" 244 0 basechar 0
LayerCount: 2
Back
Fore
SplineSet
441 797 m 1
 469 725 l 1
 252 640 l 1
 233 685 l 1
 441 797 l 1
319 538 m 0
 377 538 427 521 469 481 c 1
 424 429 l 1
 393 456 362 468 320 468 c 0
 183 468 141 307 141 196 c 0
 141 101 184 60 254 60 c 0
 301 60 336 75 378 102 c 1
 412 43 l 1
 361 7 307 -12 249 -12 c 0
 126 -12 54 67 54 202 c 0
 54 340 125 538 319 538 c 0
EndSplineSet
Substitution2: "'smcp' Lowercase to Small Capitals lookup 28 subtable" cacute.sc
Substitution2: "'locl' Localized Forms in Latin lookup 7 subtable" cacute.loclPLK
AlternateSubs2: "'aalt' Access All Alternates lookup 1 subtable" cacute.loclPLK cacute.sc
EndChar

StartChar: Ccircumflex
Encoding: 264 264 18
Width: 554
GlyphClass: 2
Flags: MW
HStem: -12 74<265.5 345 265.5 350> 628 72<308 424> 841 68<433 433>
VStem: 63 91<189.5 338 189.5 358.5>
AnchorPoint: "Anchor-11" 306 0 basechar 0
AnchorPoint: "Anchor-10" 0 0 basechar 0
AnchorPoint: "Anchor-9" 404 688 basechar 0
AnchorPoint: "Anchor-8" 0 0 basechar 0
LayerCount: 2
Fore
SplineSet
433 841 m 1
 299 760 l 1
 265 801 l 1
 412 909 l 1
 467 909 l 1
 585 801 l 1
 547 760 l 1
 433 841 l 1
395 700 m 0
 474 700 530 674 577 630 c 1
 524 579 l 1
 486 614 447 628 401 628 c 0
 215 628 154 416 154 260 c 0
 154 119 220 62 311 62 c 0
 379 62 425 92 467 122 c 1
 506 62 l 1
 461 24 394 -12 306 -12 c 0
 161 -12 63 86 63 267 c 0
 63 450 156 700 395 700 c 0
EndSplineSet
Substitution2: "'c2sc' Capitals to Small Capitals lookup 23 subtable" ccircumflex.sc
Substitution2: "'aalt' Access All Alternates lookup 0 subtable" ccircumflex.sc
Position2: "'cpsp' Capital Spacing lookup 0 subtable" dx=5 dy=0 dh=10 dv=0
EndChar

StartChar: Cdotaccent
Encoding: 266 266 19
Width: 554
GlyphClass: 2
Flags: MW
HStem: -12 74<265.5 345 265.5 350> 628 72<308 424> 784 116<413.5 438>
VStem: 63 91<189.5 338 189.5 358.5> 367 116
AnchorPoint: "Anchor-11" 306 0 basechar 0
AnchorPoint: "Anchor-10" 0 0 basechar 0
AnchorPoint: "Anchor-9" 404 688 basechar 0
AnchorPoint: "Anchor-8" 0 0 basechar 0
LayerCount: 2
Fore
SplineSet
430 900 m 0
 468 900 488 872 483 837 c 0
 479 807 455 784 421 784 c 0
 384 784 363 812 367 846 c 1
 372 877 397 900 430 900 c 0
395 700 m 0
 474 700 530 674 577 630 c 1
 524 579 l 1
 486 614 447 628 401 628 c 0
 215 628 154 416 154 260 c 0
 154 119 220 62 311 62 c 0
 379 62 425 92 467 122 c 1
 506 62 l 1
 461 24 394 -12 306 -12 c 0
 161 -12 63 86 63 267 c 0
 63 450 156 700 395 700 c 0
EndSplineSet
Substitution2: "'c2sc' Capitals to Small Capitals lookup 23 subtable" cdotaccent.sc
Substitution2: "'aalt' Access All Alternates lookup 0 subtable" cdotaccent.sc
Position2: "'cpsp' Capital Spacing lookup 0 subtable" dx=5 dy=0 dh=10 dv=0
EndChar

StartChar: cdotaccent
Encoding: 267 267 152
Width: 471
GlyphClass: 2
Flags: MW
HStem: -12 72<219 277.5 219 278> 468 70<251.5 341> 658 116<337.5 362>
VStem: 54 87<148.5 251.5 148.5 271> 291 116
AnchorPoint: "Anchor-11" 244 0 basechar 0
AnchorPoint: "Anchor-10" 0 0 basechar 0
AnchorPoint: "Anchor-9" 323 526 basechar 0
AnchorPoint: "Anchor-8" 0 0 basechar 0
LayerCount: 2
Fore
SplineSet
354 774 m 0
 392 774 412 746 407 711 c 0
 403 681 379 658 345 658 c 0
 308 658 287 686 291 720 c 1
 296 751 321 774 354 774 c 0
319 538 m 0
 378 538 427 521 469 481 c 1
 424 429 l 1
 393 457 362 468 320 468 c 0
 183 468 141 307 141 196 c 0
 141 101 184 60 254 60 c 0
 301 60 336 75 378 102 c 1
 412 43 l 1
 361 7 307 -12 249 -12 c 0
 126 -12 54 67 54 202 c 0
 54 340 125 538 319 538 c 0
EndSplineSet
Substitution2: "'smcp' Lowercase to Small Capitals lookup 24 subtable" cdotaccent.sc
Substitution2: "'aalt' Access All Alternates lookup 0 subtable" cdotaccent.sc
EndChar
StartChar: Ccaron
Encoding: 268 268 44
Width: 553
GlyphClass: 2
Flags: MW
HStem: -12 74<265.5 345 265.5 350> 628 72<307 423>
VStem: 63 91<189.5 338 189.5 358.5>
AnchorPoint: "Anchor-14" 0 0 basechar 0
AnchorPoint: "Anchor-13" 0 0 basechar 0
AnchorPoint: "Anchor-12" 426 904 basechar 0
AnchorPoint: "Anchor-11" 0 0 basechar 0
AnchorPoint: "Anchor-10" 306 0 basechar 0
LayerCount: 2
Back
Fore
SplineSet
552 904 m 1
 584 862 l 1
 437 755 l 1
 383 755 l 1
 264 862 l 1
 304 904 l 1
 416 823 l 1
 552 904 l 1
395 700 m 0
 474 700 530 674 577 630 c 1
 525 580 l 1
 486 614 447 628 399 628 c 0
 215 628 154 416 154 260 c 0
 154 119 220 62 311 62 c 0
 379 62 425 92 467 122 c 1
 506 62 l 1
 461 24 394 -12 306 -12 c 0
 161 -12 63 86 63 267 c 0
 63 450 156 700 395 700 c 0
EndSplineSet
Substitution2: "'c2sc' Capitals to Small Capitals lookup 27 subtable" ccaron.sc
Substitution2: "'aalt' Access All Alternates lookup 0 subtable" ccaron.sc
Position2: "'cpsp' Capital Spacing lookup 0 subtable" dx=5 dy=0 dh=10 dv=0
EndChar

StartChar: ccaron
Encoding: 269 269 149
Width: 471
GlyphClass: 2
Flags: MW
HStem: -12 72<219 277.5 219 278> 468 70<251.5 341> 628 69<344 344 344 366 312 344> 677 20G<344 344> 720 20G<194 194 514 514>
VStem: 54 87<148.5 251.5 148.5 271>
AnchorPoint: "Anchor-11" 244 0 basechar 0
AnchorPoint: "Anchor-10" 0 0 basechar 0
AnchorPoint: "Anchor-9" 323 526 basechar 0
AnchorPoint: "Anchor-8" 0 0 basechar 0
LayerCount: 2
Fore
SplineSet
514 740 m 1xdc
 366 628 l 1
 312 628 l 1xec
 194 740 l 1
 232 781 l 1
 344 697 l 1
 483 781 l 1
 514 740 l 1xdc
319 538 m 0
 378 538 427 521 469 481 c 1
 424 429 l 1
 393 457 362 468 320 468 c 0
 183 468 141 307 141 196 c 0
 141 101 184 60 254 60 c 0
 301 60 336 75 378 102 c 1
 412 43 l 1
 361 7 307 -12 249 -12 c 0
 126 -12 54 67 54 202 c 0
 54 340 125 538 319 538 c 0
EndSplineSet
Substitution2: "'smcp' Lowercase to Small Capitals lookup 24 subtable" ccaron.sc
Substitution2: "'aalt' Access All Alternates lookup 0 subtable" ccaron.sc
EndChar
StartChar: Dcaron
Encoding: 270 270 55
Width: 637
GlyphClass: 2
Flags: MW
HStem: 0 69<161 226> 618 70<237 301 301 312 237 237>
VStem: 509 87<346 512.5>
AnchorPoint: "Anchor-14" 331 344 basechar 0
AnchorPoint: "Anchor-13" 0 0 basechar 0
AnchorPoint: "Anchor-12" 381 904 basechar 0
AnchorPoint: "Anchor-11" 0 0 basechar 0
AnchorPoint: "Anchor-10" 251 0 basechar 0
LayerCount: 2
Back
Fore
SplineSet
507 904 m 1
 539 862 l 1
 392 755 l 1
 338 755 l 1
 219 862 l 1
 259 904 l 1
 371 823 l 1
 507 904 l 1
301 688 m 2
 454 688 596 642 596 428 c 0
 596 209 497 0 226 0 c 2
 65 0 l 1
 162 688 l 1
 301 688 l 2
312 618 m 2
 237 618 l 1
 161 69 l 1
 239 69 l 2
 444 69 509 262 509 430 c 0
 509 595 411 618 312 618 c 2
EndSplineSet
Substitution2: "'c2sc' Capitals to Small Capitals lookup 27 subtable" dcaron.sc
Substitution2: "'aalt' Access All Alternates lookup 0 subtable" dcaron.sc
Position2: "'cpsp' Capital Spacing lookup 0 subtable" dx=5 dy=0 dh=10 dv=0
EndChar

StartChar: dcaron
Encoding: 271 271 155
Width: 636
GlyphClass: 2
Flags: MW
HStem: -12 67<206 254.5> 0 21G<379 452 379 379> 471 67<248 331 208.5 340> 546 20G<585 585> 718 20G<556 556 702 702> 727 20G<627 627> 728 20G<474 474>
VStem: 54 88<144.5 244.5 144.5 264>
LayerCount: 2
Fore
SplineSet
556 738 m 1xa9
 452 0 l 1
 379 0 l 1x69
 382 92 l 1
 345 30 290 -12 219 -12 c 0
 112 -12 54 69 54 196 c 0
 54 332 118 538 299 538 c 0
 363 538 406 507 435 470 c 1
 474 748 l 1xa3
 556 738 l 1xa9
702 738 m 1
 633 559 l 1
 585 566 l 1
 627 747 l 1xb5
 702 738 l 1
314 471 m 0xa3
 182 471 142 298 142 191 c 0
 142 98 177 55 235 55 c 0
 303 55 347 106 394 182 c 1
 425 404 l 1
 399 445 366 471 314 471 c 0xa3
EndSplineSet
Substitution2: "'smcp' Lowercase to Small Capitals lookup 24 subtable" dcaron.sc
Substitution2: "'aalt' Access All Alternates lookup 0 subtable" dcaron.sc
EndChar

StartChar: Dcroat
Encoding: 272 272 23
Width: 643
GlyphClass: 2
Flags: MW
HStem: 0 69<168 234> 321 64<38 117 30 126 212 366> 618 70<245 308 308 320 245 245>
VStem: 516 88<346 512.5>
AnchorPoint: "Anchor-11" 0 0 basechar 0
AnchorPoint: "Anchor-10" 0 0 basechar 0
AnchorPoint: "Anchor-9" 367 688 basechar 0
AnchorPoint: "Anchor-8" 0 0 basechar 0
LayerCount: 2
Fore
SplineSet
308 688 m 2
 461 688 604 642 604 428 c 0
 604 209 504 0 234 0 c 2
 72 0 l 1
 117 321 l 1
 30 321 l 1
 38 385 l 1
 126 385 l 1
 169 688 l 1
 308 688 l 2
247 69 m 2
 451 69 516 262 516 430 c 0
 516 595 418 618 320 618 c 2
 245 618 l 1
 212 385 l 1
 375 385 l 1
 366 321 l 1
 203 321 l 1
 168 69 l 1
 247 69 l 2
EndSplineSet
Substitution2: "'c2sc' Capitals to Small Capitals lookup 23 subtable" dcroat.sc
Substitution2: "'aalt' Access All Alternates lookup 0 subtable" dcroat.sc
Position2: "'cpsp' Capital Spacing lookup 0 subtable" dx=5 dy=0 dh=10 dv=0
EndChar
StartChar: dcroat
Encoding: 273 273 395
Width: 599
GlyphClass: 2
Flags: MW
HStem: -12 67<210 258.5> 0 21G<383 456 383 383> 471 67<252 335 212.5 344> 608 65<307 458 307 467 551 621> 727 20G<478 478>
VStem: 58 88<144.5 244.5 144.5 264>
AnchorPoint: "Anchor-14" 299 263 basechar 0
AnchorPoint: "Anchor-13" 573 738 basechar 0
AnchorPoint: "Anchor-12" 346 738 basechar 0
AnchorPoint: "Anchor-11" 0 0 basechar 0
AnchorPoint: "Anchor-10" 257 0 basechar 0
LayerCount: 2
Back
Fore
SplineSet
551 673 m 1xbc
 630 673 l 1
 621 608 l 1
 542 608 l 1
 456 0 l 1
 383 0 l 1x7c
 386 92 l 1
 349 30 294 -12 223 -12 c 0
 116 -12 58 69 58 196 c 0
 58 332 122 538 303 538 c 0
 367 538 410 507 439 470 c 1
 458 608 l 1
 307 608 l 1
 307 673 l 1
 467 673 l 1
 478 747 l 1
 560 737 l 1
 551 673 l 1xbc
399 182 m 1
 430 404 l 1
 403 445 370 471 318 471 c 0
 186 471 146 298 146 191 c 0
 146 98 181 55 239 55 c 0xbc
 307 55 351 106 399 182 c 1
EndSplineSet
Substitution2: "'smcp' Lowercase to Small Capitals lookup 28 subtable" dcroat.sc
Substitution2: "'aalt' Access All Alternates lookup 0 subtable" dcroat.sc
EndChar
StartChar: Emacron
Encoding: 274 274 83
Width: 524
GlyphClass: 2
Flags: MW
HStem: 0 70<161 436> 316 70<204 428 195 437> 618 70<237 506 237 237> 795 64<239 494 231 503>
VStem: 65 460
AnchorPoint: "Anchor-14" 0 0 basechar 0
AnchorPoint: "Anchor-13" 0 0 basechar 0
AnchorPoint: "Anchor-12" 368 859 basechar 0
AnchorPoint: "Anchor-11" 408 0 basechar 0
AnchorPoint: "Anchor-10" 250 0 basechar 0
LayerCount: 2
Back
Fore
SplineSet
494 795 m 1
 231 795 l 1
 239 859 l 1
 503 859 l 1
 494 795 l 1
525 688 m 1
 506 618 l 1
 237 618 l 1
 204 386 l 1
 437 386 l 1
 428 316 l 1
 195 316 l 1
 161 70 l 1
 446 70 l 1
 436 0 l 1
 65 0 l 1
 162 688 l 1
 525 688 l 1
EndSplineSet
Substitution2: "'c2sc' Capitals to Small Capitals lookup 27 subtable" emacron.sc
Substitution2: "'aalt' Access All Alternates lookup 0 subtable" emacron.sc
Position2: "'cpsp' Capital Spacing lookup 0 subtable" dx=5 dy=0 dh=10 dv=0
EndChar
StartChar: emacron
Encoding: 275 275 427
Width: 521
GlyphClass: 2
Flags: MW
HStem: -12 71<225 285 225 286.5> 471 67<264.5 352> 669 64<211 466 203 475>
VStem: 54 87 400 88<357.5 417.5>
AnchorPoint: "Anchor-14" 0 0 basechar 0
AnchorPoint: "Anchor-13" 0 0 basechar 0
AnchorPoint: "Anchor-12" 341 733 basechar 0
AnchorPoint: "Anchor-11" 357 6 basechar 0
AnchorPoint: "Anchor-10" 252 0 basechar 0
LayerCount: 2
Back
Fore
SplineSet
475 733 m 1
 466 669 l 1
 203 669 l 1
 211 733 l 1
 475 733 l 1
488 406 m 0
 488 261 332 217 141 199 c 1
 142 97 190 59 260 59 c 0
 310 59 354 75 402 109 c 1
 438 52 l 1
 382 11 321 -12 252 -12 c 0
 125 -12 54 68 54 201 c 0
 54 346 126 538 323 538 c 0
 432 538 488 476 488 406 c 0
145 263 m 1
 307 279 400 312 400 403 c 0
 400 432 382 471 322 471 c 0
 207 471 159 362 145 263 c 1
EndSplineSet
Substitution2: "'smcp' Lowercase to Small Capitals lookup 28 subtable" emacron.sc
Substitution2: "'aalt' Access All Alternates lookup 0 subtable" emacron.sc
EndChar
StartChar: Ebreve
Encoding: 276 276 67
Width: 524
GlyphClass: 2
Flags: MW
HStem: 0 70<161 436> 316 70<204 428 195 437> 618 70<237 506 237 237> 760 64<335.5 382 335.5 394.5>
VStem: 65 460
AnchorPoint: "Anchor-14" 0 0 basechar 0
AnchorPoint: "Anchor-13" 0 0 basechar 0
AnchorPoint: "Anchor-12" 373 891 basechar 0
AnchorPoint: "Anchor-11" 408 0 basechar 0
AnchorPoint: "Anchor-10" 250 0 basechar 0
LayerCount: 2
Back
Fore
SplineSet
357 760 m 0
 278 760 225 810 227 880 c 1
 281 887 l 1
 290 848 313 824 358 824 c 0
 406 824 442 852 461 891 c 1
 516 875 l 1
 499 804 432 760 357 760 c 0
525 688 m 1
 506 618 l 1
 237 618 l 1
 204 386 l 1
 437 386 l 1
 428 316 l 1
 195 316 l 1
 161 70 l 1
 446 70 l 1
 436 0 l 1
 65 0 l 1
 162 688 l 1
 525 688 l 1
EndSplineSet
Substitution2: "'c2sc' Capitals to Small Capitals lookup 27 subtable" ebreve.sc
Substitution2: "'aalt' Access All Alternates lookup 0 subtable" ebreve.sc
Position2: "'cpsp' Capital Spacing lookup 0 subtable" dx=5 dy=0 dh=10 dv=0
EndChar

StartChar: Edotaccent
Encoding: 278 278 30
Width: 524
GlyphClass: 2
Flags: MW
HStem: 0 70<161 436> 316 70<204 428 195 437> 618 70<237 506 237 237> 784 116<356.5 381>
VStem: 310 116
AnchorPoint: "Anchor-11" 250 0 basechar 0
AnchorPoint: "Anchor-10" 53 532 basechar 0
AnchorPoint: "Anchor-9" 347 688 basechar 0
AnchorPoint: "Anchor-8" 408 0 basechar 0
LayerCount: 2
Fore
SplineSet
373 900 m 0
 411 900 431 872 426 837 c 0
 422 807 398 784 364 784 c 0
 327 784 306 812 310 846 c 1
 315 877 340 900 373 900 c 0
506 618 m 1
 237 618 l 1
 204 386 l 1
 437 386 l 1
 428 316 l 1
 195 316 l 1
 161 70 l 1
 446 70 l 1
 436 0 l 1
 65 0 l 1
 162 688 l 1
 525 688 l 1
 506 618 l 1
EndSplineSet
Substitution2: "'c2sc' Capitals to Small Capitals lookup 23 subtable" edotaccent.sc
Substitution2: "'aalt' Access All Alternates lookup 0 subtable" edotaccent.sc
Position2: "'cpsp' Capital Spacing lookup 0 subtable" dx=5 dy=0 dh=10 dv=0
EndChar
StartChar: edotaccent
Encoding: 279 279 422
Width: 521
GlyphClass: 2
Flags: MW
HStem: -12 71<225 285 225 286.5> 471 67<264.5 352> 658 116<328.5 353>
VStem: 54 87 282 116 400 88<357.5 417.5>
AnchorPoint: "Anchor-14" 0 0 basechar 0
AnchorPoint: "Anchor-13" 0 0 basechar 0
AnchorPoint: "Anchor-12" 348 774 basechar 0
AnchorPoint: "Anchor-11" 357 6 basechar 0
AnchorPoint: "Anchor-10" 252 0 basechar 0
LayerCount: 2
Back
Fore
SplineSet
336 658 m 0
 299 658 278 686 282 720 c 0
 287 751 312 774 345 774 c 0
 383 774 403 746 398 711 c 0
 394 681 370 658 336 658 c 0
488 406 m 0xd4
 488 261 332 217 141 199 c 1
 142 97 190 59 260 59 c 0
 310 59 354 75 402 109 c 1
 438 52 l 1
 382 11 321 -12 252 -12 c 0
 125 -12 54 68 54 201 c 0
 54 346 126 538 323 538 c 0
 432 538 488 476 488 406 c 0xd4
145 263 m 1
 307 279 400 312 400 403 c 0
 400 432 382 471 322 471 c 0
 207 471 159 362 145 263 c 1
EndSplineSet
Substitution2: "'smcp' Lowercase to Small Capitals lookup 28 subtable" edotaccent.sc
Substitution2: "'aalt' Access All Alternates lookup 0 subtable" edotaccent.sc
EndChar

StartChar: Eogonek
Encoding: 280 280 33
Width: 524
GlyphClass: 2
Flags: MW
HStem: -228 65<291 306.5> 0 70<161 295 399 436 399 399> 316 70<204 428 195 437> 618 70<237 237 237 506>
VStem: 184 74<-137.5 -113.5>
AnchorPoint: "Anchor-11" 250 0 basechar 0
AnchorPoint: "Anchor-10" 53 532 basechar 0
AnchorPoint: "Anchor-9" 347 688 basechar 0
AnchorPoint: "Anchor-8" 408 0 basechar 0
LayerCount: 2
Fore
SplineSet
237 618 m 1
 204 386 l 1
 437 386 l 1
 428 316 l 1
 195 316 l 1
 161 70 l 1
 446 70 l 1
 436 0 l 1
 399 0 l 1
 279 -50 258 -91 258 -126 c 0
 258 -149 275 -163 307 -163 c 0
 328 -163 345 -160 369 -155 c 1
 355 -222 l 1
 335 -226 318 -228 295 -228 c 0
 224 -228 184 -188 184 -137 c 0
 184 -90 208 -41 295 0 c 1
 65 0 l 1
 162 688 l 1
 525 688 l 1
 506 618 l 1
 237 618 l 1
EndSplineSet
Substitution2: "'c2sc' Capitals to Small Capitals lookup 23 subtable" eogonek.sc
Substitution2: "'aalt' Access All Alternates lookup 0 subtable" eogonek.sc
Position2: "'cpsp' Capital Spacing lookup 0 subtable" dx=5 dy=0 dh=10 dv=0
EndChar

StartChar: eogonek
Encoding: 281 281 166
Width: 522
GlyphClass: 2
Flags: MW
HStem: -223 65<261 284.5> -216 21G<334 334> -11 70 471 67<265 352>
VStem: 54 87 150 74<-124 -101> 400 88<357.5 417.5>
AnchorPoint: "Anchor-11" 253 0 basechar 0
AnchorPoint: "Anchor-10" 0 0 basechar 0
AnchorPoint: "Anchor-9" 314 526 basechar 0
AnchorPoint: "Anchor-8" 358 6 basechar 0
LayerCount: 2
Fore
SplineSet
488 406 m 0x7a
 488 260 332 218 141 198 c 1x7a
 142 96 190 59 260 59 c 0
 311 59 354 75 402 109 c 1
 439 52 l 1
 404 27 368 9 329 -2 c 1
 245 -41 224 -72 224 -109 c 0
 224 -139 240 -158 282 -158 c 0
 303 -158 319 -156 342 -151 c 1xbe
 334 -216 l 1
 314 -220 297 -223 272 -223 c 0
 196 -223 150 -180 150 -124 c 0x7e
 150 -78 178 -39 232 -11 c 1
 118 -3 54 75 54 201 c 0
 54 346 126 538 323 538 c 0
 432 538 488 476 488 406 c 0x7a
145 263 m 1
 307 279 400 312 400 403 c 0
 400 432 382 471 322 471 c 0
 208 471 159 362 145 263 c 1
EndSplineSet
Substitution2: "'smcp' Lowercase to Small Capitals lookup 24 subtable" eogonek.sc
Substitution2: "'aalt' Access All Alternates lookup 0 subtable" eogonek.sc
EndChar
StartChar: Ecaron
Encoding: 282 282 68
Width: 524
GlyphClass: 2
Flags: MW
HStem: 0 70<161 436> 316 70<204 428 195 437> 618 70<237 506 237 237>
VStem: 65 462
AnchorPoint: "Anchor-14" 0 0 basechar 0
AnchorPoint: "Anchor-13" 0 0 basechar 0
AnchorPoint: "Anchor-12" 369 904 basechar 0
AnchorPoint: "Anchor-11" 408 0 basechar 0
AnchorPoint: "Anchor-10" 250 0 basechar 0
LayerCount: 2
Back
Fore
SplineSet
495 904 m 1
 527 862 l 1
 380 755 l 1
 326 755 l 1
 207 862 l 1
 247 904 l 1
 359 823 l 1
 495 904 l 1
525 688 m 1
 506 618 l 1
 237 618 l 1
 204 386 l 1
 437 386 l 1
 428 316 l 1
 195 316 l 1
 161 70 l 1
 446 70 l 1
 436 0 l 1
 65 0 l 1
 162 688 l 1
 525 688 l 1
EndSplineSet
Substitution2: "'c2sc' Capitals to Small Capitals lookup 27 subtable" ecaron.sc
Substitution2: "'aalt' Access All Alternates lookup 0 subtable" ecaron.sc
Position2: "'cpsp' Capital Spacing lookup 0 subtable" dx=5 dy=0 dh=10 dv=0
EndChar

StartChar: Gcircumflex
Encoding: 284 284 37
Width: 623
GlyphClass: 2
Flags: MW
HStem: -12 72<262.5 338.5 262.5 349> 308 71<358 481 358 576> 628 72<315 435.5> 841 68<440 440>
VStem: 63 90<182 333 182 358.5>
AnchorPoint: "Anchor-11" 302 0 basechar 0
AnchorPoint: "Anchor-10" 0 0 basechar 0
AnchorPoint: "Anchor-9" 411 688 basechar 0
AnchorPoint: "Anchor-8" 0 0 basechar 0
LayerCount: 2
Fore
SplineSet
440 841 m 1
 306 760 l 1
 272 801 l 1
 419 909 l 1
 474 909 l 1
 592 801 l 1
 554 760 l 1
 440 841 l 1
405 700 m 0
 491 700 551 672 603 623 c 1
 546 574 l 1
 503 613 465 628 406 628 c 0
 224 628 153 418 153 248 c 0
 153 116 210 60 315 60 c 0
 362 60 407 70 450 95 c 1
 481 308 l 1
 358 308 l 1
 358 379 l 1
 576 379 l 1
 531 52 l 1
 465 11 394 -12 304 -12 c 0
 156 -12 63 79 63 259 c 0
 63 458 166 700 405 700 c 0
EndSplineSet
Substitution2: "'c2sc' Capitals to Small Capitals lookup 23 subtable" gcircumflex.sc
Substitution2: "'aalt' Access All Alternates lookup 0 subtable" gcircumflex.sc
Position2: "'cpsp' Capital Spacing lookup 0 subtable" dx=5 dy=0 dh=10 dv=0
EndChar
StartChar: gcircumflex
Encoding: 285 285 455
Width: 577
GlyphClass: 2
Flags: MW
HStem: -214 72<177 240.5 176.5 269> 0 67<209 252> 471 67<266 354.5>
VStem: 53 89<153 261 153 275.5>
AnchorPoint: "Anchor-14" 0 0 basechar 0
AnchorPoint: "Anchor-13" 0 0 basechar 0
AnchorPoint: "Anchor-12" 361 789 basechar 0
AnchorPoint: "Anchor-11" 0 0 basechar 0
AnchorPoint: "Anchor-10" 209 -201 basechar 0
LayerCount: 2
Back
Fore
SplineSet
221 636 m 1
 187 678 l 1
 335 789 l 1
 389 789 l 1
 507 678 l 1
 467 636 l 1
 354 720 l 1
 221 636 l 1
334 538 m 0
 398 538 451 526 517 493 c 1
 445 10 l 2
 420 -157 329 -214 209 -214 c 0
 145 -214 78 -193 29 -163 c 1
 61 -100 l 1
 95 -119 148 -142 205 -142 c 0
 276 -142 345 -118 363 11 c 2
 373 82 l 1
 334 34 281 0 223 0 c 0
 114 0 53 78 53 199 c 0
 53 352 131 538 334 538 c 0
335 471 m 0
 197 471 142 324 142 198 c 0
 142 108 180 67 238 67 c 0
 297 67 344 111 385 169 c 1
 429 452 l 1
 398 466 374 471 335 471 c 0
EndSplineSet
Substitution2: "'smcp' Lowercase to Small Capitals lookup 28 subtable" gcircumflex.sc
Substitution2: "'aalt' Access All Alternates lookup 0 subtable" gcircumflex.sc
EndChar

StartChar: Gbreve
Encoding: 286 286 36
Width: 623
GlyphClass: 2
Flags: MW
HStem: -12 72<262.5 338.5 262.5 349> 308 71<358 481 358 576> 628 72<315 435.5> 760 64<394.5 441 394.5 453.5>
VStem: 63 90<182 333 182 358.5>
AnchorPoint: "Anchor-11" 302 0 basechar 0
AnchorPoint: "Anchor-10" 0 0 basechar 0
AnchorPoint: "Anchor-9" 411 688 basechar 0
AnchorPoint: "Anchor-8" 0 0 basechar 0
LayerCount: 2
Fore
SplineSet
416 760 m 0
 337 760 284 810 286 880 c 1
 340 887 l 1
 349 848 372 824 417 824 c 0
 465 824 501 852 520 891 c 1
 575 875 l 1
 558 804 491 760 416 760 c 0
405 700 m 0
 491 700 551 672 603 623 c 1
 546 574 l 1
 503 613 465 628 406 628 c 0
 224 628 153 418 153 248 c 0
 153 116 210 60 315 60 c 0
 362 60 407 70 450 95 c 1
 481 308 l 1
 358 308 l 1
 358 379 l 1
 576 379 l 1
 531 52 l 1
 465 11 394 -12 304 -12 c 0
 156 -12 63 79 63 259 c 0
 63 458 166 700 405 700 c 0
EndSplineSet
Substitution2: "'c2sc' Capitals to Small Capitals lookup 23 subtable" gbreve.sc
Substitution2: "'aalt' Access All Alternates lookup 0 subtable" gbreve.sc
Position2: "'cpsp' Capital Spacing lookup 0 subtable" dx=5 dy=0 dh=10 dv=0
EndChar

StartChar: Gdotaccent
Encoding: 288 288 39
Width: 623
GlyphClass: 2
Flags: MW
HStem: -12 72<262.5 338.5 262.5 349> 308 71<358 481 358 576> 628 72<315 435.5> 784 116<420.5 445>
VStem: 63 90<182 333 182 358.5> 374 116
AnchorPoint: "Anchor-11" 302 0 basechar 0
AnchorPoint: "Anchor-10" 0 0 basechar 0
AnchorPoint: "Anchor-9" 411 688 basechar 0
AnchorPoint: "Anchor-8" 0 0 basechar 0
LayerCount: 2
Fore
SplineSet
437 900 m 0
 475 900 495 872 490 837 c 0
 486 807 462 784 428 784 c 0
 391 784 370 812 374 846 c 1
 379 877 404 900 437 900 c 0
405 700 m 0
 491 700 551 672 603 623 c 1
 546 574 l 1
 503 613 465 628 406 628 c 0
 224 628 153 418 153 248 c 0
 153 116 210 60 315 60 c 0
 362 60 407 70 450 95 c 1
 481 308 l 1
 358 308 l 1
 358 379 l 1
 576 379 l 1
 531 52 l 1
 465 11 394 -12 304 -12 c 0
 156 -12 63 79 63 259 c 0
 63 458 166 700 405 700 c 0
EndSplineSet
Substitution2: "'c2sc' Capitals to Small Capitals lookup 23 subtable" gdotaccent.sc
Substitution2: "'aalt' Access All Alternates lookup 0 subtable" gdotaccent.sc
Position2: "'cpsp' Capital Spacing lookup 0 subtable" dx=5 dy=0 dh=10 dv=0
EndChar

StartChar: gdotaccent
Encoding: 289 289 172
Width: 574
GlyphClass: 2
Flags: MW
HStem: -214 72<174.5 237.5 174 266.5> 0 67<206 249> 471 67<263.5 352.5> 658 116<339.5 364>
VStem: 50 90<153 198 153 275.5> 293 116
AnchorPoint: "Anchor-11" 0 0 basechar 0
AnchorPoint: "Anchor-10" 0 0 basechar 0
AnchorPoint: "Anchor-9" 325 526 basechar 0
AnchorPoint: "Anchor-8" 0 0 basechar 0
LayerCount: 2
Fore
SplineSet
356 774 m 0
 394 774 414 746 409 711 c 0
 405 681 381 658 347 658 c 0
 310 658 289 686 293 720 c 1
 298 751 323 774 356 774 c 0
331 538 m 0
 395 538 448 526 515 493 c 1
 442 10 l 2
 417 -157 327 -214 206 -214 c 0
 143 -214 75 -193 26 -163 c 1
 58 -100 l 1
 92 -119 146 -142 202 -142 c 0
 273 -142 343 -118 361 11 c 1
 370 82 l 1
 331 34 278 0 220 0 c 0
 111 0 50 78 50 199 c 0
 50 352 128 538 331 538 c 0
333 471 m 0
 194 471 139 324 140 198 c 0
 140 108 177 67 235 67 c 0
 295 67 341 111 383 169 c 1
 426 452 l 1
 396 466 372 471 333 471 c 0
EndSplineSet
Substitution2: "'smcp' Lowercase to Small Capitals lookup 24 subtable" gdotaccent.sc
Substitution2: "'aalt' Access All Alternates lookup 0 subtable" gdotaccent.sc
EndChar

StartChar: Gcommaaccent
Encoding: 290 290 38
Width: 623
GlyphClass: 2
Flags: MW
HStem: -12 72<262.5 338.5 262.5 349> 308 71<358 481 358 576> 628 72<315 435.5>
VStem: 63 90<182 333 182 358.5> 231 107<-139.5 -119>
AnchorPoint: "Anchor-11" 302 0 basechar 0
AnchorPoint: "Anchor-10" 0 0 basechar 0
AnchorPoint: "Anchor-9" 411 688 basechar 0
AnchorPoint: "Anchor-8" 0 0 basechar 0
LayerCount: 2
Fore
SplineSet
405 700 m 0
 491 700 551 672 603 623 c 1
 546 574 l 1
 503 613 465 628 406 628 c 0
 224 628 153 418 153 248 c 0
 153 116 210 60 315 60 c 0
 362 60 407 70 450 95 c 1
 481 308 l 1
 358 308 l 1
 358 379 l 1
 576 379 l 1
 531 52 l 1
 465 11 394 -12 304 -12 c 0
 156 -12 63 79 63 259 c 0
 63 458 166 700 405 700 c 0
288 -79 m 0
 320 -79 338 -104 338 -128 c 0
 338 -151 329 -168 303 -210 c 2
 251 -292 l 1
 201 -292 l 1
 250 -175 l 1
 239 -165 231 -151 231 -135 c 0
 231 -103 257 -79 288 -79 c 0
EndSplineSet
Substitution2: "'c2sc' Capitals to Small Capitals lookup 23 subtable" gcommaaccent.sc
Substitution2: "'aalt' Access All Alternates lookup 0 subtable" gcommaaccent.sc
Position2: "'cpsp' Capital Spacing lookup 0 subtable" dx=5 dy=0 dh=10 dv=0
EndChar
StartChar: gcommaaccent
Encoding: 291 291 456
Width: 577
GlyphClass: 2
Flags: MW
HStem: -214 72<177 240.5 176.5 269> 0 67<209 252> 471 67<266 354.5>
VStem: 53 89<153 261 153 275.5> 294 107<624 644.5>
AnchorPoint: "Anchor-14" 0 0 basechar 0
AnchorPoint: "Anchor-13" 0 0 basechar 0
AnchorPoint: "Anchor-12" 328 526 basechar 0
AnchorPoint: "Anchor-11" 0 0 basechar 0
AnchorPoint: "Anchor-10" 209 -201 basechar 0
LayerCount: 2
Back
Fore
SplineSet
344 584 m 0
 312 584 294 609 294 633 c 0
 294 656 303 673 329 715 c 2
 381 797 l 1
 431 797 l 1
 382 680 l 1
 393 670 401 656 401 640 c 0
 401 608 375 584 344 584 c 0
334 538 m 0
 398 538 451 526 517 493 c 1
 445 10 l 2
 420 -157 329 -214 209 -214 c 0
 145 -214 78 -193 29 -163 c 1
 61 -100 l 1
 95 -119 148 -142 205 -142 c 0
 276 -142 345 -118 363 11 c 2
 373 82 l 1
 334 34 281 0 223 0 c 0
 114 0 53 78 53 199 c 0
 53 352 131 538 334 538 c 0
335 471 m 0
 197 471 142 324 142 198 c 0
 142 108 180 67 238 67 c 0
 297 67 344 111 385 169 c 1
 429 452 l 1
 398 466 374 471 335 471 c 0
EndSplineSet
Substitution2: "'smcp' Lowercase to Small Capitals lookup 28 subtable" gcommaaccent.sc
Substitution2: "'aalt' Access All Alternates lookup 0 subtable" gcommaaccent.sc
EndChar

StartChar: hcircumflex
Encoding: 293 293 175
Width: 580
GlyphClass: 2
Flags: MW
HStem: 0 21G<60 143 60 60 368 452 368 368> 467 71<346.5 377.5> 727 20G<248 248> 891 68<386 386>
VStem: 422.6 84.14
AnchorPoint: "Anchor-11" 253 0 basechar 0
AnchorPoint: "Anchor-10" 0 0 basechar 0
AnchorPoint: "Anchor-9" 357 738 basechar 0
AnchorPoint: "Anchor-8" 0 0 basechar 0
LayerCount: 2
Fore
SplineSet
386 891 m 1
 252 810 l 1
 218 851 l 1
 365 959 l 1
 420 959 l 1
 538 851 l 1
 500 810 l 1
 386 891 l 1
382 538 m 0
 472 538 519 474 504 374 c 1
 452 0 l 1
 368 0 l 1
 420 368 l 2
 432 449 403 467 352 467 c 0
 291 467 230 395 186 315 c 1
 143 0 l 1
 60 0 l 1
 164 737 l 1
 248 747 l 1
 201 420 l 1
 246 491 311 538 382 538 c 0
EndSplineSet
Substitution2: "'smcp' Lowercase to Small Capitals lookup 24 subtable" hcircumflex.sc
Substitution2: "'aalt' Access All Alternates lookup 0 subtable" hcircumflex.sc
EndChar
StartChar: Hbar
Encoding: 294 294 108
Width: 678
GlyphClass: 2
Flags: MW
HStem: 0 21G<67 153 67 67 450 536 450 450> 326 72<209 496 199 506> 509 63<81 139 72 148 234 522 617 675> 509 179<72 250 72 250 225 225 225 250 164 522 608 633 608 608>
VStem: 67 617<0 572>
AnchorPoint: "Anchor-14" 350 344 basechar 0
AnchorPoint: "Anchor-13" 0 0 basechar 0
AnchorPoint: "Anchor-12" 398 688 basechar 0
AnchorPoint: "Anchor-11" 0 0 basechar 0
AnchorPoint: "Anchor-10" 308 0 basechar 0
LayerCount: 2
Back
Fore
SplineSet
684 572 m 1xe8
 675 509 l 1
 608 509 l 1
 536 0 l 1
 450 0 l 1
 496 326 l 1
 199 326 l 1
 153 0 l 1
 67 0 l 1
 139 509 l 1
 72 509 l 1
 81 572 l 1
 148 572 l 1xe8
 164 688 l 1
 250 688 l 1xd8
 234 572 l 1
 531 572 l 1xe8
 547 688 l 1
 633 688 l 1xd8
 617 572 l 1
 684 572 l 1xe8
506 398 m 1
 522 509 l 1
 225 509 l 1
 209 398 l 1
 506 398 l 1
EndSplineSet
Substitution2: "'c2sc' Capitals to Small Capitals lookup 27 subtable" hbar.sc
Substitution2: "'aalt' Access All Alternates lookup 0 subtable" hbar.sc
Position2: "'cpsp' Capital Spacing lookup 0 subtable" dx=5 dy=0 dh=10 dv=0
EndChar

StartChar: hbar
Encoding: 295 295 174
Width: 588
GlyphClass: 2
Flags: MW
HStem: 0 21G<67 150 67 67 376 459 376 376> 467 71<354.5 385> 608 65<85 153 75 162 245 383> 717 20G<171 171> 727 20G<255 255>
VStem: 166.5 83.5 430.28 84.14
AnchorPoint: "Anchor-11" 260 0 basechar 0
AnchorPoint: "Anchor-10" 0 0 basechar 0
AnchorPoint: "Anchor-9" 365 738 basechar 0
AnchorPoint: "Anchor-8" 0 0 basechar 0
LayerCount: 2
Fore
SplineSet
390 538 m 0xee
 479 538 526 474 512 374 c 2
 459 0 l 1
 376 0 l 1
 428 368 l 2
 439 449 410 467 360 467 c 0
 298 467 238 395 194 315 c 1
 150 0 l 1
 67 0 l 1
 153 608 l 1
 75 608 l 1
 85 673 l 1
 162 673 l 1
 171 737 l 1xf6
 255 747 l 1
 245 673 l 1
 401 673 l 1
 383 608 l 1
 235 608 l 1
 209 420 l 1
 254 491 319 538 390 538 c 0xee
EndSplineSet
Substitution2: "'smcp' Lowercase to Small Capitals lookup 24 subtable" hbar.sc
Substitution2: "'aalt' Access All Alternates lookup 0 subtable" hbar.sc
EndChar

StartChar: Itilde
Encoding: 296 296 53
Width: 291
GlyphClass: 2
Flags: MW
HStem: 0 21G<65 152 65 65> 668 20G<162 249 249 249> 784 65<265 293 265 302.5> 832 64<159 188>
VStem: 61 332<815 865>
AnchorPoint: "Anchor-11" 0 0 basechar 0
AnchorPoint: "Anchor-10" 55 532 basechar 0
AnchorPoint: "Anchor-9" 205 688 basechar 0
AnchorPoint: "Anchor-8" 161 0 basechar 0
LayerCount: 2
Fore
SplineSet
284 784 m 0xe8
 225 784 204 832 172 832 c 0
 146 832 130 815 109 785 c 1
 61 815 l 1
 91 862 128 896 174 896 c 0xd8
 229 896 248 849 282 849 c 0
 304 849 322 864 343 895 c 1
 393 865 l 1
 359 810 321 784 284 784 c 0xe8
152 0 m 1xd8
 65 0 l 1
 162 688 l 1
 249 688 l 1
 152 0 l 1xd8
EndSplineSet
Substitution2: "'c2sc' Capitals to Small Capitals lookup 23 subtable" itilde.sc
Substitution2: "'aalt' Access All Alternates lookup 0 subtable" itilde.sc
Position2: "'cpsp' Capital Spacing lookup 0 subtable" dx=5 dy=0 dh=10 dv=0
EndChar

StartChar: itilde
Encoding: 297 297 187
Width: 277
GlyphClass: 2
Flags: MW
HStem: 0 21G<60 144 60 60> 506 20G<134 218 218 218> 658 65<240 268 240 277.5> 669 20G<36 36> 706 64<134 163> 719 20G<368 368>
VStem: 36 332<689 739>
AnchorPoint: "Anchor-11" 0 0 basechar 0
AnchorPoint: "Anchor-10" 0 0 basechar 0
AnchorPoint: "Anchor-9" 176 526 basechar 0
AnchorPoint: "Anchor-8" 153 0 basechar 0
LayerCount: 2
Fore
SplineSet
259 658 m 0xe2
 200 658 179 706 147 706 c 0
 121 706 105 689 84 659 c 1
 36 689 l 1
 66 736 103 770 149 770 c 0xda
 204 770 223 723 257 723 c 0
 279 723 297 738 318 769 c 1xe2
 368 739 l 1xd6
 334 684 296 658 259 658 c 0xe2
144 0 m 1xd6
 60 0 l 1
 134 526 l 1
 218 526 l 1
 144 0 l 1xd6
EndSplineSet
Substitution2: "'smcp' Lowercase to Small Capitals lookup 24 subtable" itilde.sc
Substitution2: "'aalt' Access All Alternates lookup 0 subtable" itilde.sc
EndChar
StartChar: Imacron
Encoding: 298 298 129
Width: 289
GlyphClass: 2
Flags: MW
HStem: 0 21G<65 151 65 65> 668 20G<162 247 247 247> 795 64<96 351 88 360>
VStem: 65 295
AnchorPoint: "Anchor-14" 0 0 basechar 0
AnchorPoint: "Anchor-13" 0 0 basechar 0
AnchorPoint: "Anchor-12" 225 859 basechar 0
AnchorPoint: "Anchor-11" 140 0 basechar 0
AnchorPoint: "Anchor-10" 107 0 basechar 0
LayerCount: 2
Back
Fore
SplineSet
351 795 m 1
 88 795 l 1
 96 859 l 1
 360 859 l 1
 351 795 l 1
247 688 m 1
 151 0 l 1
 65 0 l 1
 162 688 l 1
 247 688 l 1
EndSplineSet
Substitution2: "'c2sc' Capitals to Small Capitals lookup 27 subtable" imacron.sc
Substitution2: "'aalt' Access All Alternates lookup 0 subtable" imacron.sc
Position2: "'cpsp' Capital Spacing lookup 0 subtable" dx=5 dy=0 dh=10 dv=0
EndChar
StartChar: imacron
Encoding: 299 299 492
Width: 277
GlyphClass: 2
Flags: MW
HStem: 0 21G<60 143 60 60> 506 20G<134 217 217 217> 669 64<72 327 64 336>
VStem: 60 276
AnchorPoint: "Anchor-14" 0 0 basechar 0
AnchorPoint: "Anchor-13" 0 0 basechar 0
AnchorPoint: "Anchor-12" 202 733 basechar 0
AnchorPoint: "Anchor-11" 125 0 basechar 0
AnchorPoint: "Anchor-10" 101 0 basechar 0
LayerCount: 2
Back
Fore
SplineSet
327 669 m 1
 64 669 l 1
 72 733 l 1
 336 733 l 1
 327 669 l 1
217 526 m 1
 143 0 l 1
 60 0 l 1
 134 526 l 1
 217 526 l 1
EndSplineSet
Substitution2: "'smcp' Lowercase to Small Capitals lookup 28 subtable" imacron.sc
Substitution2: "'aalt' Access All Alternates lookup 0 subtable" imacron.sc
EndChar
StartChar: Ibreve
Encoding: 300 300 118
Width: 289
GlyphClass: 2
Flags: MW
HStem: 0 21G<65 151 65 65> 668 20G<162 247 247 247> 760 64<193.5 240 193.5 252.5>
VStem: 65 309
AnchorPoint: "Anchor-14" 0 0 basechar 0
AnchorPoint: "Anchor-13" 0 0 basechar 0
AnchorPoint: "Anchor-12" 231 891 basechar 0
AnchorPoint: "Anchor-11" 140 0 basechar 0
AnchorPoint: "Anchor-10" 107 0 basechar 0
LayerCount: 2
Back
Fore
SplineSet
215 760 m 0
 136 760 83 810 85 880 c 1
 139 887 l 1
 148 848 171 824 216 824 c 0
 264 824 300 852 319 891 c 1
 374 875 l 1
 357 804 290 760 215 760 c 0
247 688 m 1
 151 0 l 1
 65 0 l 1
 162 688 l 1
 247 688 l 1
EndSplineSet
Substitution2: "'c2sc' Capitals to Small Capitals lookup 27 subtable" ibreve.sc
Substitution2: "'aalt' Access All Alternates lookup 0 subtable" ibreve.sc
Position2: "'cpsp' Capital Spacing lookup 0 subtable" dx=5 dy=0 dh=10 dv=0
EndChar

StartChar: ibreve
Encoding: 301 301 179
Width: 277
GlyphClass: 2
Flags: MW
HStem: 0 21G<60 144 60 60> 506 20G<134 218 218 218> 645 65<172.5 219 172.5 231.5>
VStem: 65 57<776 783>
AnchorPoint: "Anchor-11" 0 0 basechar 0
AnchorPoint: "Anchor-10" 0 0 basechar 0
AnchorPoint: "Anchor-9" 176 526 basechar 0
AnchorPoint: "Anchor-8" 153 0 basechar 0
LayerCount: 2
Fore
SplineSet
194 645 m 0
 115 645 62 696 65 776 c 1
 122 783 l 1
 129 734 150 710 195 710 c 0
 243 710 280 738 300 787 c 1
 355 770 l 1
 336 690 269 645 194 645 c 0
144 0 m 1
 60 0 l 1
 134 526 l 1
 218 526 l 1
 144 0 l 1
EndSplineSet
Substitution2: "'smcp' Lowercase to Small Capitals lookup 24 subtable" ibreve.sc
Substitution2: "'aalt' Access All Alternates lookup 0 subtable" ibreve.sc
EndChar
StartChar: Iogonek
Encoding: 302 302 130
Width: 289
GlyphClass: 2
Flags: MW
HStem: -228 65<24 39.5> 0 21G<132 151 132 132> 668 20G<162 247 247 247>
VStem: -83 74<-137.5 -110>
AnchorPoint: "Anchor-14" 0 0 basechar 0
AnchorPoint: "Anchor-13" 0 0 basechar 0
AnchorPoint: "Anchor-12" 205 688 basechar 0
AnchorPoint: "Anchor-11" 140 0 basechar 0
AnchorPoint: "Anchor-10" 107 0 basechar 0
LayerCount: 2
Back
Fore
SplineSet
162 688 m 1
 247 688 l 1
 151 0 l 1
 132 0 l 1
 12 -50 -9 -91 -9 -126 c 0
 -9 -149 8 -163 40 -163 c 0
 61 -163 78 -160 102 -155 c 1
 88 -222 l 1
 68 -226 51 -228 28 -228 c 0
 -43 -228 -83 -188 -83 -137 c 0
 -83 -83 -52 -28 67 16 c 1
 162 688 l 1
EndSplineSet
Substitution2: "'c2sc' Capitals to Small Capitals lookup 27 subtable" iogonek.sc
Substitution2: "'aalt' Access All Alternates lookup 0 subtable" iogonek.sc
Position2: "'cpsp' Capital Spacing lookup 0 subtable" dx=5 dy=0 dh=10 dv=0
EndChar
StartChar: iogonek
Encoding: 303 303 493
Width: 277
GlyphClass: 2
Flags: MW
HStem: -228 65<8 23.5> 0 21G<116 143 116 116> 506 20G<134 217 217 217> 658 116<189.5 214>
VStem: -99 74<-137.5 -109> 143 116
AnchorPoint: "Anchor-14" 0 0 basechar 0
AnchorPoint: "Anchor-13" 0 0 basechar 0
AnchorPoint: "Anchor-12" 209 774 basechar 0
AnchorPoint: "Anchor-11" 125 0 basechar 0
AnchorPoint: "Anchor-10" 101 0 basechar 0
LayerCount: 2
Back
Fore
SplineSet
206 774 m 0
 244 774 264 746 259 711 c 0
 255 681 231 658 197 658 c 0
 160 658 139 686 143 720 c 0
 148 751 173 774 206 774 c 0
63 20 m 1
 134 526 l 1
 217 526 l 1
 143 0 l 1
 116 0 l 1
 -4 -50 -25 -91 -25 -126 c 0
 -25 -149 -8 -163 24 -163 c 0
 45 -163 62 -160 86 -155 c 1
 72 -222 l 1
 52 -226 35 -228 12 -228 c 0
 -59 -228 -99 -188 -99 -137 c 0
 -99 -81 -66 -24 63 20 c 1
EndSplineSet
Substitution2: "'smcp' Lowercase to Small Capitals lookup 28 subtable" iogonek.sc
Substitution2: "'aalt' Access All Alternates lookup 0 subtable" iogonek.sc
EndChar

StartChar: Idotaccent
Encoding: 304 304 49
Width: 291
GlyphClass: 2
Flags: MW
HStem: 0 21G<65 152 65 65> 668 20G<162 249 249 249> 784 116<214.5 239>
VStem: 168 116
AnchorPoint: "Anchor-11" 0 0 basechar 0
AnchorPoint: "Anchor-10" 55 532 basechar 0
AnchorPoint: "Anchor-9" 205 688 basechar 0
AnchorPoint: "Anchor-8" 161 0 basechar 0
LayerCount: 2
Fore
SplineSet
231 900 m 0
 269 900 289 872 284 837 c 0
 280 807 256 784 222 784 c 0
 185 784 164 812 168 846 c 1
 173 877 198 900 231 900 c 0
152 0 m 1
 65 0 l 1
 162 688 l 1
 249 688 l 1
 152 0 l 1
EndSplineSet
Substitution2: "'c2sc' Capitals to Small Capitals lookup 23 subtable" i.sc.loclTRK
Substitution2: "'aalt' Access All Alternates lookup 0 subtable" i.sc.loclTRK
Position2: "'cpsp' Capital Spacing lookup 0 subtable" dx=5 dy=0 dh=10 dv=0
EndChar
StartChar: dotlessi
Encoding: 305 305 478
Width: 277
GlyphClass: 2
Flags: MW
HStem: 0 21G<60 143 60 60> 506 20G<134 217 217 217>
VStem: 60 157
AnchorPoint: "Anchor-14" 0 0 basechar 0
AnchorPoint: "Anchor-13" 0 0 basechar 0
AnchorPoint: "Anchor-12" 175 526 basechar 0
AnchorPoint: "Anchor-11" 125 0 basechar 0
AnchorPoint: "Anchor-10" 101 0 basechar 0
LayerCount: 2
Back
Fore
SplineSet
217 526 m 1
 143 0 l 1
 60 0 l 1
 134 526 l 1
 217 526 l 1
EndSplineSet
Substitution2: "'smcp' Lowercase to Small Capitals lookup 28 subtable" dotlessi.sc
Substitution2: "'aalt' Access All Alternates lookup 0 subtable" dotlessi.sc
EndChar
StartChar: IJ
Encoding: 306 306 116
Width: 587
GlyphClass: 2
Flags: MW
HStem: 0 21G<65 151 65 65> 668 20G<162 247 247 247 464 550 550 550>
VStem: 65 485
AnchorPoint: "Anchor-14" 0 0 basechar 0
AnchorPoint: "Anchor-13" 0 0 basechar 0
AnchorPoint: "Anchor-12" 506 688 basechar 0
AnchorPoint: "Anchor-11" 140 0 basechar 0
AnchorPoint: "Anchor-10" 107 0 basechar 0
LayerCount: 2
Back
Fore
SplineSet
247 688 m 1
 151 0 l 1
 65 0 l 1
 162 688 l 1
 247 688 l 1
550 688 m 1
 466 92 l 2
 446 -46 378 -97 264 -134 c 1
 246 -69 l 1
 341 -32 369 9 381 102 c 2
 464 688 l 1
 550 688 l 1
EndSplineSet
Substitution2: "'c2sc' Capitals to Small Capitals lookup 27 subtable" ij.sc
Substitution2: "'aalt' Access All Alternates lookup 0 subtable" ij.sc
Position2: "'cpsp' Capital Spacing lookup 0 subtable" dx=5 dy=0 dh=10 dv=0
EndChar
StartChar: ij
Encoding: 307 307 491
Width: 550
GlyphClass: 2
Flags: MW
HStem: -211 21G<230 230> 0 21G<60 143 60 60> 506 20G<134 217 217 217 407 490 490 490> 658 116<189.5 214 464.5 489>
VStem: 143 116 418 116
AnchorPoint: "Anchor-14" 0 0 basechar 0
AnchorPoint: "Anchor-13" 0 0 basechar 0
AnchorPoint: "Anchor-12" 484 774 basechar 0
AnchorPoint: "Anchor-11" 125 0 basechar 0
AnchorPoint: "Anchor-10" 340 -201 basechar 0
LayerCount: 2
Back
Fore
SplineSet
206 774 m 0
 244 774 264 746 259 711 c 0
 255 681 231 658 197 658 c 0
 160 658 139 686 143 720 c 0
 148 751 173 774 206 774 c 0
481 774 m 0
 519 774 539 746 534 711 c 0
 530 681 506 658 472 658 c 0
 435 658 414 686 418 720 c 0
 423 751 448 774 481 774 c 0
217 526 m 1
 143 0 l 1
 60 0 l 1
 134 526 l 1
 217 526 l 1
490 526 m 1
 420 26 l 2
 399 -121 343 -162 230 -211 c 1
 206 -148 l 1
 278 -115 321 -87 337 27 c 2
 407 526 l 1
 490 526 l 1
EndSplineSet
Substitution2: "'smcp' Lowercase to Small Capitals lookup 28 subtable" ij.sc
Substitution2: "'aalt' Access All Alternates lookup 0 subtable" ij.sc
EndChar
StartChar: Jcircumflex
Encoding: 308 308 135
Width: 297
GlyphClass: 2
Flags: MW
HStem: 668 20G<175 261 261 261>
VStem: -43 432
AnchorPoint: "Anchor-14" 0 0 basechar 0
AnchorPoint: "Anchor-13" 340 779 basechar 0
AnchorPoint: "Anchor-12" 244 909 basechar 0
AnchorPoint: "Anchor-11" 0 0 basechar 0
AnchorPoint: "Anchor-10" 0 0 basechar 0
LayerCount: 2
Back
Fore
SplineSet
351 760 m 1
 237 841 l 1
 103 760 l 1
 69 801 l 1
 216 909 l 1
 271 909 l 1
 389 801 l 1
 351 760 l 1
261 688 m 1
 177 92 l 2
 157 -46 89 -97 -25 -134 c 1
 -43 -69 l 1
 52 -32 80 9 92 102 c 2
 175 688 l 1
 261 688 l 1
EndSplineSet
Substitution2: "'c2sc' Capitals to Small Capitals lookup 27 subtable" jcircumflex.sc
Substitution2: "'aalt' Access All Alternates lookup 0 subtable" jcircumflex.sc
Position2: "'cpsp' Capital Spacing lookup 0 subtable" dx=5 dy=0 dh=10 dv=0
EndChar
StartChar: jcircumflex
Encoding: 309 309 500
Width: 273
GlyphClass: 2
Flags: MW
HStem: -211 21G<-47 -47> 506 20G<130 213 213 213>
VStem: -71 422
AnchorPoint: "Anchor-14" 0 0 basechar 0
AnchorPoint: "Anchor-13" 0 0 basechar 0
AnchorPoint: "Anchor-12" 205 789 basechar 0
AnchorPoint: "Anchor-11" 0 0 basechar 0
AnchorPoint: "Anchor-10" 63 -201 basechar 0
LayerCount: 2
Back
Fore
SplineSet
65 636 m 1
 31 678 l 1
 179 789 l 1
 233 789 l 1
 351 678 l 1
 311 636 l 1
 198 720 l 1
 65 636 l 1
213 526 m 1
 143 26 l 2
 122 -121 66 -162 -47 -211 c 1
 -71 -148 l 1
 1 -115 44 -87 60 27 c 2
 130 526 l 1
 213 526 l 1
EndSplineSet
Substitution2: "'smcp' Lowercase to Small Capitals lookup 28 subtable" jcircumflex.sc
Substitution2: "'aalt' Access All Alternates lookup 0 subtable" jcircumflex.sc
EndChar
StartChar: Kcommaaccent
Encoding: 310 310 139
Width: 574
GlyphClass: 2
Flags: MW
HStem: 0 21G<65 151 65 65 435 435 435 537> 668 20G<162 248 248 248 515 617 617 617>
VStem: 65 552 202 107<-139.5 -119>
AnchorPoint: "Anchor-14" 0 0 basechar 0
AnchorPoint: "Anchor-13" 0 0 basechar 0
AnchorPoint: "Anchor-12" 380 688 basechar 0
AnchorPoint: "Anchor-11" 0 0 basechar 0
AnchorPoint: "Anchor-10" 273 0 basechar 0
LayerCount: 2
Back
Fore
SplineSet
248 688 m 1xe0
 151 0 l 1
 65 0 l 1
 162 688 l 1
 248 688 l 1xe0
617 688 m 1
 305 365 l 1
 537 0 l 1
 435 0 l 1
 207 368 l 1
 515 688 l 1
 617 688 l 1
259 -79 m 0xd0
 291 -79 309 -104 309 -128 c 0
 309 -151 300 -168 274 -210 c 2
 222 -292 l 1
 172 -292 l 1
 221 -175 l 1
 210 -165 202 -151 202 -135 c 0
 202 -103 228 -79 259 -79 c 0xd0
EndSplineSet
Substitution2: "'c2sc' Capitals to Small Capitals lookup 27 subtable" kcommaaccent.sc
Substitution2: "'aalt' Access All Alternates lookup 0 subtable" kcommaaccent.sc
Position2: "'cpsp' Capital Spacing lookup 0 subtable" dx=5 dy=0 dh=10 dv=0
EndChar
StartChar: kcommaaccent
Encoding: 311 311 507
Width: 540
GlyphClass: 2
Flags: MW
HStem: 0 21G<60 143 60 60 373 466 373 373> 471 67<352.5 383> 728 20G<248 248>
VStem: 181 107<-139.5 -119> 424 88<378 430>
AnchorPoint: "Anchor-14" 0 0 basechar 0
AnchorPoint: "Anchor-13" 0 0 basechar 0
AnchorPoint: "Anchor-12" 353 738 basechar 0
AnchorPoint: "Anchor-11" 0 0 basechar 0
AnchorPoint: "Anchor-10" 251 0 basechar 0
LayerCount: 2
Back
Fore
SplineSet
248 748 m 1
 202 425 l 1
 254 503 319 538 386 538 c 0
 460 538 512 489 512 420 c 0
 512 336 458 269 347 234 c 1
 466 0 l 1
 373 0 l 1
 247 256 l 1
 371 291 424 337 424 411 c 0
 424 449 403 471 363 471 c 0
 303 471 234 419 187 313 c 1
 143 0 l 1
 60 0 l 1
 164 738 l 1
 248 748 l 1
238 -79 m 0
 270 -79 288 -104 288 -128 c 0
 288 -151 279 -168 253 -210 c 2
 201 -292 l 1
 151 -292 l 1
 200 -175 l 1
 189 -165 181 -151 181 -135 c 0
 181 -103 207 -79 238 -79 c 0
EndSplineSet
Substitution2: "'smcp' Lowercase to Small Capitals lookup 28 subtable" kcommaaccent.sc
Substitution2: "'aalt' Access All Alternates lookup 0 subtable" kcommaaccent.sc
EndChar

StartChar: kgreenlandic
Encoding: 312 312 193
Width: 499
GlyphClass: 2
Flags: MW
HStem: 0 21G<60 143 60 60 364 364 364 460> 506 20G<134 217 217 217 413 513 513 513>
VStem: 60 453
LayerCount: 2
Fore
SplineSet
143 0 m 1
 60 0 l 1
 134 526 l 1
 217 526 l 1
 143 0 l 1
280 277 m 1
 460 0 l 1
 364 0 l 1
 185 277 l 1
 413 526 l 1
 513 526 l 1
 280 277 l 1
EndSplineSet
Substitution2: "'smcp' Lowercase to Small Capitals lookup 24 subtable" kgreenlandic.sc
Substitution2: "'aalt' Access All Alternates lookup 0 subtable" kgreenlandic.sc
EndChar

StartChar: Lacute
Encoding: 313 313 59
Width: 487
GlyphClass: 2
Flags: MW
HStem: 0 76<162 422> 668 20G<162 247 247 247>
VStem: 65 378<0 76>
AnchorPoint: "Anchor-11" 244 0 basechar 0
AnchorPoint: "Anchor-10" 0 0 basechar 0
AnchorPoint: "Anchor-9" 205 688 basechar 0
AnchorPoint: "Anchor-8" 0 0 basechar 0
LayerCount: 2
Fore
SplineSet
342 834 m 1
 122 756 l 1
 107 801 l 1
 315 906 l 1
 342 834 l 1
162 76 m 1
 443 76 l 1
 422 0 l 1
 65 0 l 1
 162 688 l 1
 247 688 l 1
 162 76 l 1
EndSplineSet
Substitution2: "'c2sc' Capitals to Small Capitals lookup 23 subtable" lacute.sc
Substitution2: "'aalt' Access All Alternates lookup 0 subtable" lacute.sc
Position2: "'cpsp' Capital Spacing lookup 0 subtable" dx=5 dy=0 dh=10 dv=0
EndChar
StartChar: lacute
Encoding: 314 314 512
Width: 287
GlyphClass: 2
Flags: MW
HStem: -12 70<166.5 173.5> 728 20G<244 244>
VStem: 68.71 83.29
AnchorPoint: "Anchor-14" 307 379 basechar 0
AnchorPoint: "Anchor-13" 254 738 basechar 0
AnchorPoint: "Anchor-12" 222 956 basechar 0
AnchorPoint: "Anchor-11" 0 0 basechar 0
AnchorPoint: "Anchor-10" 157 0 basechar 0
LayerCount: 2
Back
Fore
SplineSet
311 956 m 1
 338 884 l 1
 118 806 l 1
 103 851 l 1
 311 956 l 1
244 748 m 1
 152 100 l 2
 149 70 155 58 178 58 c 0
 191 58 203 61 215 66 c 1
 232 4 l 1
 207 -7 185 -12 162 -12 c 0
 95 -12 59 29 71 113 c 2
 160 738 l 1
 244 748 l 1
EndSplineSet
Substitution2: "'smcp' Lowercase to Small Capitals lookup 28 subtable" lacute.sc
Substitution2: "'aalt' Access All Alternates lookup 0 subtable" lacute.sc
EndChar

StartChar: Lcommaaccent
Encoding: 315 315 61
Width: 487
GlyphClass: 2
Flags: MW
HStem: 0 76<162 422> 668 20G<162 247 247 247>
VStem: 65 378<0 76> 173 107<-139.5 -119>
AnchorPoint: "Anchor-11" 244 0 basechar 0
AnchorPoint: "Anchor-10" 0 0 basechar 0
AnchorPoint: "Anchor-9" 205 688 basechar 0
AnchorPoint: "Anchor-8" 0 0 basechar 0
LayerCount: 2
Fore
SplineSet
162 76 m 1xe0
 443 76 l 1
 422 0 l 1
 65 0 l 1
 162 688 l 1
 247 688 l 1
 162 76 l 1xe0
230 -79 m 0xd0
 262 -79 280 -104 280 -128 c 0
 280 -151 271 -168 245 -210 c 2
 193 -292 l 1
 143 -292 l 1
 192 -175 l 1
 181 -165 173 -151 173 -135 c 0
 173 -103 199 -79 230 -79 c 0xd0
EndSplineSet
Substitution2: "'c2sc' Capitals to Small Capitals lookup 23 subtable" lcommaaccent.sc
Substitution2: "'aalt' Access All Alternates lookup 0 subtable" lcommaaccent.sc
Position2: "'cpsp' Capital Spacing lookup 0 subtable" dx=5 dy=0 dh=10 dv=0
EndChar
StartChar: lcommaaccent
Encoding: 316 316 518
Width: 287
GlyphClass: 2
Flags: MW
HStem: -12 70<166.5 173.5> 728 20G<244 244>
VStem: 68.71 83.29 87 107<-139.5 -119>
AnchorPoint: "Anchor-14" 307 379 basechar 0
AnchorPoint: "Anchor-13" 254 738 basechar 0
AnchorPoint: "Anchor-12" 201 738 basechar 0
AnchorPoint: "Anchor-11" 0 0 basechar 0
AnchorPoint: "Anchor-10" 157 0 basechar 0
LayerCount: 2
Back
Fore
SplineSet
244 748 m 1xe0
 152 100 l 2
 149 70 155 58 178 58 c 0
 191 58 203 61 215 66 c 1
 232 4 l 1
 207 -7 185 -12 162 -12 c 0
 95 -12 59 29 71 113 c 2
 160 738 l 1
 244 748 l 1xe0
144 -79 m 0xd0
 176 -79 194 -104 194 -128 c 0
 194 -151 185 -168 159 -210 c 2
 107 -292 l 1
 57 -292 l 1
 106 -175 l 1
 95 -165 87 -151 87 -135 c 0
 87 -103 113 -79 144 -79 c 0xd0
EndSplineSet
Substitution2: "'smcp' Lowercase to Small Capitals lookup 28 subtable" lcommaaccent.sc
Substitution2: "'aalt' Access All Alternates lookup 0 subtable" lcommaaccent.sc
EndChar
StartChar: Lcaron
Encoding: 317 317 145
Width: 487
GlyphClass: 2
Flags: MW
HStem: 0 76<162 422> 668 20G<162 247 247 247 399 399> 677 20G<324 324>
VStem: 65 378<0 76>
AnchorPoint: "Anchor-14" 399 385 basechar 0
AnchorPoint: "Anchor-13" 274 688 basechar 0
AnchorPoint: "Anchor-12" 205 688 basechar 0
AnchorPoint: "Anchor-11" 0 0 basechar 0
AnchorPoint: "Anchor-10" 243 0 basechar 0
LayerCount: 2
Back
Fore
SplineSet
324 697 m 1xb0
 399 688 l 1xd0
 330 509 l 1
 282 516 l 1
 324 697 l 1xb0
247 688 m 1
 162 76 l 1
 443 76 l 1
 422 0 l 1
 65 0 l 1
 162 688 l 1
 247 688 l 1
EndSplineSet
Substitution2: "'c2sc' Capitals to Small Capitals lookup 27 subtable" lcaron.sc
Substitution2: "'aalt' Access All Alternates lookup 0 subtable" lcaron.sc
Position2: "'cpsp' Capital Spacing lookup 0 subtable" dx=5 dy=0 dh=10 dv=0
EndChar

StartChar: Ldot
Encoding: 319 319 62
Width: 487
GlyphClass: 2
Flags: MW
HStem: 0 76<162 422> 325 116<387.5 412> 668 20G<162 247 247 247>
VStem: 65 392.7 341 116
AnchorPoint: "Anchor-11" 244 0 basechar 0
AnchorPoint: "Anchor-10" 0 0 basechar 0
AnchorPoint: "Anchor-9" 205 688 basechar 0
AnchorPoint: "Anchor-8" 0 0 basechar 0
LayerCount: 2
Fore
SplineSet
162 76 m 1xf0
 443 76 l 1
 422 0 l 1
 65 0 l 1
 162 688 l 1
 247 688 l 1
 162 76 l 1xf0
404 441 m 0xe8
 442 441 462 413 457 378 c 0
 453 348 429 325 395 325 c 0
 358 325 337 353 341 387 c 1
 346 418 371 441 404 441 c 0xe8
EndSplineSet
Ligature2: "Ligature Substitution lookup 29 subtable" L periodcentered
Substitution2: "'c2sc' Capitals to Small Capitals lookup 23 subtable" ldot.sc
Substitution2: "'aalt' Access All Alternates lookup 0 subtable" ldot.sc
Position2: "'cpsp' Capital Spacing lookup 0 subtable" dx=5 dy=0 dh=10 dv=0
EndChar

StartChar: ldot
Encoding: 320 320 198
Width: 324
GlyphClass: 2
Flags: MW
HStem: -12 70<126 133> 319 116<254.5 279> 728 20G<203 203>
VStem: 30 82<100 113> 208 116
AnchorPoint: "Anchor-11" 75 0 basechar 0
AnchorPoint: "Anchor-10" 0 0 basechar 0
AnchorPoint: "Anchor-9" 0 0 basechar 0
AnchorPoint: "Anchor-8" 0 0 basechar 0
LayerCount: 2
Fore
SplineSet
112 100 m 2
 108 70 114 58 138 58 c 0
 150 58 162 61 174 66 c 1
 192 4 l 1
 167 -7 144 -12 122 -12 c 0
 55 -12 19 29 30 113 c 2
 119 738 l 1
 203 748 l 1
 112 100 l 2
271 435 m 0
 309 435 329 407 324 372 c 0
 320 342 296 319 262 319 c 0
 225 319 204 347 208 381 c 1
 213 412 238 435 271 435 c 0
EndSplineSet
Ligature2: "Ligature Substitution lookup 29 subtable" l periodcentered
Substitution2: "'smcp' Lowercase to Small Capitals lookup 24 subtable" ldot.sc
Substitution2: "'aalt' Access All Alternates lookup 0 subtable" ldot.sc
EndChar

StartChar: Lslash
Encoding: 321 321 63
Width: 497
GlyphClass: 2
Flags: MW
HStem: 0 76<172 432> 668 20G<172 258 258 258>
VStem: 26 427<76 282>
LayerCount: 2
Fore
SplineSet
432 0 m 1
 75 0 l 1
 112 260 l 1
 53 227 l 1
 26 282 l 1
 123 338 l 1
 172 688 l 1
 258 688 l 1
 216 392 l 1
 396 495 l 1
 424 440 l 1
 205 314 l 1
 172 76 l 1
 453 76 l 1
 432 0 l 1
EndSplineSet
Substitution2: "'c2sc' Capitals to Small Capitals lookup 23 subtable" lslash.sc
Substitution2: "'aalt' Access All Alternates lookup 0 subtable" lslash.sc
Position2: "'cpsp' Capital Spacing lookup 0 subtable" dx=5 dy=0 dh=10 dv=0
EndChar

StartChar: lslash
Encoding: 322 322 199
Width: 294
GlyphClass: 2
Flags: MW
HStem: -12 70<165.5 172.5> 728 20G<243 243>
VStem: 67.71 83.29
AnchorPoint: "Anchor-11" 115 0 basechar 0
AnchorPoint: "Anchor-10" 0 0 basechar 0
AnchorPoint: "Anchor-9" 0 0 basechar 0
AnchorPoint: "Anchor-8" 0 0 basechar 0
LayerCount: 2
Fore
SplineSet
177 58 m 0
 190 58 202 61 214 66 c 1
 231 4 l 1
 206 -7 184 -12 161 -12 c 0
 94 -12 58 29 70 113 c 2
 98 309 l 1
 48 280 l 1
 27 340 l 1
 109 387 l 1
 159 738 l 1
 243 748 l 1
 199 438 l 1
 285 487 l 1
 305 427 l 1
 188 360 l 1
 151 100 l 1
 148 70 154 58 177 58 c 0
EndSplineSet
Substitution2: "'smcp' Lowercase to Small Capitals lookup 24 subtable" lslash.sc
Substitution2: "'aalt' Access All Alternates lookup 0 subtable" lslash.sc
EndChar
StartChar: Nacute
Encoding: 323 323 158
Width: 675
GlyphClass: 2
Flags: MW
HStem: 0 21G<65 146 65 65 425 537 425 425> 0 75<482 482 482 537 425 482> 613 75<218 218> 668 20G<162 275 275 275 552 633 633 633>
VStem: 65 568
AnchorPoint: "Anchor-14" 0 0 basechar 0
AnchorPoint: "Anchor-13" 0 0 basechar 0
AnchorPoint: "Anchor-12" 430 906 basechar 0
AnchorPoint: "Anchor-11" 0 0 basechar 0
AnchorPoint: "Anchor-10" 302 0 basechar 0
LayerCount: 2
Back
Fore
SplineSet
519 906 m 1x98
 546 834 l 1
 326 756 l 1
 311 801 l 1
 519 906 l 1x98
633 688 m 1
 537 0 l 1
 425 0 l 1
 218 613 l 1xa8
 217 534 210 456 192 329 c 2
 146 0 l 1
 65 0 l 1
 162 688 l 1
 275 688 l 1
 482 75 l 1x58
 482 160 487 220 498 305 c 2
 552 688 l 1
 633 688 l 1
EndSplineSet
Substitution2: "'c2sc' Capitals to Small Capitals lookup 27 subtable" nacute.sc
Substitution2: "'locl' Localized Forms in Latin lookup 7 subtable" Nacute.loclPLK
AlternateSubs2: "'aalt' Access All Alternates lookup 1 subtable" Nacute.loclPLK nacute.sc
Position2: "'cpsp' Capital Spacing lookup 0 subtable" dx=5 dy=0 dh=10 dv=0
EndChar

StartChar: nacute
Encoding: 324 324 202
Width: 580
GlyphClass: 2
Flags: MW
HStem: 0 21G<60 143 60 60 368 452 368 368> 467 71<346.5 377.5> 506 20G<134 205 205 205>
VStem: 422.6 84.14
AnchorPoint: "Anchor-11" 253 0 basechar 0
AnchorPoint: "Anchor-10" 124 526 basechar 0
AnchorPoint: "Anchor-9" 332 526 basechar 0
AnchorPoint: "Anchor-8" 0 0 basechar 0
LayerCount: 2
Fore
SplineSet
466 725 m 1xd0
 249 640 l 1
 230 685 l 1
 438 797 l 1
 466 725 l 1xd0
382 538 m 0
 472 538 519 474 504 374 c 1
 452 0 l 1
 368 0 l 1
 420 368 l 2
 432 449 403 467 352 467 c 0xd0
 291 467 230 395 186 315 c 1
 143 0 l 1
 60 0 l 1
 134 526 l 1
 205 526 l 1xb0
 196 417 l 1
 245 490 311 538 382 538 c 0
EndSplineSet
Substitution2: "'smcp' Lowercase to Small Capitals lookup 24 subtable" nacute.sc
Substitution2: "'locl' Localized Forms in Latin lookup 7 subtable" nacute.loclPLK
AlternateSubs2: "'aalt' Access All Alternates lookup 1 subtable" nacute.loclPLK nacute.sc
EndChar
StartChar: Ncommaaccent
Encoding: 325 325 161
Width: 675
GlyphClass: 2
Flags: MW
HStem: 0 21G<65 146 65 65 425 537 425 425> 0 75<482 482 482 537 425 482> 613 75<218 218> 668 20G<162 275 275 275 552 633 633 633>
VStem: 65 568 231 107<-139.5 -119>
AnchorPoint: "Anchor-14" 0 0 basechar 0
AnchorPoint: "Anchor-13" 0 0 basechar 0
AnchorPoint: "Anchor-12" 408 688 basechar 0
AnchorPoint: "Anchor-11" 0 0 basechar 0
AnchorPoint: "Anchor-10" 302 0 basechar 0
LayerCount: 2
Back
Fore
SplineSet
633 688 m 1x98
 537 0 l 1
 425 0 l 1
 218 613 l 1xa8
 217 534 210 456 192 329 c 2
 146 0 l 1
 65 0 l 1
 162 688 l 1
 275 688 l 1
 482 75 l 1x58
 482 160 487 220 498 305 c 2
 552 688 l 1
 633 688 l 1x98
288 -79 m 0x94
 320 -79 338 -104 338 -128 c 0
 338 -151 329 -168 303 -210 c 2
 251 -292 l 1
 201 -292 l 1
 250 -175 l 1
 239 -165 231 -151 231 -135 c 0
 231 -103 257 -79 288 -79 c 0x94
EndSplineSet
Substitution2: "'c2sc' Capitals to Small Capitals lookup 27 subtable" ncommaaccent.sc
Substitution2: "'aalt' Access All Alternates lookup 0 subtable" ncommaaccent.sc
Position2: "'cpsp' Capital Spacing lookup 0 subtable" dx=5 dy=0 dh=10 dv=0
EndChar
StartChar: ncommaaccent
Encoding: 326 326 540
Width: 580
GlyphClass: 2
Flags: MW
HStem: 0 21G<60 143 60 60 368 452 368 368> 467 71<344 382> 506 20G<134 205 205 205>
VStem: 186 107<-139.5 -119> 422.37 84.29
AnchorPoint: "Anchor-14" 0 0 basechar 0
AnchorPoint: "Anchor-13" 0 0 basechar 0
AnchorPoint: "Anchor-12" 327 526 basechar 0
AnchorPoint: "Anchor-11" 0 0 basechar 0
AnchorPoint: "Anchor-10" 256 0 basechar 0
LayerCount: 2
Back
Fore
SplineSet
382 538 m 0xc8
 470 538 519 474 504 370 c 2
 452 0 l 1
 368 0 l 1
 420 368 l 2
 431 444 404 467 360 467 c 0xc8
 291 467 230 395 186 315 c 1
 143 0 l 1
 60 0 l 1
 134 526 l 1
 205 526 l 1xa8
 196 417 l 1
 245 490 306 538 382 538 c 0xc8
243 -79 m 0xd8
 275 -79 293 -104 293 -128 c 0
 293 -151 284 -168 258 -210 c 2
 206 -292 l 1
 156 -292 l 1
 205 -175 l 1
 194 -165 186 -151 186 -135 c 0
 186 -103 212 -79 243 -79 c 0xd8
EndSplineSet
Substitution2: "'smcp' Lowercase to Small Capitals lookup 28 subtable" ncommaaccent.sc
Substitution2: "'aalt' Access All Alternates lookup 0 subtable" ncommaaccent.sc
EndChar

StartChar: Ncaron
Encoding: 327 327 67
Width: 675
GlyphClass: 2
Flags: MW
HStem: 0 21G<65 146 65 65 425 537 425 425> 0 75<482 482 482 537 425 482> 613 75<218 218> 668 20G<162 275 275 275 552 633 633 633> 755 68<420 420 420 441 387 420>
VStem: 65 568
AnchorPoint: "Anchor-11" 302 0 basechar 0
AnchorPoint: "Anchor-10" 0 0 basechar 0
AnchorPoint: "Anchor-9" 408 688 basechar 0
AnchorPoint: "Anchor-8" 0 0 basechar 0
LayerCount: 2
Fore
SplineSet
588 862 m 1x9c
 441 755 l 1
 387 755 l 1
 268 862 l 1
 308 904 l 1
 420 823 l 1
 556 904 l 1
 588 862 l 1x9c
537 0 m 1
 425 0 l 1
 218 613 l 1xac
 217 534 210 456 192 329 c 2
 146 0 l 1
 65 0 l 1
 162 688 l 1
 275 688 l 1
 482 75 l 1x5c
 482 160 487 220 498 305 c 2
 552 688 l 1
 633 688 l 1
 537 0 l 1
EndSplineSet
Substitution2: "'c2sc' Capitals to Small Capitals lookup 23 subtable" ncaron.sc
Substitution2: "'aalt' Access All Alternates lookup 0 subtable" ncaron.sc
Position2: "'cpsp' Capital Spacing lookup 0 subtable" dx=5 dy=0 dh=10 dv=0
EndChar
StartChar: ncaron
Encoding: 328 328 538
Width: 580
GlyphClass: 2
Flags: MW
HStem: 0 21G<60 143 60 60 368 452 368 368> 467 71<344 382> 506 20G<134 205 205 205> 628 69<343 343 343 365 311 343> 677 20G<343 343> 720 20G<193 193 513 513>
VStem: 422.37 84.29
AnchorPoint: "Anchor-14" 0 0 basechar 0
AnchorPoint: "Anchor-13" 0 0 basechar 0
AnchorPoint: "Anchor-12" 355 781 basechar 0
AnchorPoint: "Anchor-11" 0 0 basechar 0
AnchorPoint: "Anchor-10" 256 0 basechar 0
LayerCount: 2
Back
Fore
SplineSet
482 781 m 1xce
 513 740 l 1
 365 628 l 1
 311 628 l 1xd6
 193 740 l 1
 231 781 l 1
 343 697 l 1
 482 781 l 1xce
382 538 m 0
 470 538 519 474 504 370 c 2
 452 0 l 1
 368 0 l 1
 420 368 l 2
 431 444 404 467 360 467 c 0xce
 291 467 230 395 186 315 c 1
 143 0 l 1
 60 0 l 1
 134 526 l 1
 205 526 l 1xae
 196 417 l 1
 245 490 306 538 382 538 c 0
EndSplineSet
Substitution2: "'smcp' Lowercase to Small Capitals lookup 28 subtable" ncaron.sc
Substitution2: "'aalt' Access All Alternates lookup 0 subtable" ncaron.sc
EndChar

StartChar: napostrophe
Encoding: 329 329 203
Width: 580
GlyphClass: 2
Flags: MW
HStem: 0 21G<60 143 60 60 368 452 368 368> 467 71<346.5 377.5> 506 20G<134 205 205 205> 729 20G<150 180.5>
VStem: 108 106 422.6 84.14
AnchorPoint: "Anchor-11" 253 0 basechar 0
AnchorPoint: "Anchor-10" 124 526 basechar 0
AnchorPoint: "Anchor-9" 332 526 basechar 0
AnchorPoint: "Anchor-8" 0 0 basechar 0
LayerCount: 2
Fore
SplineSet
164 749 m 0xdc
 197 749 218 724 214 693 c 0
 212 677 206 663 180 620 c 2
 129 535 l 1
 79 535 l 1
 126 653 l 1
 114 665 105 681 108 701 c 0
 111 729 136 749 164 749 c 0xdc
382 538 m 0
 472 538 519 474 504 374 c 1
 452 0 l 1
 368 0 l 1
 420 368 l 2
 432 449 403 467 352 467 c 0xdc
 291 467 230 395 186 315 c 1
 143 0 l 1
 60 0 l 1
 134 526 l 1
 205 526 l 1xbc
 196 417 l 1
 245 490 311 538 382 538 c 0
EndSplineSet
Substitution2: "'smcp' Lowercase to Small Capitals lookup 24 subtable" napostrophe.sc
Substitution2: "'aalt' Access All Alternates lookup 0 subtable" napostrophe.sc
EndChar

StartChar: Eng
Encoding: 330 330 69
Width: 675
GlyphClass: 2
Flags: MW
HStem: -211 21G<350 350> 0 21G<65 146 65 65 425 463 425 425 537 537> 613 75<218 218> 668 20G<162 275 275 275 552 633 633 633>
VStem: 65 568
AnchorPoint: "Anchor-11" 302 0 basechar 0
AnchorPoint: "Anchor-10" 0 0 basechar 0
AnchorPoint: "Anchor-9" 408 688 basechar 0
AnchorPoint: "Anchor-8" 0 0 basechar 0
LayerCount: 2
Fore
SplineSet
633 688 m 1xd8
 537 0 l 1
 516 -123 467 -168 350 -211 c 1
 330 -149 l 1
 403 -120 444 -94 463 0 c 1
 425 0 l 1
 218 613 l 1xe8
 217 534 210 456 192 329 c 2
 146 0 l 1
 65 0 l 1
 162 688 l 1
 275 688 l 1
 482 75 l 1
 482 160 487 220 498 305 c 2
 552 688 l 1
 633 688 l 1xd8
EndSplineSet
Substitution2: "'c2sc' Capitals to Small Capitals lookup 23 subtable" eng.sc
Substitution2: "'aalt' Access All Alternates lookup 0 subtable" eng.sc
Position2: "'cpsp' Capital Spacing lookup 0 subtable" dx=5 dy=0 dh=10 dv=0
EndChar
StartChar: eng
Encoding: 331 331 545
Width: 580
GlyphClass: 2
Flags: MW
HStem: -211 68<263 298.5 263 323> 0 21G<60 143 60 60 368 368 451 452 451 451> 467 71<344 382> 506 20G<134 205 205 205>
VStem: 363.5 83.5 422.37 84.29
AnchorPoint: "Anchor-14" 0 0 basechar 0
AnchorPoint: "Anchor-13" 0 0 basechar 0
AnchorPoint: "Anchor-12" 327 526 basechar 0
AnchorPoint: "Anchor-11" 0 0 basechar 0
AnchorPoint: "Anchor-10" 238 -201 basechar 0
LayerCount: 2
Back
Fore
SplineSet
382 538 m 0xe4
 470 538 519 474 504 370 c 2
 452 0 l 1
 451 0 l 1
 443 -63 l 2
 428 -164 365 -211 281 -211 c 0
 229 -211 196 -191 173 -172 c 1
 211 -121 l 1
 232 -135 248 -143 278 -143 c 0
 319 -143 351 -120 359 -64 c 2
 368 0 l 1xe8
 420 368 l 2
 431 444 404 467 360 467 c 0xe4
 291 467 230 395 186 315 c 1
 143 0 l 1
 60 0 l 1
 134 526 l 1
 205 526 l 1xd4
 196 417 l 1
 245 490 306 538 382 538 c 0xe4
EndSplineSet
Substitution2: "'smcp' Lowercase to Small Capitals lookup 28 subtable" eng.sc
Substitution2: "'aalt' Access All Alternates lookup 0 subtable" eng.sc
EndChar
StartChar: omacron
Encoding: 333 333 579
Width: 576
GlyphClass: 2
Flags: MW
HStem: -12 68<218 325.5 218 355.5> 470 68<250.5 358> 669 64<222 477 214 486>
VStem: 54 87<148.5 247.5 148.5 270> 435 87<278.5 377.5>
AnchorPoint: "Anchor-14" 0 0 basechar 0
AnchorPoint: "Anchor-13" 509 526 basechar 0
AnchorPoint: "Anchor-12" 352 733 basechar 0
AnchorPoint: "Anchor-11" 0 0 basechar 0
AnchorPoint: "Anchor-10" 253 0 basechar 0
LayerCount: 2
Back
Fore
SplineSet
477 669 m 1
 214 669 l 1
 222 733 l 1
 486 733 l 1
 477 669 l 1
324 538 m 0
 453 538 522 456 522 322 c 0
 522 194 458 -12 253 -12 c 0
 124 -12 54 71 54 205 c 0
 54 335 120 538 324 538 c 0
321 470 m 0
 180 470 141 299 141 196 c 0
 141 101 181 56 255 56 c 0
 396 56 435 227 435 330 c 0
 435 425 395 470 321 470 c 0
EndSplineSet
Substitution2: "'smcp' Lowercase to Small Capitals lookup 28 subtable" omacron.sc
Substitution2: "'aalt' Access All Alternates lookup 0 subtable" omacron.sc
EndChar

StartChar: Obreve
Encoding: 334 334 73
Width: 687
GlyphClass: 2
Flags: MW
HStem: -12 72<263 408 263 434.5> 628 72<303 448.5> 760 64<388.5 435 388.5 447.5>
VStem: 63 90<186 330 186 352> 557 89<361.5 502.5>
AnchorPoint: "Anchor-11" 0 0 basechar 0
AnchorPoint: "Anchor-10" 69 532 basechar 0
AnchorPoint: "Anchor-9" 405 688 basechar 0
AnchorPoint: "Anchor-8" 0 0 basechar 0
LayerCount: 2
Fore
SplineSet
410 760 m 0
 331 760 278 810 280 880 c 1
 334 887 l 1
 343 848 366 824 411 824 c 0
 459 824 495 852 514 891 c 1
 569 875 l 1
 552 804 485 760 410 760 c 0
402 700 m 0
 551 700 646 603 646 422 c 0
 646 240 561 -12 308 -12 c 0
 159 -12 63 85 63 264 c 0
 63 440 149 700 402 700 c 0
399 628 m 0
 207 628 153 405 153 255 c 0
 153 117 215 60 311 60 c 0
 505 60 557 286 557 437 c 0
 557 568 498 628 399 628 c 0
EndSplineSet
Substitution2: "'c2sc' Capitals to Small Capitals lookup 23 subtable" obreve.sc
Substitution2: "'aalt' Access All Alternates lookup 0 subtable" obreve.sc
Position2: "'cpsp' Capital Spacing lookup 0 subtable" dx=5 dy=0 dh=10 dv=0
EndChar

StartChar: obreve
Encoding: 335 335 210
Width: 576
GlyphClass: 2
Flags: MW
HStem: -12 68<218 325.5 218 355.5> 470 68<250.5 358> 645 65<322.5 369 322.5 381.5>
VStem: 54 87<148.5 247.5 148.5 270> 215 57<776 783> 435 87<278.5 377.5>
AnchorPoint: "Anchor-11" 0 0 basechar 0
AnchorPoint: "Anchor-10" 0 0 basechar 0
AnchorPoint: "Anchor-9" 325 526 basechar 0
AnchorPoint: "Anchor-8" 0 0 basechar 0
LayerCount: 2
Fore
SplineSet
344 645 m 0
 265 645 212 696 215 776 c 1
 272 783 l 1
 279 734 300 710 345 710 c 0
 393 710 430 738 450 787 c 1
 505 770 l 1
 486 690 419 645 344 645 c 0
324 538 m 0
 453 538 522 456 522 322 c 0
 522 194 458 -12 253 -12 c 0
 124 -12 54 71 54 205 c 0
 54 335 120 538 324 538 c 0
321 470 m 0
 180 470 141 299 141 196 c 0
 141 101 181 56 255 56 c 0
 396 56 435 227 435 330 c 0
 435 425 395 470 321 470 c 0
EndSplineSet
Substitution2: "'smcp' Lowercase to Small Capitals lookup 24 subtable" obreve.sc
Substitution2: "'aalt' Access All Alternates lookup 0 subtable" obreve.sc
EndChar
StartChar: OE
Encoding: 338 338 210
Width: 894
GlyphClass: 2
Flags: MW
HStem: -12 72<257 307.5> 0 60<370 392.5 257 794 370 370> 0 70<486 794> 316 70<624 786 616 796> 618 70<559 864 559 559> 628 60<298.5 884> 628 72<298.5 401.5 270.5 434>
VStem: 63 90<186 326 186 350> 537 88<412.5 461 412.5 504.5>
LayerCount: 2
Back
Fore
SplineSet
884 688 m 1x3980
 864 618 l 1
 559 618 l 1
 603 574 625 504 625 418 c 0
 625 407 625 397 624 386 c 1
 796 386 l 1
 786 316 l 1
 616 316 l 1
 600 227 561 134 486 70 c 1
 805 70 l 1
 794 0 l 1
 370 0 l 1x3980
 346 -8 320 -12 295 -12 c 0
 157 -12 63 85 63 263 c 0
 63 437 153 700 388 700 c 0x9380
 415 700 441 696 464 687 c 2
 462 688 l 1
 884 688 l 1x3980
301 60 m 0x5580
 484 60 537 290 537 438 c 0
 537 571 479 628 389 628 c 0
 208 628 153 397 153 255 c 0
 153 117 213 60 301 60 c 0x5580
EndSplineSet
Substitution2: "'c2sc' Capitals to Small Capitals lookup 27 subtable" oe.sc
Substitution2: "'aalt' Access All Alternates lookup 0 subtable" oe.sc
Position2: "'cpsp' Capital Spacing lookup 0 subtable" dx=5 dy=0 dh=10 dv=0
EndChar

StartChar: oe
Encoding: 339 339 219
Width: 893
GlyphClass: 2
Flags: MW
HStem: -12 68<218 301.5> -12 71<596 656.5 596 658> 470 68<250.5 358>
VStem: 54 87<148.5 247.5 148.5 270> 435 77 771 88<357.5 417.5>
AnchorPoint: "Anchor-11" 0 0 basechar 0
AnchorPoint: "Anchor-10" 0 0 basechar 0
AnchorPoint: "Anchor-9" 506 526 basechar 0
AnchorPoint: "Anchor-8" 0 0 basechar 0
LayerCount: 2
Fore
SplineSet
859 406 m 0xb4
 859 260 703 218 512 198 c 1
 513 96 561 59 631 59 c 0
 682 59 725 75 773 109 c 1x7c
 809 52 l 1
 753 11 693 -12 623 -12 c 0
 537 -12 482 30 451 95 c 1
 411 33 350 -12 253 -12 c 0
 124 -12 54 71 54 205 c 0
 54 335 120 538 324 538 c 0
 407 538 465 493 496 432 c 1
 537 494 600 538 694 538 c 0
 803 538 859 476 859 406 c 0xb4
516 263 m 1
 678 279 771 312 771 403 c 0
 771 432 753 471 693 471 c 0
 579 471 530 362 516 263 c 1
255 56 m 0xbc
 396 56 435 227 435 330 c 0
 435 425 395 470 321 470 c 0
 180 470 141 299 141 196 c 0
 141 101 181 56 255 56 c 0xbc
EndSplineSet
Substitution2: "'smcp' Lowercase to Small Capitals lookup 24 subtable" oe.sc
Substitution2: "'aalt' Access All Alternates lookup 0 subtable" oe.sc
EndChar
StartChar: Racute
Encoding: 340 340 219
Width: 596
GlyphClass: 2
Flags: MW
HStem: 0 21G<65 151 65 65 437 532 437 437> 296 67<201 306 306 308 192 306> 620 68<237 237 237 332>
VStem: 477 91<484.5 555.5>
AnchorPoint: "Anchor-14" 0 0 basechar 0
AnchorPoint: "Anchor-13" 0 0 basechar 0
AnchorPoint: "Anchor-12" 377 906 basechar 0
AnchorPoint: "Anchor-11" 0 0 basechar 0
AnchorPoint: "Anchor-10" 269 0 basechar 0
LayerCount: 2
Back
Fore
SplineSet
493 834 m 1
 273 756 l 1
 258 801 l 1
 466 906 l 1
 493 834 l 1
568 520 m 0
 568 436 523 344 392 309 c 1
 532 0 l 1
 437 0 l 1
 308 296 l 1
 192 296 l 1
 151 0 l 1
 65 0 l 1
 162 688 l 1
 335 688 l 2
 492 688 568 632 568 520 c 0
237 620 m 1
 201 363 l 1
 306 363 l 2
 441 363 477 449 477 520 c 0
 477 591 433 620 332 620 c 2
 237 620 l 1
EndSplineSet
Substitution2: "'c2sc' Capitals to Small Capitals lookup 27 subtable" racute.sc
Substitution2: "'aalt' Access All Alternates lookup 0 subtable" racute.sc
Position2: "'cpsp' Capital Spacing lookup 0 subtable" dx=5 dy=0 dh=10 dv=0
EndChar
StartChar: racute
Encoding: 341 341 604
Width: 379
GlyphClass: 2
Flags: MW
HStem: 0 21G<60 143 60 60> 455 83<322 347> 506 20G<134 205 205 205> 531 7
VStem: 60 358
AnchorPoint: "Anchor-14" 0 0 basechar 0
AnchorPoint: "Anchor-13" 0 0 basechar 0
AnchorPoint: "Anchor-12" 302 797 basechar 0
AnchorPoint: "Anchor-11" 0 0 basechar 0
AnchorPoint: "Anchor-10" 102 0 basechar 0
LayerCount: 2
Back
Fore
SplineSet
390 797 m 1xc8
 418 725 l 1
 201 640 l 1
 182 685 l 1
 390 797 l 1xc8
353 538 m 0
 373 538 391 535 406 531 c 1x98
 381 450 l 1
 367 454 355 455 339 455 c 0xc8
 269 455 222 392 183 284 c 1
 143 0 l 1
 60 0 l 1
 134 526 l 1
 205 526 l 1xa8
 197 413 l 1
 237 497 291 538 353 538 c 0
EndSplineSet
Substitution2: "'smcp' Lowercase to Small Capitals lookup 28 subtable" racute.sc
Substitution2: "'aalt' Access All Alternates lookup 0 subtable" racute.sc
EndChar
StartChar: Rcommaaccent
Encoding: 342 342 221
Width: 596
GlyphClass: 2
Flags: MW
HStem: 0 21G<65 151 65 65 437 532 437 437> 296 67<201 306 306 308 192 306> 620 68<237 237 237 332>
VStem: 198 107<-139.5 -119> 477 91<484.5 555.5>
AnchorPoint: "Anchor-14" 0 0 basechar 0
AnchorPoint: "Anchor-13" 0 0 basechar 0
AnchorPoint: "Anchor-12" 355 688 basechar 0
AnchorPoint: "Anchor-11" 0 0 basechar 0
AnchorPoint: "Anchor-10" 269 0 basechar 0
LayerCount: 2
Back
Fore
SplineSet
568 520 m 0
 568 436 523 344 392 309 c 1
 532 0 l 1
 437 0 l 1
 308 296 l 1
 192 296 l 1
 151 0 l 1
 65 0 l 1
 162 688 l 1
 335 688 l 2
 492 688 568 632 568 520 c 0
237 620 m 1
 201 363 l 1
 306 363 l 2
 441 363 477 449 477 520 c 0
 477 591 433 620 332 620 c 2
 237 620 l 1
255 -79 m 0
 287 -79 305 -104 305 -128 c 0
 305 -151 296 -168 270 -210 c 2
 218 -292 l 1
 168 -292 l 1
 217 -175 l 1
 206 -165 198 -151 198 -135 c 0
 198 -103 224 -79 255 -79 c 0
EndSplineSet
Substitution2: "'c2sc' Capitals to Small Capitals lookup 27 subtable" rcommaaccent.sc
Substitution2: "'aalt' Access All Alternates lookup 0 subtable" rcommaaccent.sc
Position2: "'cpsp' Capital Spacing lookup 0 subtable" dx=5 dy=0 dh=10 dv=0
EndChar
StartChar: rcommaaccent
Encoding: 343 343 607
Width: 379
GlyphClass: 2
Flags: MW
HStem: 0 21G<60 143 60 60> 455 83<322 347> 506 20G<134 205 205 205> 531 7
VStem: 2 404 32 107<-139.5 -119>
AnchorPoint: "Anchor-14" 0 0 basechar 0
AnchorPoint: "Anchor-13" 0 0 basechar 0
AnchorPoint: "Anchor-12" 272 526 basechar 0
AnchorPoint: "Anchor-11" 0 0 basechar 0
AnchorPoint: "Anchor-10" 102 0 basechar 0
LayerCount: 2
Back
Fore
SplineSet
353 538 m 0xc8
 373 538 391 535 406 531 c 1x98
 381 450 l 1
 367 454 355 455 339 455 c 0xc8
 269 455 222 392 183 284 c 1
 143 0 l 1
 60 0 l 1
 134 526 l 1
 205 526 l 1xa8
 197 413 l 1
 237 497 291 538 353 538 c 0xc8
89 -79 m 0xc4
 121 -79 139 -104 139 -128 c 0
 139 -151 130 -168 104 -210 c 2
 52 -292 l 1
 2 -292 l 1
 51 -175 l 1
 40 -165 32 -151 32 -135 c 0
 32 -103 58 -79 89 -79 c 0xc4
EndSplineSet
Substitution2: "'smcp' Lowercase to Small Capitals lookup 28 subtable" rcommaaccent.sc
Substitution2: "'aalt' Access All Alternates lookup 0 subtable" rcommaaccent.sc
EndChar
StartChar: Rcaron
Encoding: 344 344 220
Width: 596
GlyphClass: 2
Flags: MW
HStem: 0 21G<65 151 65 65 437 532 437 437> 296 67<201 306 306 308 192 306> 620 68<237 237 237 332>
VStem: 477 91<484.5 555.5>
AnchorPoint: "Anchor-14" 0 0 basechar 0
AnchorPoint: "Anchor-13" 0 0 basechar 0
AnchorPoint: "Anchor-12" 377 904 basechar 0
AnchorPoint: "Anchor-11" 0 0 basechar 0
AnchorPoint: "Anchor-10" 269 0 basechar 0
LayerCount: 2
Back
Fore
SplineSet
388 755 m 1
 334 755 l 1
 215 862 l 1
 255 904 l 1
 367 823 l 1
 503 904 l 1
 535 862 l 1
 388 755 l 1
568 520 m 0
 568 436 523 344 392 309 c 1
 532 0 l 1
 437 0 l 1
 308 296 l 1
 192 296 l 1
 151 0 l 1
 65 0 l 1
 162 688 l 1
 335 688 l 2
 492 688 568 632 568 520 c 0
237 620 m 1
 201 363 l 1
 306 363 l 2
 441 363 477 449 477 520 c 0
 477 591 433 620 332 620 c 2
 237 620 l 1
EndSplineSet
Substitution2: "'c2sc' Capitals to Small Capitals lookup 27 subtable" rcaron.sc
Substitution2: "'aalt' Access All Alternates lookup 0 subtable" rcaron.sc
Position2: "'cpsp' Capital Spacing lookup 0 subtable" dx=5 dy=0 dh=10 dv=0
EndChar

StartChar: rcaron
Encoding: 345 345 225
Width: 379
GlyphClass: 2
Flags: MW
HStem: 0 21G<60 143 60 60> 455 83<322.5 347> 506 20G<134 205 205 205> 531 7 628 69<293 293 293 315 261 293> 677 20G<293 293> 720 20G<143 143 463 463>
VStem: 60 403
AnchorPoint: "Anchor-11" 102 0 basechar 0
AnchorPoint: "Anchor-10" 0 0 basechar 0
AnchorPoint: "Anchor-9" 272 526 basechar 0
AnchorPoint: "Anchor-8" 0 0 basechar 0
LayerCount: 2
Fore
SplineSet
463 740 m 1xc7
 315 628 l 1
 261 628 l 1xcb
 143 740 l 1
 181 781 l 1
 293 697 l 1
 432 781 l 1
 463 740 l 1xc7
353 538 m 0
 373 538 391 535 406 531 c 1x97
 381 450 l 1
 366 454 355 455 339 455 c 0xc7
 269 455 222 392 183 284 c 1
 143 0 l 1
 60 0 l 1
 134 526 l 1
 205 526 l 1xa7
 197 413 l 1
 237 497 292 538 353 538 c 0
EndSplineSet
Substitution2: "'smcp' Lowercase to Small Capitals lookup 24 subtable" rcaron.sc
Substitution2: "'aalt' Access All Alternates lookup 0 subtable" rcaron.sc
EndChar

StartChar: scircumflex
Encoding: 349 349 231
Width: 461
GlyphClass: 2
Flags: MW
HStem: -12 68<167.5 243 167.5 250> 471 67<230 287>
VStem: 67 85<374.5 419 374.5 426> 321 88<127.5 173.5>
AnchorPoint: "Anchor-11" 195 0 basechar 0
AnchorPoint: "Anchor-10" 0 0 basechar 0
AnchorPoint: "Anchor-9" 274 526 basechar 0
AnchorPoint: "Anchor-8" 0 0 basechar 0
LayerCount: 2
Fore
SplineSet
135 678 m 1
 283 789 l 1
 337 789 l 1
 455 678 l 1
 415 636 l 1
 302 720 l 1
 169 636 l 1
 135 678 l 1
265 538 m 0
 334 538 388 514 432 474 c 1
 391 421 l 1
 354 455 309 471 265 471 c 0
 195 471 152 442 152 396 c 0
 152 353 186 334 260 312 c 0
 360 281 409 238 409 153 c 0
 409 43 307 -12 193 -12 c 0
 102 -12 42 23 1 63 c 1
 52 115 l 1
 88 78 139 56 196 56 c 0
 290 56 321 108 321 147 c 0
 321 200 293 219 208 247 c 0
 108 281 67 321 67 391 c 0
 67 461 130 538 265 538 c 0
EndSplineSet
Substitution2: "'smcp' Lowercase to Small Capitals lookup 24 subtable" scircumflex.sc
Substitution2: "'aalt' Access All Alternates lookup 0 subtable" scircumflex.sc
EndChar

StartChar: Scedilla
Encoding: 350 350 93
Width: 538
GlyphClass: 2
Flags: MW
HStem: -238 56<149 176.5 149 207> -212 21G<77 77> -98 40<140 210> -12 72<217 222 217 217> -7 21G<162 162> 628 72<285.5 352.5>
VStem: 90 88<485 548.5> 222 70 399 89<164.5 234.5>
AnchorPoint: "Anchor-11" 227 0 basechar 0
AnchorPoint: "Anchor-10" 0 0 basechar 0
AnchorPoint: "Anchor-9" 332 688 basechar 0
AnchorPoint: "Anchor-8" 0 0 basechar 0
LayerCount: 2
Fore
SplineSet
309 396 m 1x7780
 408 365 488 322 488 208 c 0
 488 121 425 -12 222 -12 c 2
 217 -12 l 1
 210 -58 l 1
 268 -63 292 -95 292 -132 c 0
 292 -185 251 -238 163 -238 c 0xb780
 125 -238 95 -226 77 -212 c 1x7780
 105 -166 l 1
 120 -176 137 -182 161 -182 c 0
 192 -182 221 -167 222 -138 c 0
 223 -109 204 -98 140 -98 c 1
 162 -7 l 1
 93 4 41 36 2 79 c 1xaf80
 57 131 l 1
 98 86 149 60 223 60 c 0
 321 60 399 115 399 203 c 0
 399 266 365 295 269 328 c 1
 151 364 90 412 90 509 c 0
 90 588 159 700 323 700 c 0
 412 700 473 670 523 618 c 1
 469 568 l 1
 425 612 380 628 325 628 c 0
 246 628 178 586 178 512 c 0
 178 458 208 430 309 396 c 1x7780
EndSplineSet
Substitution2: "'c2sc' Capitals to Small Capitals lookup 23 subtable" scedilla.sc
Substitution2: "'locl' Localized Forms in Latin lookup 5 subtable" Scommaaccent
Substitution2: "'locl' Localized Forms in Latin lookup 4 subtable" Scommaaccent
AlternateSubs2: "'aalt' Access All Alternates lookup 1 subtable" Scommaaccent scedilla.sc
Position2: "'cpsp' Capital Spacing lookup 0 subtable" dx=5 dy=0 dh=10 dv=0
EndChar

StartChar: scedilla
Encoding: 351 351 230
Width: 461
GlyphClass: 2
Flags: MW
HStem: -238 56<146 173.5 146 204> -212 21G<74 74> -98 40<137 207> -10 66<159 243> 471 67<230 287>
VStem: 67 85<374.5 419 374.5 426> 219 70 321 88<127.5 173.5>
AnchorPoint: "Anchor-11" 195 0 basechar 0
AnchorPoint: "Anchor-10" 0 0 basechar 0
AnchorPoint: "Anchor-9" 274 526 basechar 0
AnchorPoint: "Anchor-8" 0 0 basechar 0
LayerCount: 2
Fore
SplineSet
260 312 m 0x7f
 360 281 409 238 409 153 c 0
 409 50 320 -5 215 -11 c 1
 207 -58 l 1
 265 -63 289 -95 289 -132 c 0
 289 -185 248 -238 160 -238 c 0xbf
 122 -238 92 -226 74 -212 c 1x7f
 102 -166 l 1
 117 -176 134 -182 158 -182 c 0xbf
 189 -182 218 -167 219 -138 c 0
 220 -109 201 -98 137 -98 c 1
 159 -10 l 1
 86 -3 37 28 1 63 c 1
 52 115 l 1
 88 78 139 56 196 56 c 0
 290 56 321 108 321 147 c 0
 321 200 293 219 208 247 c 0
 108 281 67 321 67 391 c 0
 67 461 130 538 265 538 c 0
 334 538 388 514 432 474 c 1
 391 421 l 1
 354 455 309 471 265 471 c 0
 195 471 152 442 152 396 c 0
 152 353 186 334 260 312 c 0x7f
EndSplineSet
Substitution2: "'smcp' Lowercase to Small Capitals lookup 24 subtable" scedilla.sc
Substitution2: "'locl' Localized Forms in Latin lookup 5 subtable" scommaaccent
Substitution2: "'locl' Localized Forms in Latin lookup 4 subtable" scommaaccent
AlternateSubs2: "'aalt' Access All Alternates lookup 1 subtable" scommaaccent scedilla.sc
EndChar

StartChar: Scaron
Encoding: 352 352 92
Width: 538
GlyphClass: 2
Flags: MW
HStem: -12 72<186 272 186 323.5> 628 72<285.5 352.5> 755 68<344 344 344 365 311 344>
VStem: 90 88<485 548.5> 399 89<164.5 234.5>
AnchorPoint: "Anchor-11" 227 0 basechar 0
AnchorPoint: "Anchor-10" 0 0 basechar 0
AnchorPoint: "Anchor-9" 332 688 basechar 0
AnchorPoint: "Anchor-8" 0 0 basechar 0
LayerCount: 2
Fore
SplineSet
512 862 m 1
 365 755 l 1
 311 755 l 1
 192 862 l 1
 232 904 l 1
 344 823 l 1
 480 904 l 1
 512 862 l 1
323 700 m 0
 412 700 473 670 523 618 c 1
 469 568 l 1
 425 612 380 628 325 628 c 0
 246 628 178 586 178 512 c 0
 178 458 208 430 309 396 c 1
 408 365 488 322 488 208 c 0
 488 121 425 -12 222 -12 c 0
 122 -12 51 24 2 79 c 1
 57 131 l 1
 98 86 149 60 223 60 c 0
 321 60 399 115 399 203 c 0
 399 266 365 295 269 328 c 1
 151 364 90 412 90 509 c 0
 90 588 159 700 323 700 c 0
EndSplineSet
Substitution2: "'c2sc' Capitals to Small Capitals lookup 23 subtable" scaron.sc
Substitution2: "'aalt' Access All Alternates lookup 0 subtable" scaron.sc
Position2: "'cpsp' Capital Spacing lookup 0 subtable" dx=5 dy=0 dh=10 dv=0
EndChar

StartChar: scaron
Encoding: 353 353 229
Width: 461
GlyphClass: 2
Flags: MW
HStem: -12 68<167.5 243 167.5 250> 471 67<230 287> 628 69<294 294 294 316 262 294> 677 20G<294 294> 720 20G<144 144 464 464>
VStem: 67 85<374.5 419 374.5 426> 321 88<127.5 173.5>
AnchorPoint: "Anchor-11" 195 0 basechar 0
AnchorPoint: "Anchor-10" 0 0 basechar 0
AnchorPoint: "Anchor-9" 274 526 basechar 0
AnchorPoint: "Anchor-8" 0 0 basechar 0
LayerCount: 2
Fore
SplineSet
464 740 m 1xde
 316 628 l 1
 262 628 l 1xee
 144 740 l 1
 182 781 l 1
 294 697 l 1
 433 781 l 1
 464 740 l 1xde
265 538 m 0
 334 538 388 514 432 474 c 1
 391 421 l 1
 354 455 309 471 265 471 c 0
 195 471 152 442 152 396 c 0
 152 353 186 334 260 312 c 0
 360 281 409 238 409 153 c 0
 409 43 307 -12 193 -12 c 0
 102 -12 42 23 1 63 c 1
 52 115 l 1
 88 78 139 56 196 56 c 0
 290 56 321 108 321 147 c 0
 321 200 293 219 208 247 c 0
 108 281 67 321 67 391 c 0
 67 461 130 538 265 538 c 0
EndSplineSet
Substitution2: "'smcp' Lowercase to Small Capitals lookup 24 subtable" scaron.sc
Substitution2: "'aalt' Access All Alternates lookup 0 subtable" scaron.sc
EndChar

StartChar: Tcedilla
Encoding: 354 354 99
Width: 507
GlyphClass: 2
Flags: MW
HStem: -238 56<190 217.5 190 248> -212 21G<118 118> -98 40<181 251> 0 21G<173 205 173 173 260 260> 614 74<74 259 63 557 346 537 346 346>
VStem: 263 70
AnchorPoint: "Anchor-11" 217 0 basechar 0
AnchorPoint: "Anchor-10" 0 0 basechar 0
AnchorPoint: "Anchor-9" 312 688 basechar 0
AnchorPoint: "Anchor-8" 0 0 basechar 0
LayerCount: 2
Fore
SplineSet
557 688 m 1x7c
 537 614 l 1
 346 614 l 1
 260 0 l 1
 251 -58 l 1
 309 -63 333 -95 333 -132 c 0
 333 -185 292 -238 204 -238 c 0xbc
 166 -238 136 -226 118 -212 c 1x7c
 146 -166 l 1
 161 -176 178 -182 202 -182 c 0xbc
 233 -182 262 -167 263 -138 c 0
 264 -109 245 -98 181 -98 c 1
 205 0 l 1
 173 0 l 1
 259 614 l 1
 63 614 l 1
 74 688 l 1
 557 688 l 1x7c
EndSplineSet
Substitution2: "'c2sc' Capitals to Small Capitals lookup 23 subtable" tcedilla.sc
Substitution2: "'locl' Localized Forms in Latin lookup 5 subtable" uni021A
Substitution2: "'locl' Localized Forms in Latin lookup 4 subtable" uni021A
AlternateSubs2: "'aalt' Access All Alternates lookup 1 subtable" uni021A tcedilla.sc
Position2: "'cpsp' Capital Spacing lookup 0 subtable" dx=5 dy=0 dh=10 dv=0
EndChar
StartChar: uni0162
Encoding: 354 354 241
Width: 507
GlyphClass: 2
Flags: MW
HStem: -238 56<190 217.5 190 248> -212 21G<118 118> -98 40<181 251> 0 21G<173 205 173 173 259 260 260 260> 614 74<74 259 63 557 345 537 345 345>
VStem: 263 70
AnchorPoint: "Anchor-14" 265 345 basechar 0
AnchorPoint: "Anchor-13" 0 0 basechar 0
AnchorPoint: "Anchor-12" 312 688 basechar 0
AnchorPoint: "Anchor-11" 0 0 basechar 0
AnchorPoint: "Anchor-10" 217 0 basechar 0
LayerCount: 2
Back
Fore
SplineSet
74 688 m 1x7c
 557 688 l 1
 537 614 l 1
 345 614 l 1
 259 0 l 1
 260 0 l 1
 251 -58 l 1
 309 -63 333 -95 333 -132 c 0
 333 -185 292 -238 204 -238 c 0xbc
 166 -238 136 -226 118 -212 c 1x7c
 146 -166 l 1
 161 -176 178 -182 202 -182 c 0xbc
 233 -182 262 -167 263 -138 c 0
 264 -109 245 -98 181 -98 c 1
 205 0 l 1
 173 0 l 1
 259 614 l 1
 63 614 l 1
 74 688 l 1x7c
EndSplineSet
Substitution2: "'c2sc' Capitals to Small Capitals lookup 27 subtable" uni0163.sc
Substitution2: "'locl' Localized Forms in Latin lookup 5 subtable" uni021A
Substitution2: "'locl' Localized Forms in Latin lookup 4 subtable" uni021A
AlternateSubs2: "'aalt' Access All Alternates lookup 1 subtable" uni021A uni0163.sc
Position2: "'cpsp' Capital Spacing lookup 0 subtable" dx=5 dy=0 dh=10 dv=0
EndChar

StartChar: tcedilla
Encoding: 355 355 237
Width: 351
GlyphClass: 2
Flags: MW
HStem: -238 56<144 171.5 144 202> -212 21G<72 72> -98 40<135 205> -12 71<212 212> -6 21G<158 158> 461 65<47 129 38 141 221 328>
VStem: 80.67 83.32 217 70
AnchorPoint: "Anchor-11" 193 0 basechar 0
AnchorPoint: "Anchor-10" 0 0 basechar 0
AnchorPoint: "Anchor-9" 0 0 basechar 0
AnchorPoint: "Anchor-8" 0 0 basechar 0
LayerCount: 2
Fore
SplineSet
166 137 m 2x77
 158 82 171 59 216 59 c 0
 242 59 265 67 293 83 c 1
 321 23 l 1
 286 1 251 -10 212 -12 c 1
 205 -58 l 1
 263 -63 287 -95 287 -132 c 0
 287 -185 246 -238 158 -238 c 0xb7
 120 -238 90 -226 72 -212 c 1x6f
 100 -166 l 1
 115 -176 132 -182 156 -182 c 0
 187 -182 216 -167 217 -138 c 0
 218 -109 199 -98 135 -98 c 1
 158 -6 l 1xaf
 100 10 72 60 83 138 c 2
 129 461 l 1
 38 461 l 1
 47 526 l 1
 141 526 l 1
 173 649 l 1
 239 656 l 1
 221 526 l 1
 347 526 l 1
 328 461 l 1
 212 461 l 1
 166 137 l 2x77
EndSplineSet
Substitution2: "'smcp' Lowercase to Small Capitals lookup 24 subtable" tcedilla.sc
Substitution2: "'locl' Localized Forms in Latin lookup 5 subtable" uni021B
Substitution2: "'locl' Localized Forms in Latin lookup 4 subtable" uni021B
AlternateSubs2: "'aalt' Access All Alternates lookup 1 subtable" uni021B tcedilla.sc
EndChar
StartChar: uni0163
Encoding: 355 355 638
Width: 351
GlyphClass: 2
Flags: MW
HStem: -238 56<145 175.5 145 200.5> -212 21G<72 72> -98 40<135 205> -12 71<213 213> -6 21G<158 158> 461 65<47 128 38 141 220 328>
VStem: 80.67 83.32 217 70
AnchorPoint: "Anchor-14" 174 263 basechar 0
AnchorPoint: "Anchor-13" 273 744 basechar 0
AnchorPoint: "Anchor-12" 205 649 basechar 0
AnchorPoint: "Anchor-11" 0 0 basechar 0
AnchorPoint: "Anchor-10" 181 -238 basechar 0
LayerCount: 2
Back
Fore
SplineSet
211 461 m 1x6f
 166 137 l 2
 158 82 171 59 216 59 c 0
 242 59 265 67 293 83 c 1
 321 23 l 1
 286 1 251 -10 213 -12 c 1
 205 -58 l 1
 263 -63 287 -95 287 -136 c 0
 287 -187 243 -238 158 -238 c 0xb7
 120 -238 91 -226 72 -212 c 1x6f
 100 -166 l 1
 115 -176 132 -182 158 -182 c 0xaf
 193 -182 216 -167 217 -138 c 0
 218 -109 199 -98 135 -98 c 1
 158 -6 l 1
 100 10 72 60 83 138 c 2
 128 461 l 1
 38 461 l 1
 47 526 l 1
 141 526 l 1
 173 649 l 1
 239 656 l 1
 220 526 l 1
 347 526 l 1
 328 461 l 1
 211 461 l 1x6f
EndSplineSet
Substitution2: "'smcp' Lowercase to Small Capitals lookup 28 subtable" uni0163.sc
Substitution2: "'locl' Localized Forms in Latin lookup 5 subtable" uni021B
Substitution2: "'locl' Localized Forms in Latin lookup 4 subtable" uni021B
AlternateSubs2: "'aalt' Access All Alternates lookup 1 subtable" uni021B uni0163.sc
EndChar
StartChar: Tcaron
Encoding: 356 356 240
Width: 507
GlyphClass: 2
Flags: MW
HStem: 0 21G<173 259 173 173> 614 74<74 259 63 557 345 537 345 345>
VStem: 63 494<614 688>
AnchorPoint: "Anchor-14" 265 345 basechar 0
AnchorPoint: "Anchor-13" 0 0 basechar 0
AnchorPoint: "Anchor-12" 334 904 basechar 0
AnchorPoint: "Anchor-11" 0 0 basechar 0
AnchorPoint: "Anchor-10" 217 0 basechar 0
LayerCount: 2
Back
Fore
SplineSet
460 904 m 1
 492 862 l 1
 345 755 l 1
 291 755 l 1
 172 862 l 1
 212 904 l 1
 324 823 l 1
 460 904 l 1
557 688 m 1
 537 614 l 1
 345 614 l 1
 259 0 l 1
 173 0 l 1
 259 614 l 1
 63 614 l 1
 74 688 l 1
 557 688 l 1
EndSplineSet
Substitution2: "'c2sc' Capitals to Small Capitals lookup 27 subtable" tcaron.sc
Substitution2: "'aalt' Access All Alternates lookup 0 subtable" tcaron.sc
Position2: "'cpsp' Capital Spacing lookup 0 subtable" dx=5 dy=0 dh=10 dv=0
EndChar
StartChar: tcaron
Encoding: 357 357 636
Width: 351
GlyphClass: 2
Flags: MW
HStem: -12 71<193.5 224> 461 65<47 128 38 141 220 328> 552 20G<281 281> 724 20G<398 398>
VStem: 80.52 83.47
AnchorPoint: "Anchor-14" 174 263 basechar 0
AnchorPoint: "Anchor-13" 273 744 basechar 0
AnchorPoint: "Anchor-12" 205 649 basechar 0
AnchorPoint: "Anchor-11" 0 0 basechar 0
AnchorPoint: "Anchor-10" 193 0 basechar 0
LayerCount: 2
Back
Fore
SplineSet
398 744 m 1
 329 565 l 1
 281 572 l 1
 323 753 l 1
 398 744 l 1
239 656 m 1
 220 526 l 1
 347 526 l 1
 328 461 l 1
 211 461 l 1
 166 137 l 2
 158 82 171 59 216 59 c 0
 242 59 265 67 293 83 c 1
 321 23 l 1
 283 -1 245 -12 203 -12 c 0
 115 -12 69 42 83 138 c 2
 128 461 l 1
 38 461 l 1
 47 526 l 1
 141 526 l 1
 173 649 l 1
 239 656 l 1
EndSplineSet
Substitution2: "'smcp' Lowercase to Small Capitals lookup 28 subtable" tcaron.sc
Substitution2: "'aalt' Access All Alternates lookup 0 subtable" tcaron.sc
EndChar

StartChar: Tbar
Encoding: 358 358 97
Width: 509
GlyphClass: 2
Flags: MW
HStem: 0 21G<173 260 173 173> 324 64<106 219 97 227 314 429> 614 74<74 259 63 557 346 346 346 537>
VStem: 63 494<614 688>
LayerCount: 2
Fore
SplineSet
314 388 m 1
 437 388 l 1
 429 324 l 1
 305 324 l 1
 260 0 l 1
 173 0 l 1
 219 324 l 1
 97 324 l 1
 106 388 l 1
 227 388 l 1
 259 614 l 1
 63 614 l 1
 74 688 l 1
 557 688 l 1
 537 614 l 1
 346 614 l 1
 314 388 l 1
EndSplineSet
Substitution2: "'c2sc' Capitals to Small Capitals lookup 23 subtable" tbar.sc
Substitution2: "'aalt' Access All Alternates lookup 0 subtable" tbar.sc
Position2: "'cpsp' Capital Spacing lookup 0 subtable" dx=5 dy=0 dh=10 dv=0
EndChar
